STARTFONT 2.1
COMMENT
COMMENT Converted from OpenType font "ipag.ttf" by "..\otf2bdf.exe 3.0".
COMMENT
FONT -FreeType-IPAGothic-Medium-R-Normal--32-320-72-72-P-275-ISO10646-1
SIZE 32 72 72
FONTBOUNDINGBOX 32 32 0 -4
STARTPROPERTIES 19
FOUNDRY "FreeType"
FAMILY_NAME "IPAGothic"
WEIGHT_NAME "Medium"
SLANT "R"
SETWIDTH_NAME "Normal"
ADD_STYLE_NAME ""
PIXEL_SIZE 32
POINT_SIZE 320
RESOLUTION_X 72
RESOLUTION_Y 72
SPACING "P"
AVERAGE_WIDTH 275
CHARSET_REGISTRY "ISO10646"
CHARSET_ENCODING "1"
FONT_ASCENT 28
FONT_DESCENT 3
COPYRIGHT "Copyright(c) Information-technology Promotion Agency, Japan (IPA), 2003-2011. You must accept "http://ipafont.ipa.go.jp/ipa_font_license_v1.html" to use this product."
_OTF_FONTFILE "ipag.ttf"
_OTF_PSNAME "IPAGothic"
ENDPROPERTIES
CHARS 11158
STARTCHAR 0020
ENCODING 32
SWIDTH 500 0
DWIDTH 16 0
BBX 0 0 0 0
BITMAP
ENDCHAR
STARTCHAR 0021
ENCODING 33
SWIDTH 500 0
DWIDTH 16 0
BBX 4 25 6 0
BITMAP
F0
F0
F0
F0
F0
F0
F0
F0
F0
F0
F0
F0
F0
F0
F0
70
60
60
60
00
00
F0
F0
F0
F0
ENDCHAR
STARTCHAR 0022
ENCODING 34
SWIDTH 500 0
DWIDTH 16 0
BBX 11 9 2 18
BITMAP
F1E0
F1E0
F1E0
F1E0
3060
60C0
60C0
C180
C180
ENDCHAR
STARTCHAR 0023
ENCODING 35
SWIDTH 500 0
DWIDTH 16 0
BBX 14 27 1 -1
BITMAP
0C30
0C30
0C30
0C30
0C30
0C30
0C30
7FFC
7FFC
1860
1860
1860
1860
1860
1860
1860
1860
38E0
38E0
FFF8
FFF8
30C0
30C0
30C0
30C0
30C0
71C0
ENDCHAR
STARTCHAR 0024
ENCODING 36
SWIDTH 500 0
DWIDTH 16 0
BBX 14 28 1 -1
BITMAP
0300
0300
0F80
1FE0
3B70
7330
6330
6338
6300
7300
3B00
1F00
0F00
03C0
03E0
0370
0318
031C
E30C
E30C
630C
731C
3B38
3FF0
0FE0
0300
0300
0300
ENDCHAR
STARTCHAR 0025
ENCODING 37
SWIDTH 500 0
DWIDTH 16 0
BBX 14 29 1 -2
BITMAP
000C
380C
7C18
6C18
C630
C630
C670
C660
C660
C6C0
C6C0
6D80
7D80
3B00
0300
0370
06F8
06D8
0D8C
0D8C
198C
198C
318C
318C
318C
60D8
60F8
C070
C000
ENDCHAR
STARTCHAR 0026
ENCODING 38
SWIDTH 500 0
DWIDTH 16 0
BBX 14 22 1 2
BITMAP
0780
1FE0
3860
3030
3030
3030
3070
1860
19C0
0F80
0E00
1E00
3F1C
639C
E198
C1D8
C0F8
C078
C070
60F8
3FF8
1F9C
ENDCHAR
STARTCHAR 0027
ENCODING 39
SWIDTH 500 0
DWIDTH 16 0
BBX 4 9 2 18
BITMAP
F0
F0
F0
F0
30
60
60
C0
C0
ENDCHAR
STARTCHAR 0028
ENCODING 40
SWIDTH 500 0
DWIDTH 16 0
BBX 8 29 5 -2
BITMAP
03
06
0C
1C
18
30
30
60
60
60
C0
C0
C0
C0
C0
C0
C0
C0
C0
60
60
60
30
30
18
18
0C
06
03
ENDCHAR
STARTCHAR 0029
ENCODING 41
SWIDTH 500 0
DWIDTH 16 0
BBX 8 29 3 -2
BITMAP
C0
60
30
38
18
0C
0C
06
06
06
03
03
03
03
03
03
03
03
03
06
06
06
0C
0C
18
38
30
60
C0
ENDCHAR
STARTCHAR 002A
ENCODING 42
SWIDTH 500 0
DWIDTH 16 0
BBX 14 16 1 4
BITMAP
0300
0300
0300
E31C
F33C
7B78
0DE0
0300
0EC0
3B70
F33C
F33C
631C
0300
0300
0300
ENDCHAR
STARTCHAR 002B
ENCODING 43
SWIDTH 500 0
DWIDTH 16 0
BBX 12 20 2 2
BITMAP
0600
0600
0600
0600
0600
0600
0600
0600
0600
FFF0
FFF0
0600
0600
0600
0600
0600
0600
0600
0600
0600
ENDCHAR
STARTCHAR 002C
ENCODING 44
SWIDTH 500 0
DWIDTH 16 0
BBX 5 9 2 -4
BITMAP
78
78
78
70
70
70
E0
E0
40
ENDCHAR
STARTCHAR 002D
ENCODING 45
SWIDTH 500 0
DWIDTH 16 0
BBX 12 2 2 11
BITMAP
FFF0
FFF0
ENDCHAR
STARTCHAR 002E
ENCODING 46
SWIDTH 500 0
DWIDTH 16 0
BBX 4 4 3 0
BITMAP
F0
F0
F0
F0
ENDCHAR
STARTCHAR 002F
ENCODING 47
SWIDTH 500 0
DWIDTH 16 0
BBX 14 28 1 -2
BITMAP
000C
0008
0018
0018
0010
0030
0020
0060
0040
00C0
0080
0180
0100
0300
0200
0600
0600
0C00
0C00
0800
1800
1000
3000
2000
6000
4000
C000
8000
ENDCHAR
STARTCHAR 0030
ENCODING 48
SWIDTH 500 0
DWIDTH 16 0
BBX 12 22 2 2
BITMAP
0F00
3FC0
30C0
60E0
60E0
E0E0
C1F0
C130
C330
C230
C230
C630
C430
CC30
C830
F830
7060
7060
6060
30C0
3FC0
0F00
ENDCHAR
STARTCHAR 0031
ENCODING 49
SWIDTH 500 0
DWIDTH 16 0
BBX 6 22 4 2
BITMAP
0C
3C
FC
EC
8C
0C
0C
0C
0C
0C
0C
0C
0C
0C
0C
0C
0C
0C
0C
0C
0C
0C
ENDCHAR
STARTCHAR 0032
ENCODING 50
SWIDTH 500 0
DWIDTH 16 0
BBX 13 22 2 2
BITMAP
0F80
3FE0
3870
7038
6018
E018
E018
0018
0030
0070
00E0
01C0
0380
0F00
1E00
1C00
3800
7000
7000
E000
FFF8
FFF8
ENDCHAR
STARTCHAR 0033
ENCODING 51
SWIDTH 500 0
DWIDTH 16 0
BBX 13 22 2 2
BITMAP
1F80
3FC0
7060
E030
E030
0030
0030
0070
00E0
0FC0
0FC0
00E0
0030
0018
0018
0018
0018
C018
E030
7070
3FE0
1F80
ENDCHAR
STARTCHAR 0034
ENCODING 52
SWIDTH 500 0
DWIDTH 16 0
BBX 14 22 1 2
BITMAP
0070
0070
00F0
01F0
01B0
03B0
0730
0630
0E30
1C30
1C30
3830
3030
7030
E030
FFFC
FFFC
0030
0030
0030
0030
0030
ENDCHAR
STARTCHAR 0035
ENCODING 53
SWIDTH 500 0
DWIDTH 16 0
BBX 13 22 1 2
BITMAP
7FF0
7FF0
7000
7000
7000
6000
6000
6780
6FE0
78F0
7070
6038
2038
0018
0018
0018
0018
E038
6030
7070
3FE0
0F80
ENDCHAR
STARTCHAR 0036
ENCODING 54
SWIDTH 500 0
DWIDTH 16 0
BBX 13 22 2 2
BITMAP
0F80
1FE0
38E0
3070
6070
6000
4000
C000
C780
DFE0
F070
E030
E018
C018
C018
C018
4018
4038
6030
3070
1FE0
0F80
ENDCHAR
STARTCHAR 0037
ENCODING 55
SWIDTH 500 0
DWIDTH 16 0
BBX 12 22 2 2
BITMAP
FFF0
FFF0
0070
0060
00E0
00E0
00C0
01C0
0180
0180
0380
0380
0300
0700
0700
0600
0E00
0E00
0E00
0C00
1C00
1C00
ENDCHAR
STARTCHAR 0038
ENCODING 56
SWIDTH 500 0
DWIDTH 16 0
BBX 14 22 1 2
BITMAP
0F80
1FE0
3870
7038
6018
6018
6018
7038
3870
1FE0
1FE0
3070
6038
C01C
C00C
C00C
C00C
C00C
6018
7838
3FF0
0FC0
ENDCHAR
STARTCHAR 0039
ENCODING 57
SWIDTH 500 0
DWIDTH 16 0
BBX 12 22 2 2
BITMAP
0F00
3FC0
70C0
6060
C020
C030
C030
C030
C030
C070
6070
70F0
3FB0
1F30
0030
0030
0020
E060
E060
70C0
3F80
1F00
ENDCHAR
STARTCHAR 003A
ENCODING 58
SWIDTH 500 0
DWIDTH 16 0
BBX 4 15 6 2
BITMAP
F0
F0
F0
F0
00
00
00
00
00
00
00
F0
F0
F0
F0
ENDCHAR
STARTCHAR 003B
ENCODING 59
SWIDTH 500 0
DWIDTH 16 0
BBX 5 20 5 -4
BITMAP
78
78
78
78
00
00
00
00
00
00
00
00
78
70
70
70
60
E0
E0
C0
ENDCHAR
STARTCHAR 003C
ENCODING 60
SWIDTH 500 0
DWIDTH 16 0
BBX 13 25 1 0
BITMAP
0008
0018
0038
0070
00E0
01C0
0380
0700
0E00
1C00
3800
7000
E000
E000
7000
3800
1C00
0E00
0700
0380
01C0
0060
0038
0018
0008
ENDCHAR
STARTCHAR 003D
ENCODING 61
SWIDTH 500 0
DWIDTH 16 0
BBX 12 8 2 8
BITMAP
FFF0
FFF0
0000
0000
0000
0000
FFF0
FFF0
ENDCHAR
STARTCHAR 003E
ENCODING 62
SWIDTH 500 0
DWIDTH 16 0
BBX 13 25 2 0
BITMAP
8000
C000
E000
7000
3800
1C00
0E00
0700
0380
01C0
00E0
0070
0038
0038
0070
00E0
01C0
0380
0700
0E00
1C00
7000
E000
C000
8000
ENDCHAR
STARTCHAR 003F
ENCODING 63
SWIDTH 500 0
DWIDTH 16 0
BBX 13 25 2 0
BITMAP
0F80
3FE0
7870
E038
E018
C018
C018
C038
0030
0070
00E0
01C0
0380
0700
0700
0700
0700
0E00
0E00
0000
0000
0F00
0F00
0F00
0F00
ENDCHAR
STARTCHAR 0040
ENCODING 64
SWIDTH 500 0
DWIDTH 16 0
BBX 14 24 1 0
BITMAP
0780
1FE0
3830
3010
7018
63E8
67EC
CCCC
CCCC
D8CC
D8CC
D8CC
D8CC
D8CC
D9CC
D9D8
CFF8
6F70
6000
6010
3018
3878
1FF0
07C0
ENDCHAR
STARTCHAR 0041
ENCODING 65
SWIDTH 500 0
DWIDTH 16 0
BBX 14 22 1 2
BITMAP
0780
0780
0780
0FC0
0FC0
0CC0
0CC0
1CE0
1CE0
1860
1860
3870
3870
3FF0
3FF0
7038
7038
7038
6018
E01C
E01C
E01C
ENDCHAR
STARTCHAR 0042
ENCODING 66
SWIDTH 500 0
DWIDTH 16 0
BBX 12 22 2 2
BITMAP
FF00
FFC0
C1C0
C0E0
C060
C060
C060
C060
C0C0
C1C0
FF00
FF80
C0C0
C060
C030
C030
C030
C030
C070
C0E0
FFC0
FF00
ENDCHAR
STARTCHAR 0043
ENCODING 67
SWIDTH 500 0
DWIDTH 16 0
BBX 13 22 1 2
BITMAP
0FC0
1FE0
3870
7038
6038
6018
C000
C000
C000
C000
C000
C000
C000
C000
C000
C018
6018
6038
7038
3870
1FE0
0FC0
ENDCHAR
STARTCHAR 0044
ENCODING 68
SWIDTH 500 0
DWIDTH 16 0
BBX 13 22 1 2
BITMAP
FF00
FFC0
30E0
3070
3030
3030
3018
3018
3018
3018
3018
3018
3018
3018
3018
3038
3030
3030
3070
30E0
FFC0
FF00
ENDCHAR
STARTCHAR 0045
ENCODING 69
SWIDTH 500 0
DWIDTH 16 0
BBX 12 22 2 2
BITMAP
FFE0
FFE0
C000
C000
C000
C000
C000
C000
C000
C000
FFC0
FFC0
C000
C000
C000
C000
C000
C000
C000
C000
FFF0
FFF0
ENDCHAR
STARTCHAR 0046
ENCODING 70
SWIDTH 500 0
DWIDTH 16 0
BBX 12 22 2 2
BITMAP
FFF0
FFF0
C000
C000
C000
C000
C000
C000
C000
C000
FFC0
FFC0
C000
C000
C000
C000
C000
C000
C000
C000
C000
C000
ENDCHAR
STARTCHAR 0047
ENCODING 71
SWIDTH 500 0
DWIDTH 16 0
BBX 13 22 2 2
BITMAP
0F80
1FE0
38F0
7070
6030
6038
C000
C000
C000
C000
C000
C000
C1F8
C1F8
C018
C038
6038
6038
6078
30F8
1FD8
0F98
ENDCHAR
STARTCHAR 0048
ENCODING 72
SWIDTH 500 0
DWIDTH 16 0
BBX 12 22 2 2
BITMAP
C030
C030
C030
C030
C030
C030
C030
C030
C030
FFF0
FFF0
C030
C030
C030
C030
C030
C030
C030
C030
C030
C030
C030
ENDCHAR
STARTCHAR 0049
ENCODING 73
SWIDTH 500 0
DWIDTH 16 0
BBX 10 22 3 2
BITMAP
FFC0
FFC0
0C00
0C00
0C00
0C00
0C00
0C00
0C00
0C00
0C00
0C00
0C00
0C00
0C00
0C00
0C00
0C00
0C00
0C00
FFC0
FFC0
ENDCHAR
STARTCHAR 004A
ENCODING 74
SWIDTH 500 0
DWIDTH 16 0
BBX 11 22 2 2
BITMAP
0060
0060
0060
0060
0060
0060
0060
0060
0060
0060
0060
0060
0060
0060
0060
0060
E060
E060
6060
70C0
3FC0
1F00
ENDCHAR
STARTCHAR 004B
ENCODING 75
SWIDTH 500 0
DWIDTH 16 0
BBX 12 22 2 2
BITMAP
C0E0
C0E0
C1C0
C380
C380
C700
CF00
CE00
DC00
DE00
FE00
F700
E700
E380
C380
C180
C1C0
C1C0
C0E0
C0E0
C070
C070
ENDCHAR
STARTCHAR 004C
ENCODING 76
SWIDTH 500 0
DWIDTH 16 0
BBX 12 22 2 2
BITMAP
C000
C000
C000
C000
C000
C000
C000
C000
C000
C000
C000
C000
C000
C000
C000
C000
C000
C000
C000
C000
FFF0
FFF0
ENDCHAR
STARTCHAR 004D
ENCODING 77
SWIDTH 500 0
DWIDTH 16 0
BBX 12 22 2 2
BITMAP
E070
E070
E070
E0F0
F0F0
F0F0
F0F0
F0F0
D0B0
D1B0
D9B0
D9B0
D9B0
D9B0
C930
CB30
CF30
CF30
CF30
CF30
C630
C630
ENDCHAR
STARTCHAR 004E
ENCODING 78
SWIDTH 500 0
DWIDTH 16 0
BBX 12 22 2 2
BITMAP
E030
E030
F030
F030
F830
D830
D830
DC30
CC30
CE30
C630
C630
C730
C330
C3B0
C1B0
C1F0
C0F0
C0F0
C0F0
C070
C070
ENDCHAR
STARTCHAR 004F
ENCODING 79
SWIDTH 500 0
DWIDTH 16 0
BBX 14 22 1 2
BITMAP
0780
1FE0
3870
3030
6018
6018
C00C
C00C
C00C
C00C
C00C
C00C
C00C
C00C
C00C
C00C
6018
6018
3030
3870
1FE0
0780
ENDCHAR
STARTCHAR 0050
ENCODING 80
SWIDTH 500 0
DWIDTH 16 0
BBX 12 22 2 2
BITMAP
FF00
FFC0
C0E0
C070
C030
C030
C030
C030
C060
C0E0
FFC0
FF00
C000
C000
C000
C000
C000
C000
C000
C000
C000
C000
ENDCHAR
STARTCHAR 0051
ENCODING 81
SWIDTH 500 0
DWIDTH 16 0
BBX 14 24 1 -1
BITMAP
0780
1FE0
3870
3030
6018
6018
C008
C00C
C00C
C00C
C00C
C00C
C00C
C00C
C00C
C11C
6398
6198
71F8
38F0
1FE0
0FE0
0070
0020
ENDCHAR
STARTCHAR 0052
ENCODING 82
SWIDTH 500 0
DWIDTH 16 0
BBX 12 22 2 2
BITMAP
FF00
FFC0
C0E0
C070
C030
C030
C030
C030
C060
C1E0
FFC0
FF00
C700
C300
C380
C380
C1C0
C1C0
C0E0
C0E0
C070
C070
ENDCHAR
STARTCHAR 0053
ENCODING 83
SWIDTH 500 0
DWIDTH 16 0
BBX 13 22 2 2
BITMAP
1F80
3FC0
70E0
E060
C070
C070
C000
6000
7000
3C00
0F00
0380
00E0
0070
0030
0018
C018
C018
E038
7070
3FF0
1FC0
ENDCHAR
STARTCHAR 0054
ENCODING 84
SWIDTH 500 0
DWIDTH 16 0
BBX 14 22 1 2
BITMAP
FFFC
FFFC
0300
0300
0300
0300
0300
0300
0300
0300
0300
0300
0300
0300
0300
0300
0300
0300
0300
0300
0300
0300
ENDCHAR
STARTCHAR 0055
ENCODING 85
SWIDTH 500 0
DWIDTH 16 0
BBX 12 22 2 2
BITMAP
C030
C030
C030
C030
C030
C030
C030
C030
C030
C030
C030
C030
C030
C030
C030
C030
C030
C030
E060
70E0
3FC0
1F80
ENDCHAR
STARTCHAR 0056
ENCODING 86
SWIDTH 500 0
DWIDTH 16 0
BBX 14 22 1 2
BITMAP
E01C
E01C
6018
7038
7038
7038
3030
3870
3870
3870
1860
1860
1CE0
1CE0
0CC0
0CC0
0CC0
0FC0
0FC0
0780
0780
0780
ENDCHAR
STARTCHAR 0057
ENCODING 87
SWIDTH 500 0
DWIDTH 16 0
BBX 14 22 1 2
BITMAP
C30C
C30C
C79C
E79C
E79C
E79C
E79C
6798
6698
6498
6CD8
6CD8
6CD8
6CD8
6CD8
6CF8
3870
3870
3870
3870
3870
3870
ENDCHAR
STARTCHAR 0058
ENCODING 88
SWIDTH 500 0
DWIDTH 16 0
BBX 14 22 1 2
BITMAP
7038
3030
3870
3870
1CE0
1CE0
0FC0
0FC0
0780
0780
0780
0780
0FC0
0FC0
1CC0
1CE0
1860
3870
3870
7038
7038
E01C
ENDCHAR
STARTCHAR 0059
ENCODING 89
SWIDTH 500 0
DWIDTH 16 0
BBX 14 22 1 2
BITMAP
E01C
7038
7038
3030
3870
1860
1CE0
1CE0
0CC0
0FC0
0780
0780
0300
0300
0300
0300
0300
0300
0300
0300
0300
0300
ENDCHAR
STARTCHAR 005A
ENCODING 90
SWIDTH 500 0
DWIDTH 16 0
BBX 12 22 2 2
BITMAP
FFF0
FFF0
0070
00E0
00E0
01C0
01C0
0380
0380
0700
0700
0E00
0C00
1C00
1800
3800
3000
7000
6000
E000
FFF0
FFF0
ENDCHAR
STARTCHAR 005B
ENCODING 91
SWIDTH 500 0
DWIDTH 16 0
BBX 9 29 4 -2
BITMAP
FF80
FF80
C000
C000
C000
C000
C000
C000
C000
C000
C000
C000
C000
C000
C000
C000
C000
C000
C000
C000
C000
C000
C000
C000
C000
C000
C000
FF80
FF80
ENDCHAR
STARTCHAR 005C
ENCODING 92
SWIDTH 500 0
DWIDTH 16 0
BBX 12 22 2 2
BITMAP
C030
E070
6060
70E0
30C0
1980
1980
0F00
0F00
FFF0
FFF0
0600
0600
0600
FFF0
FFF0
0600
0600
0600
0600
0600
0600
ENDCHAR
STARTCHAR 005D
ENCODING 93
SWIDTH 500 0
DWIDTH 16 0
BBX 9 29 3 -2
BITMAP
FF80
FF80
0180
0180
0180
0180
0180
0180
0180
0180
0180
0180
0180
0180
0180
0180
0180
0180
0180
0180
0180
0180
0180
0180
0180
0180
0180
FF80
FF80
ENDCHAR
STARTCHAR 005E
ENCODING 94
SWIDTH 500 0
DWIDTH 16 0
BBX 10 3 3 21
BITMAP
1E00
7380
C0C0
ENDCHAR
STARTCHAR 005F
ENCODING 95
SWIDTH 500 0
DWIDTH 16 0
BBX 16 1 0 -4
BITMAP
FFFF
ENDCHAR
STARTCHAR 0060
ENCODING 96
SWIDTH 500 0
DWIDTH 16 0
BBX 7 4 4 20
BITMAP
F0
38
1C
0E
ENDCHAR
STARTCHAR 0061
ENCODING 97
SWIDTH 500 0
DWIDTH 16 0
BBX 13 15 2 1
BITMAP
1F00
3FC0
70C0
6060
E060
0060
03E0
1FE0
7860
E060
C060
C0E0
E1E0
7FF8
3E38
ENDCHAR
STARTCHAR 0062
ENCODING 98
SWIDTH 500 0
DWIDTH 16 0
BBX 12 22 2 2
BITMAP
C000
C000
C000
C000
C000
C000
C000
CF80
FFC0
F1E0
E060
C070
C030
C030
C030
C030
C030
E070
E060
F0E0
FFC0
CF80
ENDCHAR
STARTCHAR 0063
ENCODING 99
SWIDTH 500 0
DWIDTH 16 0
BBX 12 15 2 2
BITMAP
0F80
3FC0
70E0
6060
C070
C000
C000
C000
C000
C000
C070
6070
70E0
3FC0
0F80
ENDCHAR
STARTCHAR 0064
ENCODING 100
SWIDTH 500 0
DWIDTH 16 0
BBX 12 22 2 2
BITMAP
0030
0030
0030
0030
0030
0030
0030
1F30
3FF0
70F0
6070
C070
C030
C030
C030
C030
C030
E070
6070
70F0
3FF0
1F30
ENDCHAR
STARTCHAR 0065
ENCODING 101
SWIDTH 500 0
DWIDTH 16 0
BBX 12 15 2 2
BITMAP
0F80
3FC0
70E0
6060
E070
E070
FFF0
FFF0
C000
C000
E000
6070
70E0
3FE0
0F80
ENDCHAR
STARTCHAR 0066
ENCODING 102
SWIDTH 500 0
DWIDTH 16 0
BBX 10 22 3 2
BITMAP
0FC0
1FC0
1800
1800
1800
1800
1800
FFC0
FFC0
1800
1800
1800
1800
1800
1800
1800
1800
1800
1800
1800
1800
1800
ENDCHAR
STARTCHAR 0067
ENCODING 103
SWIDTH 500 0
DWIDTH 16 0
BBX 12 20 2 -3
BITMAP
0FB0
3FF0
70F0
6070
C030
C030
C030
C030
C030
6070
70F0
3FF0
1F30
0030
0030
6030
7070
78E0
3FC0
0F80
ENDCHAR
STARTCHAR 0068
ENCODING 104
SWIDTH 500 0
DWIDTH 16 0
BBX 12 22 2 2
BITMAP
C000
C000
C000
C000
C000
C000
C000
CFC0
FFE0
F870
E030
C030
C030
C030
C030
C030
C030
C030
C030
C030
C030
C030
ENDCHAR
STARTCHAR 0069
ENCODING 105
SWIDTH 500 0
DWIDTH 16 0
BBX 3 22 7 2
BITMAP
E0
E0
E0
00
00
00
00
C0
C0
C0
C0
C0
C0
C0
C0
C0
C0
C0
C0
C0
C0
C0
ENDCHAR
STARTCHAR 006A
ENCODING 106
SWIDTH 500 0
DWIDTH 16 0
BBX 7 27 3 -3
BITMAP
0E
0E
0E
00
00
00
00
06
06
06
06
06
06
06
06
06
06
06
06
06
06
06
06
06
86
FE
FC
ENDCHAR
STARTCHAR 006B
ENCODING 107
SWIDTH 500 0
DWIDTH 16 0
BBX 12 22 3 2
BITMAP
C000
C000
C000
C000
C000
C000
C000
C1C0
C380
C700
C600
CE00
DC00
FC00
F600
E700
C300
C380
C1C0
C1C0
C0E0
C070
ENDCHAR
STARTCHAR 006C
ENCODING 108
SWIDTH 500 0
DWIDTH 16 0
BBX 6 22 7 1
BITMAP
C0
C0
C0
C0
C0
C0
C0
C0
C0
C0
C0
C0
C0
C0
C0
C0
C0
C0
C0
C0
FC
7C
ENDCHAR
STARTCHAR 006D
ENCODING 109
SWIDTH 500 0
DWIDTH 16 0
BBX 14 15 1 2
BITMAP
DE78
FFFC
E38C
C30C
C30C
C30C
C30C
C30C
C30C
C30C
C30C
C30C
C30C
C30C
C30C
ENDCHAR
STARTCHAR 006E
ENCODING 110
SWIDTH 500 0
DWIDTH 16 0
BBX 12 15 2 2
BITMAP
CFC0
FFE0
F870
E030
C030
C030
C030
C030
C030
C030
C030
C030
C030
C030
C030
ENDCHAR
STARTCHAR 006F
ENCODING 111
SWIDTH 500 0
DWIDTH 16 0
BBX 12 15 2 2
BITMAP
0F00
3FC0
70E0
6060
C070
C030
C030
C030
C030
C030
C070
6060
70E0
3FC0
0F00
ENDCHAR
STARTCHAR 0070
ENCODING 112
SWIDTH 500 0
DWIDTH 16 0
BBX 12 20 2 -3
BITMAP
CF80
FFC0
F0E0
E060
E030
C030
C030
C030
C030
C030
E070
E0E0
F1E0
FFC0
CF80
C000
C000
C000
C000
C000
ENDCHAR
STARTCHAR 0071
ENCODING 113
SWIDTH 500 0
DWIDTH 16 0
BBX 12 20 2 -3
BITMAP
1F30
3FF0
78F0
7070
E070
C030
C030
C030
C030
C030
C070
6070
70F0
3FF0
1F30
0030
0030
0030
0030
0030
ENDCHAR
STARTCHAR 0072
ENCODING 114
SWIDTH 500 0
DWIDTH 16 0
BBX 8 15 5 3
BITMAP
C7
CF
DE
F8
E0
C0
C0
C0
C0
C0
C0
C0
C0
C0
C0
ENDCHAR
STARTCHAR 0073
ENCODING 115
SWIDTH 500 0
DWIDTH 16 0
BBX 12 15 2 2
BITMAP
1F80
3FC0
70E0
6060
6000
3800
1E00
07C0
00E0
0070
0030
E030
F070
7FE0
1F80
ENDCHAR
STARTCHAR 0074
ENCODING 116
SWIDTH 500 0
DWIDTH 16 0
BBX 10 19 3 1
BITMAP
1800
1800
1800
1800
FF80
FF80
1800
1800
1800
1800
1800
1800
1800
1800
1800
1800
1800
1FC0
0FC0
ENDCHAR
STARTCHAR 0075
ENCODING 117
SWIDTH 500 0
DWIDTH 16 0
BBX 12 15 2 2
BITMAP
C030
C030
C030
C030
C030
C030
C030
C030
C030
C030
C030
C070
E0F0
7FF0
3F30
ENDCHAR
STARTCHAR 0076
ENCODING 118
SWIDTH 500 0
DWIDTH 16 0
BBX 12 15 2 2
BITMAP
C070
E070
E070
6060
70E0
70E0
30C0
39C0
39C0
1980
1F80
0F80
0F00
0F00
0600
ENDCHAR
STARTCHAR 0077
ENCODING 119
SWIDTH 500 0
DWIDTH 16 0
BBX 14 15 1 2
BITMAP
C30C
C70C
C79C
E79C
6798
6798
6C98
6CD8
6CD8
6CD8
2CD0
3870
3870
3870
3870
ENDCHAR
STARTCHAR 0078
ENCODING 120
SWIDTH 500 0
DWIDTH 16 0
BBX 12 15 2 2
BITMAP
70E0
70E0
39C0
1980
1F80
0F00
0700
0F00
1F00
1F80
39C0
30C0
70E0
E070
E070
ENDCHAR
STARTCHAR 0079
ENCODING 121
SWIDTH 500 0
DWIDTH 16 0
BBX 13 20 2 -3
BITMAP
E038
6030
7070
3070
3060
38E0
18E0
1CC0
1DC0
0D80
0F80
0780
0700
0700
0700
0600
0600
1E00
7C00
7800
ENDCHAR
STARTCHAR 007A
ENCODING 122
SWIDTH 500 0
DWIDTH 16 0
BBX 12 15 2 2
BITMAP
7FE0
7FE0
00E0
01C0
0380
0700
0700
0E00
1C00
1C00
3800
7000
E000
FFF0
FFF0
ENDCHAR
STARTCHAR 007B
ENCODING 123
SWIDTH 500 0
DWIDTH 16 0
BBX 8 28 5 -2
BITMAP
07
0F
1C
18
18
18
18
18
18
18
18
38
70
F0
F0
30
18
18
18
18
18
18
18
18
18
1C
0F
07
ENDCHAR
STARTCHAR 007C
ENCODING 124
SWIDTH 500 0
DWIDTH 16 0
BBX 2 32 7 -4
BITMAP
C0
C0
C0
C0
C0
C0
C0
C0
C0
C0
C0
C0
C0
C0
C0
C0
C0
C0
C0
C0
C0
C0
C0
C0
C0
C0
C0
C0
C0
C0
C0
C0
ENDCHAR
STARTCHAR 007D
ENCODING 125
SWIDTH 500 0
DWIDTH 16 0
BBX 8 28 3 -2
BITMAP
E0
F0
38
18
18
18
18
18
18
18
18
1C
0E
0F
0F
1C
18
18
18
18
18
18
18
18
18
38
F0
E0
ENDCHAR
STARTCHAR 007E
ENCODING 126
SWIDTH 500 0
DWIDTH 16 0
BBX 10 3 3 21
BITMAP
7800
FFC0
0780
ENDCHAR
STARTCHAR 00A0
ENCODING 160
SWIDTH 500 0
DWIDTH 16 0
BBX 0 0 0 0
BITMAP
ENDCHAR
STARTCHAR 00A1
ENCODING 161
SWIDTH 500 0
DWIDTH 16 0
BBX 4 25 6 0
BITMAP
F0
F0
F0
F0
00
00
60
60
60
E0
F0
F0
F0
F0
F0
F0
F0
F0
F0
F0
F0
F0
F0
F0
F0
ENDCHAR
STARTCHAR 00A2
ENCODING 162
SWIDTH 1000 0
DWIDTH 32 0
BBX 16 24 8 1
BITMAP
0018
0038
0030
0030
07F0
1FF8
3C7C
70EE
60CE
C1C0
C180
C180
C380
C300
E307
670E
7E0E
3E3C
1FF8
0FE0
1C00
1800
1800
3800
ENDCHAR
STARTCHAR 00A3
ENCODING 163
SWIDTH 1000 0
DWIDTH 32 0
BBX 22 24 5 1
BITMAP
003E00
007F00
00C380
01C1C0
0181C0
0180C0
018000
018000
018000
01C000
1FFF80
1FFF80
006000
006000
003000
003000
3E3000
7FF000
E1F008
C0F01C
C0F81C
E1DC38
7F8FF0
1F03C0
ENDCHAR
STARTCHAR 00A4
ENCODING 164
SWIDTH 500 0
DWIDTH 16 0
BBX 12 11 2 7
BITMAP
4020
6060
3FC0
30C0
2040
2040
2040
2040
30C0
6F60
C030
ENDCHAR
STARTCHAR 00A5
ENCODING 165
SWIDTH 1000 0
DWIDTH 32 0
BBX 18 22 7 2
BITMAP
E001C0
700380
380380
1C0700
1E0E00
0E1C00
071C00
03B800
FFFFC0
FFFFC0
00E000
00E000
00E000
00E000
FFFFC0
FFFFC0
00E000
00E000
00E000
00E000
00E000
00E000
ENDCHAR
STARTCHAR 00A6
ENCODING 166
SWIDTH 500 0
DWIDTH 16 0
BBX 2 30 7 -3
BITMAP
C0
C0
C0
C0
C0
C0
C0
C0
C0
C0
C0
C0
C0
00
00
00
C0
C0
C0
C0
C0
C0
C0
C0
C0
C0
C0
C0
C0
C0
ENDCHAR
STARTCHAR 00A7
ENCODING 167
SWIDTH 1000 0
DWIDTH 32 0
BBX 14 28 9 -2
BITMAP
0FC0
1FE0
3070
6038
6038
6038
6000
3000
3C00
1F00
7FE0
60F0
C038
C01C
C00C
700C
3C1C
1F38
07F0
00F0
0030
0018
E018
6018
7018
7830
3FE0
0FC0
ENDCHAR
STARTCHAR 00A8
ENCODING 168
SWIDTH 1000 0
DWIDTH 32 0
BBX 12 3 10 21
BITMAP
E070
E070
E070
ENDCHAR
STARTCHAR 00A9
ENCODING 169
SWIDTH 500 0
DWIDTH 16 0
BBX 14 15 1 5
BITMAP
0780
1860
3010
6788
4C48
9864
9804
9804
9804
9864
4C48
4788
2010
1860
07C0
ENDCHAR
STARTCHAR 00AA
ENCODING 170
SWIDTH 500 0
DWIDTH 16 0
BBX 9 13 2 11
BITMAP
3C00
7F00
C700
0300
3F00
6300
C300
C700
FF80
7B80
0000
0000
FF80
ENDCHAR
STARTCHAR 00AB
ENCODING 171
SWIDTH 500 0
DWIDTH 16 0
BBX 11 13 3 3
BITMAP
0C60
0CC0
1980
3180
6300
6600
C600
6600
6300
3180
1980
0CC0
0C60
ENDCHAR
STARTCHAR 00AC
ENCODING 172
SWIDTH 1000 0
DWIDTH 32 0
BBX 27 14 2 5
BITMAP
FFFFFFE0
FFFFFFE0
00000060
00000060
00000060
00000060
00000060
00000060
00000060
00000060
00000060
00000060
00000060
00000060
ENDCHAR
STARTCHAR 00AD
ENCODING 173
SWIDTH 500 0
DWIDTH 16 0
BBX 12 2 2 11
BITMAP
FFF0
FFF0
ENDCHAR
STARTCHAR 00AE
ENCODING 174
SWIDTH 500 0
DWIDTH 16 0
BBX 15 15 0 5
BITMAP
07C0
1C30
3008
6FE4
4C34
8C32
8C32
8FE2
8CC2
8C62
4C34
4C3C
2018
1830
07C0
ENDCHAR
STARTCHAR 00AF
ENCODING 175
SWIDTH 500 0
DWIDTH 16 0
BBX 12 1 2 22
BITMAP
FFF0
ENDCHAR
STARTCHAR 00B0
ENCODING 176
SWIDTH 1000 0
DWIDTH 32 0
BBX 7 8 2 19
BITMAP
38
44
82
82
82
82
44
38
ENDCHAR
STARTCHAR 00B1
ENCODING 177
SWIDTH 1000 0
DWIDTH 32 0
BBX 22 23 5 1
BITMAP
003000
003000
003000
003000
003000
003000
003000
FFFFFC
FFFFFC
003000
003000
003000
003000
003000
003000
003000
003000
000000
000000
000000
000000
FFFFFC
FFFFFC
ENDCHAR
STARTCHAR 00B2
ENCODING 178
SWIDTH 500 0
DWIDTH 16 0
BBX 8 10 2 17
BITMAP
3E
7F
63
43
07
0E
38
70
60
FF
ENDCHAR
STARTCHAR 00B3
ENCODING 179
SWIDTH 500 0
DWIDTH 16 0
BBX 8 11 1 16
BITMAP
1E
63
63
03
06
1C
07
03
C3
67
3C
ENDCHAR
STARTCHAR 00B4
ENCODING 180
SWIDTH 1000 0
DWIDTH 32 0
BBX 7 4 13 20
BITMAP
1E
38
70
E0
ENDCHAR
STARTCHAR 00B6
ENCODING 182
SWIDTH 1000 0
DWIDTH 32 0
BBX 13 28 8 -2
BITMAP
0FF8
3FF8
7F18
FF18
FF18
FF18
FF18
FF18
7F18
3F18
1F18
0318
0318
0318
0318
0318
0318
0318
0318
0318
0318
0318
0318
0318
0318
0318
0318
0318
ENDCHAR
STARTCHAR 00B7
ENCODING 183
SWIDTH 500 0
DWIDTH 16 0
BBX 4 4 6 10
BITMAP
F0
F0
F0
F0
ENDCHAR
STARTCHAR 00B8
ENCODING 184
SWIDTH 500 0
DWIDTH 16 0
BBX 7 7 5 -2
BITMAP
60
60
FC
06
06
86
7C
ENDCHAR
STARTCHAR 00B9
ENCODING 185
SWIDTH 500 0
DWIDTH 16 0
BBX 4 11 3 16
BITMAP
30
F0
F0
30
30
30
30
30
30
30
30
ENDCHAR
STARTCHAR 00BA
ENCODING 186
SWIDTH 500 0
DWIDTH 16 0
BBX 9 13 2 11
BITMAP
3E00
7F00
6300
C180
C180
C180
C180
6300
7F00
3E00
0000
0000
FF80
ENDCHAR
STARTCHAR 00BB
ENCODING 187
SWIDTH 500 0
DWIDTH 16 0
BBX 11 13 2 3
BITMAP
C600
6600
3300
3180
1880
0CC0
0C60
0CC0
19C0
3180
3300
6600
C600
ENDCHAR
STARTCHAR 00BC
ENCODING 188
SWIDTH 500 0
DWIDTH 16 0
BBX 14 28 1 -2
BITMAP
1818
7818
7830
1830
1820
1860
1860
18C0
18C0
1880
1980
1900
1B00
1B00
0270
0670
04F0
0CF0
0CB0
09B0
1930
1330
3230
3630
27FC
6030
4030
C030
ENDCHAR
STARTCHAR 00BD
ENCODING 189
SWIDTH 500 0
DWIDTH 16 0
BBX 14 28 1 -2
BITMAP
1818
7810
7830
1830
1820
1860
1840
18C0
18C0
1880
1980
1900
1B00
1B00
0270
06F8
058C
0D8C
0D8C
080C
1818
1038
3070
20E0
20C0
61C0
4180
C1FC
ENDCHAR
STARTCHAR 00BE
ENCODING 190
SWIDTH 500 0
DWIDTH 16 0
BBX 14 29 1 -3
BITMAP
3800
7C04
C608
C608
0610
0C10
3820
0C20
0660
0640
0640
C680
CE80
FD80
7900
0338
0238
0678
0478
04D8
0DD8
0998
1B18
1318
3618
27FC
6018
6018
4018
ENDCHAR
STARTCHAR 00BF
ENCODING 191
SWIDTH 500 0
DWIDTH 16 0
BBX 13 25 1 0
BITMAP
0780
0780
0780
0780
0000
0000
0380
0300
0700
0700
0700
0700
0E00
1C00
3800
7000
6000
E018
C018
C018
C038
E038
70F0
3FE0
0F80
ENDCHAR
STARTCHAR 00C0
ENCODING 192
SWIDTH 500 0
DWIDTH 16 0
BBX 14 26 1 2
BITMAP
0E00
0700
0180
0000
0780
0780
0780
0FC0
0FC0
0CC0
0CC0
1CE0
1CE0
1860
1860
3870
3870
3FF0
3FF0
7038
7038
7038
6018
E01C
E01C
E01C
ENDCHAR
STARTCHAR 00C1
ENCODING 193
SWIDTH 500 0
DWIDTH 16 0
BBX 14 26 1 2
BITMAP
01C0
0380
0600
0000
0780
0780
0780
0FC0
0FC0
0CC0
0CC0
1CE0
1CE0
1860
1860
3870
3870
3FF0
3FF0
7038
7038
7038
6018
E01C
E01C
E01C
ENDCHAR
STARTCHAR 00C2
ENCODING 194
SWIDTH 500 0
DWIDTH 16 0
BBX 14 26 1 2
BITMAP
0780
0CC0
1860
0000
0780
0780
0780
0FC0
0FC0
0CC0
0CC0
1CE0
1CE0
1860
1860
3870
3870
3FF0
3FF0
7038
7038
7038
6018
E01C
E01C
E01C
ENDCHAR
STARTCHAR 00C3
ENCODING 195
SWIDTH 500 0
DWIDTH 16 0
BBX 16 26 0 2
BITMAP
0700
0FF0
00E0
0000
03C0
03C0
03C0
07E0
0660
0660
0E70
0E70
0E30
0C30
1C38
1C38
1C38
1FF8
3FFC
381C
300C
700C
700E
700E
6006
E007
ENDCHAR
STARTCHAR 00C4
ENCODING 196
SWIDTH 500 0
DWIDTH 16 0
BBX 16 26 0 2
BITMAP
1C38
1C38
0000
0000
03C0
03C0
07E0
07E0
0660
0660
0E70
0E70
0C30
0C30
1C38
1C38
1818
1FF8
3FFC
381C
300C
700E
700E
700E
6006
E007
ENDCHAR
STARTCHAR 00C5
ENCODING 197
SWIDTH 500 0
DWIDTH 16 0
BBX 14 26 1 2
BITMAP
0300
0480
0480
0480
0780
0780
0780
0780
0FC0
0CC0
0CC0
1CC0
1CE0
1860
1860
3870
3870
3FF0
3FF0
7038
7038
7038
6018
E01C
E01C
E01C
ENDCHAR
STARTCHAR 00C6
ENCODING 198
SWIDTH 500 0
DWIDTH 16 0
BBX 14 22 1 2
BITMAP
07FC
07FC
0780
0F80
0D80
0D80
0D80
1D80
1980
19F8
19F8
3980
3980
3F80
3F80
7180
7180
6180
6180
E180
E1FC
C1FC
ENDCHAR
STARTCHAR 00C7
ENCODING 199
SWIDTH 500 0
DWIDTH 16 0
BBX 13 28 2 -4
BITMAP
0F80
1FE0
38F0
7070
6030
6038
C000
C000
C000
C000
C000
C000
C000
C000
C000
C038
C038
6038
6070
7070
3DE0
1FC0
0700
0400
0F80
00C0
08C0
0F80
ENDCHAR
STARTCHAR 00C8
ENCODING 200
SWIDTH 500 0
DWIDTH 16 0
BBX 12 26 2 2
BITMAP
1800
0C00
0600
0000
FFE0
FFE0
C000
C000
C000
C000
C000
C000
C000
C000
FFC0
FFC0
C000
C000
C000
C000
C000
C000
C000
C000
FFF0
FFF0
ENDCHAR
STARTCHAR 00C9
ENCODING 201
SWIDTH 500 0
DWIDTH 16 0
BBX 12 26 2 2
BITMAP
0700
0E00
0C00
0000
FFE0
FFE0
C000
C000
C000
C000
C000
C000
C000
C000
FFC0
FFC0
C000
C000
C000
C000
C000
C000
C000
C000
FFF0
FFF0
ENDCHAR
STARTCHAR 00CA
ENCODING 202
SWIDTH 500 0
DWIDTH 16 0
BBX 12 26 2 2
BITMAP
0E00
1B00
2180
0000
FFE0
FFE0
C000
C000
C000
C000
C000
C000
C000
C000
FFC0
FFC0
C000
C000
C000
C000
C000
C000
C000
C000
FFF0
FFF0
ENDCHAR
STARTCHAR 00CB
ENCODING 203
SWIDTH 500 0
DWIDTH 16 0
BBX 12 26 2 2
BITMAP
70E0
70E0
0000
0000
FFE0
FFE0
C000
C000
C000
C000
C000
C000
C000
C000
FFC0
FFC0
C000
C000
C000
C000
C000
C000
C000
C000
FFF0
FFF0
ENDCHAR
STARTCHAR 00CC
ENCODING 204
SWIDTH 500 0
DWIDTH 16 0
BBX 3 26 6 2
BITMAP
C0
60
20
00
60
60
60
60
60
60
60
60
60
60
60
60
60
60
60
60
60
60
60
60
60
60
ENDCHAR
STARTCHAR 00CD
ENCODING 205
SWIDTH 500 0
DWIDTH 16 0
BBX 3 26 7 2
BITMAP
60
C0
80
00
C0
C0
C0
C0
C0
C0
C0
C0
C0
C0
C0
C0
C0
C0
C0
C0
C0
C0
C0
C0
C0
C0
ENDCHAR
STARTCHAR 00CE
ENCODING 206
SWIDTH 500 0
DWIDTH 16 0
BBX 6 26 5 2
BITMAP
30
78
84
00
30
30
30
30
30
30
30
30
30
30
30
30
30
30
30
30
30
30
30
30
30
30
ENDCHAR
STARTCHAR 00CF
ENCODING 207
SWIDTH 500 0
DWIDTH 16 0
BBX 10 26 3 2
BITMAP
E1C0
E1C0
0000
0000
0C00
0C00
0C00
0C00
0C00
0C00
0C00
0C00
0C00
0C00
0C00
0C00
0C00
0C00
0C00
0C00
0C00
0C00
0C00
0C00
0C00
0C00
ENDCHAR
STARTCHAR 00D0
ENCODING 208
SWIDTH 500 0
DWIDTH 16 0
BBX 14 22 1 2
BITMAP
3F80
3FC0
30F0
3030
3018
3018
301C
300C
300C
300C
FF0C
300C
300C
300C
300C
3018
3018
3038
3030
30F0
3FE0
3F80
ENDCHAR
STARTCHAR 00D1
ENCODING 209
SWIDTH 500 0
DWIDTH 16 0
BBX 12 26 2 2
BITMAP
1C00
3FC0
0380
0000
E030
E030
F030
F030
F830
D830
D830
DC30
CC30
CE30
C630
C630
C330
C330
C3B0
C1B0
C1B0
C0F0
C0F0
C0F0
C070
C070
ENDCHAR
STARTCHAR 00D2
ENCODING 210
SWIDTH 500 0
DWIDTH 16 0
BBX 14 26 1 2
BITMAP
0E00
0700
0180
0000
0780
1FE0
3870
7030
6018
6018
C00C
C00C
C00C
C00C
C00C
C00C
C00C
C00C
C00C
C00C
6018
6018
7038
3870
1FE0
0F80
ENDCHAR
STARTCHAR 00D3
ENCODING 211
SWIDTH 500 0
DWIDTH 16 0
BBX 14 26 1 2
BITMAP
01C0
0380
0600
0000
0780
1FE0
3870
7030
6018
6018
C00C
C00C
C00C
C00C
C00C
C00C
C00C
C00C
C00C
C00C
6018
6018
7038
3870
1FE0
0F80
ENDCHAR
STARTCHAR 00D4
ENCODING 212
SWIDTH 500 0
DWIDTH 16 0
BBX 14 26 1 2
BITMAP
0780
0CC0
1860
0000
0780
1FE0
3870
3030
6018
6018
C00C
C00C
C00C
C00C
C00C
C00C
C00C
C00C
C00C
C00C
6018
6018
3030
3870
1FE0
0780
ENDCHAR
STARTCHAR 00D5
ENCODING 213
SWIDTH 500 0
DWIDTH 16 0
BBX 14 26 1 2
BITMAP
0E00
1FE0
01C0
0000
0780
1FE0
3870
7030
6018
6018
C00C
C00C
C00C
C00C
C00C
C00C
C00C
C00C
C00C
C00C
6018
6018
7038
3870
1FE0
0F80
ENDCHAR
STARTCHAR 00D6
ENCODING 214
SWIDTH 500 0
DWIDTH 16 0
BBX 14 26 1 2
BITMAP
3870
3870
0000
0000
0780
1FE0
3870
7030
6018
6018
C00C
C00C
C00C
C00C
C00C
C00C
C00C
C00C
C00C
C00C
6018
6018
7038
3870
1FE0
0F80
ENDCHAR
STARTCHAR 00D7
ENCODING 215
SWIDTH 1000 0
DWIDTH 32 0
BBX 20 20 6 3
BITMAP
400020
E00070
7000E0
3801C0
1C0380
0E0700
070E00
039C00
01F800
00F000
00F000
01F800
039C00
070E00
0E0700
1C0380
3801C0
7000E0
E00070
400020
ENDCHAR
STARTCHAR 00D8
ENCODING 216
SWIDTH 500 0
DWIDTH 16 0
BBX 14 26 1 0
BITMAP
0008
0008
07D8
1FF0
3870
3030
6078
6058
C0DC
C08C
C18C
C10C
C30C
C20C
C20C
C60C
C40C
EC0C
6818
7818
7030
3870
3FE0
6FC0
4000
4000
ENDCHAR
STARTCHAR 00D9
ENCODING 217
SWIDTH 500 0
DWIDTH 16 0
BBX 12 26 2 2
BITMAP
1C00
0E00
0300
0000
C030
C030
C030
C030
C030
C030
C030
C030
C030
C030
C030
C030
C030
C030
C030
C030
C030
C030
E060
70E0
3FC0
1F80
ENDCHAR
STARTCHAR 00DA
ENCODING 218
SWIDTH 500 0
DWIDTH 16 0
BBX 12 26 2 2
BITMAP
0380
0700
0C00
0000
C030
C030
C030
C030
C030
C030
C030
C030
C030
C030
C030
C030
C030
C030
C030
C030
C030
C030
E060
70E0
3FC0
1F80
ENDCHAR
STARTCHAR 00DB
ENCODING 219
SWIDTH 500 0
DWIDTH 16 0
BBX 12 26 2 2
BITMAP
0F00
1980
30C0
0000
C030
C030
C030
C030
C030
C030
C030
C030
C030
C030
C030
C030
C030
C030
C030
C030
C030
C030
E060
70E0
3FC0
1F80
ENDCHAR
STARTCHAR 00DC
ENCODING 220
SWIDTH 500 0
DWIDTH 16 0
BBX 12 26 2 2
BITMAP
70E0
70E0
0000
0000
C030
C030
C030
C030
C030
C030
C030
C030
C030
C030
C030
C030
C030
C030
C030
C030
C030
C030
E060
70E0
3FC0
1F80
ENDCHAR
STARTCHAR 00DD
ENCODING 221
SWIDTH 500 0
DWIDTH 16 0
BBX 14 26 1 2
BITMAP
0180
0300
0200
0000
E01C
7038
7038
3030
3870
1860
1CE0
1CE0
0CC0
0FC0
0780
0780
0300
0300
0300
0300
0300
0300
0300
0300
0300
0300
ENDCHAR
STARTCHAR 00DE
ENCODING 222
SWIDTH 500 0
DWIDTH 16 0
BBX 12 22 2 2
BITMAP
C000
C000
C000
C000
FF00
FFC0
C1E0
C060
C030
C030
C030
C030
C030
C060
C0E0
FFC0
FF00
C000
C000
C000
C000
C000
ENDCHAR
STARTCHAR 00DF
ENCODING 223
SWIDTH 500 0
DWIDTH 16 0
BBX 11 22 3 1
BITMAP
1E00
3F80
6180
E0C0
C0C0
C0C0
C0C0
C1C0
C380
DE00
DF00
C380
C0C0
C060
C060
C060
C060
C060
C0E0
C1C0
DF80
DF00
ENDCHAR
STARTCHAR 00E0
ENCODING 224
SWIDTH 500 0
DWIDTH 16 0
BBX 13 20 2 1
BITMAP
1C00
0600
0300
0000
0000
1F00
3FC0
70C0
6060
E060
0060
03E0
1FE0
7860
E060
C060
C0E0
E1E0
7FF8
3E38
ENDCHAR
STARTCHAR 00E1
ENCODING 225
SWIDTH 500 0
DWIDTH 16 0
BBX 13 20 2 1
BITMAP
0380
0700
0C00
0000
0000
1F00
3FC0
70C0
6060
E060
0060
03E0
1FE0
7860
E060
C060
C0E0
E1E0
7FF8
3E38
ENDCHAR
STARTCHAR 00E2
ENCODING 226
SWIDTH 500 0
DWIDTH 16 0
BBX 13 20 2 1
BITMAP
0F00
1D80
30C0
0000
0000
1F00
3FC0
70C0
6060
E060
0060
03E0
1FE0
7860
E060
C060
C0E0
E1E0
7FF8
3E38
ENDCHAR
STARTCHAR 00E3
ENCODING 227
SWIDTH 500 0
DWIDTH 16 0
BBX 14 20 1 1
BITMAP
1FE0
1FE0
0000
0000
0000
0F80
3FE0
3860
7030
6030
0030
03F0
1FF0
7830
E030
C030
C070
E1F0
7FFC
3F1C
ENDCHAR
STARTCHAR 00E4
ENCODING 228
SWIDTH 500 0
DWIDTH 16 0
BBX 14 20 1 1
BITMAP
3870
3870
0000
0000
0000
0F80
3FE0
3860
7030
6030
0030
03F0
1FF0
7830
E030
C030
C070
E1F0
7FFC
3F1C
ENDCHAR
STARTCHAR 00E5
ENCODING 229
SWIDTH 500 0
DWIDTH 16 0
BBX 13 22 2 1
BITMAP
0600
0900
0900
0900
0600
0000
0000
1F00
3FC0
70C0
6060
E060
0060
03E0
1FE0
7860
E060
C060
C0E0
E1E0
7FF8
3E38
ENDCHAR
STARTCHAR 00E6
ENCODING 230
SWIDTH 500 0
DWIDTH 16 0
BBX 14 15 1 2
BITMAP
1C70
3EF8
7398
639C
630C
030C
0FFC
3B00
6300
C300
C30C
C38C
C39C
FFF8
7CF0
ENDCHAR
STARTCHAR 00E7
ENCODING 231
SWIDTH 500 0
DWIDTH 16 0
BBX 12 21 2 -4
BITMAP
0F80
3FC0
70E0
6070
E070
C000
C000
C000
C000
C000
C030
6070
70F0
3FE0
1FC0
0600
0400
0F80
00C0
08C0
0F80
ENDCHAR
STARTCHAR 00E8
ENCODING 232
SWIDTH 500 0
DWIDTH 16 0
BBX 12 20 2 2
BITMAP
1C00
0600
0300
0000
0000
0F80
3FC0
70E0
6060
E070
E070
FFF0
FFF0
C000
C000
E000
6070
70E0
3FE0
0F80
ENDCHAR
STARTCHAR 00E9
ENCODING 233
SWIDTH 500 0
DWIDTH 16 0
BBX 12 20 2 2
BITMAP
0380
0700
0C00
0000
0000
0F80
3FC0
70E0
6060
E070
E070
FFF0
FFF0
C000
C000
E000
6070
70E0
3FE0
0F80
ENDCHAR
STARTCHAR 00EA
ENCODING 234
SWIDTH 500 0
DWIDTH 16 0
BBX 12 20 2 2
BITMAP
0F00
1980
30C0
0000
0000
0F80
3FC0
70E0
6060
E070
E070
FFF0
FFF0
C000
C000
E000
6070
70E0
3FE0
0F80
ENDCHAR
STARTCHAR 00EB
ENCODING 235
SWIDTH 500 0
DWIDTH 16 0
BBX 14 20 1 2
BITMAP
3870
3870
0000
0000
0000
0FC0
3FE0
7870
7038
E018
E018
FFF8
FFFC
E000
E000
E000
7018
7838
3FF0
0FC0
ENDCHAR
STARTCHAR 00EC
ENCODING 236
SWIDTH 500 0
DWIDTH 16 0
BBX 4 20 5 2
BITMAP
C0
60
30
00
00
30
30
30
30
30
30
30
30
30
30
30
30
30
30
30
ENDCHAR
STARTCHAR 00ED
ENCODING 237
SWIDTH 500 0
DWIDTH 16 0
BBX 4 20 7 2
BITMAP
30
60
C0
00
00
C0
C0
C0
C0
C0
C0
C0
C0
C0
C0
C0
C0
C0
C0
C0
ENDCHAR
STARTCHAR 00EE
ENCODING 238
SWIDTH 500 0
DWIDTH 16 0
BBX 8 20 4 2
BITMAP
3C
66
C3
00
00
18
18
18
18
18
18
18
18
18
18
18
18
18
18
18
ENDCHAR
STARTCHAR 00EF
ENCODING 239
SWIDTH 500 0
DWIDTH 16 0
BBX 10 20 3 2
BITMAP
E1C0
E1C0
0000
0000
0000
0C00
0C00
0C00
0C00
0C00
0C00
0C00
0C00
0C00
0C00
0C00
0C00
0C00
0C00
0C00
ENDCHAR
STARTCHAR 00F0
ENCODING 240
SWIDTH 500 0
DWIDTH 16 0
BBX 12 24 2 2
BITMAP
18C0
1F80
0700
0F80
1980
11C0
00C0
0060
0F60
3FE0
30F0
6070
6070
C030
C030
C030
C030
C030
C070
6060
60E0
31E0
3FC0
0F00
ENDCHAR
STARTCHAR 00F1
ENCODING 241
SWIDTH 500 0
DWIDTH 16 0
BBX 12 20 2 2
BITMAP
3DC0
3FC0
0000
0000
0000
CFC0
DFE0
F870
E030
C030
C030
C030
C030
C030
C030
C030
C030
C030
C030
C030
ENDCHAR
STARTCHAR 00F2
ENCODING 242
SWIDTH 500 0
DWIDTH 16 0
BBX 12 20 2 2
BITMAP
1C00
0600
0300
0000
0000
0F00
3FC0
70E0
6060
C070
C030
C030
C030
C030
C030
C070
6060
70E0
3FC0
0F00
ENDCHAR
STARTCHAR 00F3
ENCODING 243
SWIDTH 500 0
DWIDTH 16 0
BBX 12 20 2 2
BITMAP
0380
0700
0C00
0000
0000
0F00
3FC0
70E0
6060
C070
C030
C030
C030
C030
C030
C070
6060
70E0
3FC0
0F00
ENDCHAR
STARTCHAR 00F4
ENCODING 244
SWIDTH 500 0
DWIDTH 16 0
BBX 12 20 2 2
BITMAP
0F00
1980
30C0
0000
0000
0F00
3FC0
70E0
6060
C070
C030
C030
C030
C030
C030
C070
6060
70E0
3FC0
0F00
ENDCHAR
STARTCHAR 00F5
ENCODING 245
SWIDTH 500 0
DWIDTH 16 0
BBX 12 20 2 2
BITMAP
3FC0
3FC0
0000
0000
0000
0F00
3FC0
70E0
6060
E030
C030
C030
C030
C030
C030
C070
6060
70E0
3FC0
0F00
ENDCHAR
STARTCHAR 00F6
ENCODING 246
SWIDTH 500 0
DWIDTH 16 0
BBX 14 20 1 2
BITMAP
3870
3870
0000
0000
0000
0FC0
3FE0
7070
6038
E01C
C00C
C00C
C00C
C00C
C00C
E01C
6018
7870
3FF0
0FC0
ENDCHAR
STARTCHAR 00F7
ENCODING 247
SWIDTH 1000 0
DWIDTH 32 0
BBX 22 18 5 3
BITMAP
007800
007800
007800
007000
000000
000000
000000
000000
FFFFFC
FFFFFC
000000
000000
000000
000000
007800
007800
007800
007000
ENDCHAR
STARTCHAR 00F8
ENCODING 248
SWIDTH 500 0
DWIDTH 16 0
BBX 12 19 2 0
BITMAP
0010
0020
0FE0
3FC0
70E0
60E0
E170
C330
C230
C630
C430
C830
F870
7060
70E0
3FC0
5F00
4000
8000
ENDCHAR
STARTCHAR 00F9
ENCODING 249
SWIDTH 500 0
DWIDTH 16 0
BBX 12 20 2 2
BITMAP
1C00
0E00
0300
0000
0000
C030
C030
C030
C030
C030
C030
C030
C030
C030
C030
C030
C070
E0F0
7FF0
3F30
ENDCHAR
STARTCHAR 00FA
ENCODING 250
SWIDTH 500 0
DWIDTH 16 0
BBX 12 20 2 2
BITMAP
0380
0700
0C00
0000
0000
C030
C030
C030
C030
C030
C030
C030
C030
C030
C030
C030
C070
E0F0
7FF0
3F30
ENDCHAR
STARTCHAR 00FB
ENCODING 251
SWIDTH 500 0
DWIDTH 16 0
BBX 12 20 2 2
BITMAP
0F00
1980
30C0
0000
0000
C030
C030
C030
C030
C030
C030
C030
C030
C030
C030
C030
C070
E0F0
7FF0
3F30
ENDCHAR
STARTCHAR 00FC
ENCODING 252
SWIDTH 500 0
DWIDTH 16 0
BBX 12 20 2 2
BITMAP
70E0
70E0
0000
0000
0000
C030
C030
C030
C030
C030
C030
C030
C030
C030
C030
C030
C070
E0F0
7FF0
3F30
ENDCHAR
STARTCHAR 00FD
ENCODING 253
SWIDTH 500 0
DWIDTH 16 0
BBX 13 25 2 -3
BITMAP
01C0
0300
0600
0000
0000
E038
6030
7070
7070
3060
38E0
18E0
18C0
1DC0
0DC0
0D80
0F80
0700
0700
0700
0600
0600
0E00
7C00
7800
ENDCHAR
STARTCHAR 00FE
ENCODING 254
SWIDTH 500 0
DWIDTH 16 0
BBX 12 27 2 -3
BITMAP
C000
C000
C000
C000
C000
C000
C000
CF80
FFC0
F0E0
E060
E030
C030
C030
C030
C030
C030
E070
E0E0
F1E0
FFC0
CF80
C000
C000
C000
C000
C000
ENDCHAR
STARTCHAR 00FF
ENCODING 255
SWIDTH 500 0
DWIDTH 16 0
BBX 13 25 2 -3
BITMAP
38E0
38E0
0000
0000
0000
E038
6070
7070
7060
3060
38E0
18C0
18C0
1DC0
0D80
0D80
0780
0700
0700
0700
0600
0600
0E00
7C00
7800
ENDCHAR
STARTCHAR 0100
ENCODING 256
SWIDTH 500 0
DWIDTH 16 0
BBX 14 25 1 2
BITMAP
1FE0
0000
0000
0780
0780
0780
0780
0FC0
0CC0
0CC0
0CC0
1CE0
1C60
1860
3870
3870
3FF0
3FF0
7038
7038
7038
6018
E01C
E01C
E01C
ENDCHAR
STARTCHAR 0101
ENCODING 257
SWIDTH 500 0
DWIDTH 16 0
BBX 13 19 2 1
BITMAP
3FC0
0000
0000
0000
1F00
3FC0
70C0
6060
E060
0060
03E0
1FE0
7860
E060
C060
C0E0
E1E0
7FF8
3E38
ENDCHAR
STARTCHAR 0102
ENCODING 258
SWIDTH 500 0
DWIDTH 16 0
BBX 14 26 1 2
BITMAP
1860
1CE0
0780
0000
0780
0780
0780
0FC0
0FC0
0CC0
0CC0
1CE0
1CE0
1860
1860
3870
3870
3FF0
3FF0
7038
7038
7038
6018
E01C
E01C
E01C
ENDCHAR
STARTCHAR 0103
ENCODING 259
SWIDTH 500 0
DWIDTH 16 0
BBX 13 20 2 1
BITMAP
3040
3080
0F00
0000
0000
1F00
3FC0
70C0
6060
E060
0060
03E0
1FE0
7860
E060
C060
C0E0
E1E0
7FF8
3E38
ENDCHAR
STARTCHAR 0104
ENCODING 260
SWIDTH 500 0
DWIDTH 16 0
BBX 15 28 1 -4
BITMAP
0380
0780
07C0
06C0
06C0
0EC0
0EE0
0C60
0C60
1C60
1C70
1870
1830
3FF8
3FF8
3038
3018
701C
701C
701C
E00C
E00E
0018
0018
0030
0030
0032
001C
ENDCHAR
STARTCHAR 0105
ENCODING 261
SWIDTH 500 0
DWIDTH 16 0
BBX 13 21 2 -4
BITMAP
1F00
3FC0
70C0
6060
E060
0060
03E0
1FE0
7860
E060
C060
C0E0
E1E0
7FF8
3E78
0060
0040
00C0
00C0
00C8
0070
ENDCHAR
STARTCHAR 0106
ENCODING 262
SWIDTH 500 0
DWIDTH 16 0
BBX 13 26 1 2
BITMAP
01C0
0380
0600
0000
0F80
1FE0
38F0
7070
6038
6038
C018
C000
C000
C000
C000
C000
C000
C000
C000
C018
6018
6038
7038
3870
1FE0
0FC0
ENDCHAR
STARTCHAR 0107
ENCODING 263
SWIDTH 500 0
DWIDTH 16 0
BBX 12 20 2 2
BITMAP
0380
0700
0C00
0000
0000
0F80
3FC0
70E0
6060
C070
C000
C000
C000
C000
C000
C070
6070
70E0
3FC0
0F80
ENDCHAR
STARTCHAR 0108
ENCODING 264
SWIDTH 500 0
DWIDTH 16 0
BBX 13 26 1 2
BITMAP
0780
0CC0
1860
0000
0FC0
1FE0
3870
7038
6038
6018
C000
C000
C000
C000
C000
C000
C000
C000
C000
C018
6018
6038
7038
3870
1FE0
0FC0
ENDCHAR
STARTCHAR 0109
ENCODING 265
SWIDTH 500 0
DWIDTH 16 0
BBX 12 20 2 2
BITMAP
0F00
1980
30C0
0000
0000
0F80
3FC0
70E0
6060
C070
C000
C000
C000
C000
C000
C070
6070
70E0
3FC0
0F80
ENDCHAR
STARTCHAR 010C
ENCODING 268
SWIDTH 500 0
DWIDTH 16 0
BBX 13 26 1 2
BITMAP
1860
0CC0
0780
0000
0F80
1FE0
38F0
7070
6038
6038
C018
C000
C000
C000
C000
C000
C000
C000
C000
C018
6018
6038
7038
3870
1FE0
0FC0
ENDCHAR
STARTCHAR 010D
ENCODING 269
SWIDTH 500 0
DWIDTH 16 0
BBX 12 20 2 2
BITMAP
30C0
1980
0F00
0000
0000
0F80
3FC0
70E0
6060
C070
C000
C000
C000
C000
C000
C070
6070
70E0
3FC0
0F80
ENDCHAR
STARTCHAR 010E
ENCODING 270
SWIDTH 500 0
DWIDTH 16 0
BBX 12 26 2 2
BITMAP
6100
3600
1C00
0000
FE00
FF00
C380
C0C0
C060
C060
C060
C030
C030
C030
C030
C030
C030
C030
C030
C060
C060
C060
C0C0
C380
FF00
FE00
ENDCHAR
STARTCHAR 010F
ENCODING 271
SWIDTH 500 0
DWIDTH 16 0
BBX 14 24 1 2
BITMAP
001C
001C
00DC
00DC
00CC
00C8
00D8
00C0
00C0
1EC0
3FC0
73C0
61C0
C0C0
C0C0
C0C0
C0C0
C0C0
C0C0
C0C0
61C0
63C0
3FC0
1EC0
ENDCHAR
STARTCHAR 0111
ENCODING 273
SWIDTH 500 0
DWIDTH 16 0
BBX 14 22 1 2
BITMAP
0030
0030
0030
03FC
0030
0030
0030
1F30
3FF0
70F0
6070
C070
C030
C030
C030
C030
C030
E070
6070
70F0
3FF0
1F30
ENDCHAR
STARTCHAR 0112
ENCODING 274
SWIDTH 500 0
DWIDTH 16 0
BBX 12 25 2 2
BITMAP
3FC0
0000
0000
FFE0
FFE0
C000
C000
C000
C000
C000
C000
C000
C000
FFC0
FFC0
C000
C000
C000
C000
C000
C000
C000
C000
FFF0
FFF0
ENDCHAR
STARTCHAR 0113
ENCODING 275
SWIDTH 500 0
DWIDTH 16 0
BBX 12 19 2 2
BITMAP
3FC0
0000
0000
0000
0F00
3FC0
70E0
6060
E070
E070
FFF0
FFF0
C000
E000
E000
6070
70E0
3FC0
0F80
ENDCHAR
STARTCHAR 0118
ENCODING 280
SWIDTH 500 0
DWIDTH 16 0
BBX 12 28 2 -4
BITMAP
FFE0
FFE0
C000
C000
C000
C000
C000
C000
C000
C000
FFC0
FFC0
C000
C000
C000
C000
C000
C000
C000
C000
FFF0
FFF0
0600
0C00
1800
1800
1880
0F00
ENDCHAR
STARTCHAR 0119
ENCODING 281
SWIDTH 500 0
DWIDTH 16 0
BBX 13 21 1 -4
BITMAP
0F80
3FC0
78E0
7070
6030
E030
FFF8
FFF8
E000
E000
E000
E030
7070
78F0
3FE0
1FC0
0600
0C00
0C00
0C80
0700
ENDCHAR
STARTCHAR 011A
ENCODING 282
SWIDTH 500 0
DWIDTH 16 0
BBX 12 26 2 2
BITMAP
2180
1B00
0E00
0000
FFE0
FFE0
C000
C000
C000
C000
C000
C000
C000
C000
FFC0
FFC0
C000
C000
C000
C000
C000
C000
C000
C000
FFF0
FFF0
ENDCHAR
STARTCHAR 011B
ENCODING 283
SWIDTH 500 0
DWIDTH 16 0
BBX 12 20 2 2
BITMAP
30C0
1980
0F00
0000
0000
0F80
3FC0
70E0
6060
E070
E070
FFF0
FFF0
C000
C000
E000
6070
70E0
3FE0
0F80
ENDCHAR
STARTCHAR 011C
ENCODING 284
SWIDTH 500 0
DWIDTH 16 0
BBX 13 26 2 2
BITMAP
0F00
1D80
30C0
0000
0F80
1FE0
38F0
7070
6030
6038
C000
C000
C000
C000
C000
C000
C1F8
C1F8
C018
C038
6038
6038
6078
30F8
1FD8
0F98
ENDCHAR
STARTCHAR 011D
ENCODING 285
SWIDTH 500 0
DWIDTH 16 0
BBX 12 25 2 -3
BITMAP
0700
1D80
30C0
0000
0000
0FB0
3FF0
70F0
6070
C030
C030
C030
C030
C030
6070
70F0
3FF0
1F30
0030
0030
6030
7070
78E0
3FC0
0F80
ENDCHAR
STARTCHAR 0124
ENCODING 292
SWIDTH 500 0
DWIDTH 16 0
BBX 12 26 2 2
BITMAP
0F00
1980
30C0
0000
C030
C030
C030
C030
C030
C030
C030
C030
C030
FFF0
FFF0
C030
C030
C030
C030
C030
C030
C030
C030
C030
C030
C030
ENDCHAR
STARTCHAR 0125
ENCODING 293
SWIDTH 500 0
DWIDTH 16 0
BBX 12 26 2 2
BITMAP
0F00
1980
30C0
0000
C000
C000
C000
C000
C000
C000
C000
CFC0
FFE0
F870
E030
C030
C030
C030
C030
C030
C030
C030
C030
C030
C030
C030
ENDCHAR
STARTCHAR 0127
ENCODING 295
SWIDTH 500 0
DWIDTH 16 0
BBX 13 22 1 2
BITMAP
3000
3000
3000
FF00
3000
3000
3000
33E0
3FF0
3C38
3818
3018
3018
3018
3018
3018
3018
3018
3018
3018
3018
3018
ENDCHAR
STARTCHAR 012A
ENCODING 298
SWIDTH 500 0
DWIDTH 16 0
BBX 8 25 4 2
BITMAP
FF
00
00
18
18
18
18
18
18
18
18
18
18
18
18
18
18
18
18
18
18
18
18
18
18
ENDCHAR
STARTCHAR 012B
ENCODING 299
SWIDTH 500 0
DWIDTH 16 0
BBX 8 19 4 2
BITMAP
FF
00
00
00
18
18
18
18
18
18
18
18
18
18
18
18
18
18
18
ENDCHAR
STARTCHAR 0134
ENCODING 308
SWIDTH 500 0
DWIDTH 16 0
BBX 13 26 2 2
BITMAP
00E0
01B0
0308
0000
0060
0060
0060
0060
0060
0060
0060
0060
0060
0060
0060
0060
0060
0060
0060
0060
E060
E060
6060
70C0
3FC0
1F00
ENDCHAR
STARTCHAR 0135
ENCODING 309
SWIDTH 500 0
DWIDTH 16 0
BBX 9 25 3 -3
BITMAP
0E00
1B00
3080
0000
0000
0600
0600
0600
0600
0600
0600
0600
0600
0600
0600
0600
0600
0600
0600
0600
0600
0600
8600
FE00
FC00
ENDCHAR
STARTCHAR 0139
ENCODING 313
SWIDTH 500 0
DWIDTH 16 0
BBX 12 26 2 2
BITMAP
0700
0E00
1C00
0000
C000
C000
C000
C000
C000
C000
C000
C000
C000
C000
C000
C000
C000
C000
C000
C000
C000
C000
C000
C000
FFF0
FFF0
ENDCHAR
STARTCHAR 013A
ENCODING 314
SWIDTH 500 0
DWIDTH 16 0
BBX 5 26 6 2
BITMAP
38
60
C0
00
60
60
60
60
60
60
60
60
60
60
60
60
60
60
60
60
60
60
60
60
60
60
ENDCHAR
STARTCHAR 013D
ENCODING 317
SWIDTH 500 0
DWIDTH 16 0
BBX 12 24 2 2
BITMAP
0380
0380
C380
C380
C180
C100
C300
C000
C000
C000
C000
C000
C000
C000
C000
C000
C000
C000
C000
C000
C000
C000
FFF0
FFF0
ENDCHAR
STARTCHAR 013E
ENCODING 318
SWIDTH 500 0
DWIDTH 16 0
BBX 7 24 7 2
BITMAP
0E
0E
CE
CE
C6
C4
CC
C0
C0
C0
C0
C0
C0
C0
C0
C0
C0
C0
C0
C0
C0
C0
C0
C0
ENDCHAR
STARTCHAR 0141
ENCODING 321
SWIDTH 500 0
DWIDTH 16 0
BBX 14 22 1 2
BITMAP
3000
3000
3000
3000
3000
3000
3100
3700
3E00
3800
3000
3000
7000
F000
3000
3000
3000
3000
3000
3000
3FFC
3FFC
ENDCHAR
STARTCHAR 0142
ENCODING 322
SWIDTH 500 0
DWIDTH 16 0
BBX 8 22 4 2
BITMAP
18
18
18
18
18
18
18
1B
1E
1C
18
38
78
D8
98
18
18
18
18
18
18
18
ENDCHAR
STARTCHAR 0143
ENCODING 323
SWIDTH 500 0
DWIDTH 16 0
BBX 12 26 2 2
BITMAP
0380
0700
0C00
0000
E030
E030
F030
F030
F830
D830
D830
DC30
CC30
CE30
C630
C630
C730
C330
C3B0
C1B0
C1B0
C0F0
C0F0
C0F0
C070
C070
ENDCHAR
STARTCHAR 0144
ENCODING 324
SWIDTH 500 0
DWIDTH 16 0
BBX 12 20 2 2
BITMAP
0380
0700
0C00
0000
0000
CFC0
FFE0
F870
E030
C030
C030
C030
C030
C030
C030
C030
C030
C030
C030
C030
ENDCHAR
STARTCHAR 0147
ENCODING 327
SWIDTH 500 0
DWIDTH 16 0
BBX 12 26 2 2
BITMAP
30C0
1980
0F00
0000
E030
E030
F030
F030
F830
D830
D830
DC30
CC30
CE30
C630
C630
C730
C330
C3B0
C1B0
C1B0
C0F0
C0F0
C0F0
C070
C070
ENDCHAR
STARTCHAR 0148
ENCODING 328
SWIDTH 500 0
DWIDTH 16 0
BBX 12 20 2 2
BITMAP
30C0
1980
0F00
0000
0000
CFC0
FFE0
F870
E030
C030
C030
C030
C030
C030
C030
C030
C030
C030
C030
C030
ENDCHAR
STARTCHAR 014B
ENCODING 331
SWIDTH 500 0
DWIDTH 16 0
BBX 12 20 2 -3
BITMAP
CFC0
FFE0
F870
E030
C030
C030
C030
C030
C030
C030
C030
C030
C030
C030
C030
0030
0030
0230
03F0
01E0
ENDCHAR
STARTCHAR 014C
ENCODING 332
SWIDTH 500 0
DWIDTH 16 0
BBX 12 25 2 2
BITMAP
3FC0
0000
0000
0F00
1F80
30C0
6060
6060
6060
C030
C030
C030
C030
C030
C030
C030
C030
C030
C030
6060
6060
6060
30C0
1F80
0F00
ENDCHAR
STARTCHAR 014D
ENCODING 333
SWIDTH 500 0
DWIDTH 16 0
BBX 12 19 2 2
BITMAP
3FC0
0000
0000
0000
0F00
3FC0
70E0
6060
C070
C030
C030
C030
C030
C030
C070
6060
70E0
3FC0
0F00
ENDCHAR
STARTCHAR 0150
ENCODING 336
SWIDTH 500 0
DWIDTH 16 0
BBX 14 26 1 2
BITMAP
0770
06E0
0CC0
0000
0780
1FE0
3870
7030
6018
6018
C00C
C00C
C00C
C00C
C00C
C00C
C00C
C00C
C00C
C00C
6018
6018
7038
3870
1FE0
0F80
ENDCHAR
STARTCHAR 0151
ENCODING 337
SWIDTH 500 0
DWIDTH 16 0
BBX 12 20 2 2
BITMAP
0660
0CC0
1980
0000
0000
0F00
3FC0
70E0
6060
C070
C030
C030
C030
C030
C030
C070
6060
70E0
3FC0
0F00
ENDCHAR
STARTCHAR 0152
ENCODING 338
SWIDTH 500 0
DWIDTH 16 0
BBX 13 22 2 2
BITMAP
0FF8
1FF8
3180
7180
6180
6180
C180
C180
C180
C1F0
C1F0
C180
C180
C180
C180
C180
6180
6180
7180
3180
3FF8
0FF8
ENDCHAR
STARTCHAR 0153
ENCODING 339
SWIDTH 500 0
DWIDTH 16 0
BBX 14 16 1 1
BITMAP
3CF0
7FF8
6798
4798
C30C
C30C
C3FC
C300
C300
C300
C30C
C30C
638C
6798
7EF8
3C70
ENDCHAR
STARTCHAR 0154
ENCODING 340
SWIDTH 500 0
DWIDTH 16 0
BBX 12 26 2 2
BITMAP
0700
0E00
0C00
0000
FF00
FFC0
C0E0
C070
C030
C030
C030
C030
C060
C1E0
FFC0
FF00
C700
C300
C380
C380
C1C0
C1C0
C0E0
C0E0
C070
C070
ENDCHAR
STARTCHAR 0155
ENCODING 341
SWIDTH 500 0
DWIDTH 16 0
BBX 8 20 5 2
BITMAP
1C
30
60
00
00
C7
CF
DE
F8
E0
C0
C0
C0
C0
C0
C0
C0
C0
C0
C0
ENDCHAR
STARTCHAR 0158
ENCODING 344
SWIDTH 500 0
DWIDTH 16 0
BBX 12 26 2 2
BITMAP
6100
3600
1C00
0000
FF00
FFC0
C0E0
C070
C030
C030
C030
C030
C060
C1E0
FFC0
FF00
C700
C300
C380
C380
C1C0
C1C0
C0E0
C0E0
C070
C070
ENDCHAR
STARTCHAR 0159
ENCODING 345
SWIDTH 500 0
DWIDTH 16 0
BBX 9 20 4 2
BITMAP
C300
6E00
3C00
0000
0000
6380
6780
6F00
7C00
7000
6000
6000
6000
6000
6000
6000
6000
6000
6000
6000
ENDCHAR
STARTCHAR 015A
ENCODING 346
SWIDTH 500 0
DWIDTH 16 0
BBX 13 26 2 2
BITMAP
0380
0700
0C00
0000
1F80
3FC0
70E0
C060
C070
C070
C000
6000
7800
3C00
0F00
03C0
00E0
0070
0038
0018
C018
C018
E038
7070
3FE0
1F80
ENDCHAR
STARTCHAR 015B
ENCODING 347
SWIDTH 500 0
DWIDTH 16 0
BBX 12 20 2 2
BITMAP
0380
0700
0C00
0000
0000
1F80
3FC0
70E0
6060
6000
3800
1E00
07C0
00E0
0070
0030
E030
F070
7FE0
1F80
ENDCHAR
STARTCHAR 015C
ENCODING 348
SWIDTH 500 0
DWIDTH 16 0
BBX 13 26 2 2
BITMAP
0F00
1980
30C0
0000
1F80
3FC0
70E0
E060
C070
C070
C000
6000
7000
3C00
0F00
0380
00E0
0070
0030
0018
C018
C018
E038
7070
3FF0
1FC0
ENDCHAR
STARTCHAR 015D
ENCODING 349
SWIDTH 500 0
DWIDTH 16 0
BBX 12 20 2 2
BITMAP
0F00
1980
30C0
0000
0000
1F80
3FC0
70E0
6060
6000
3800
1E00
07C0
00E0
0070
0030
E030
F070
7FE0
1F80
ENDCHAR
STARTCHAR 015E
ENCODING 350
SWIDTH 500 0
DWIDTH 16 0
BBX 13 28 2 -4
BITMAP
1F80
3FC0
70E0
C070
C070
C000
C000
6000
7800
3E00
0F80
03C0
00E0
0070
0038
E018
E018
E018
7030
7870
3FE0
0F80
0000
0700
0700
0700
0300
0600
ENDCHAR
STARTCHAR 015F
ENCODING 351
SWIDTH 500 0
DWIDTH 16 0
BBX 11 21 2 -4
BITMAP
1F00
7FC0
E1C0
C0E0
C000
7000
3E00
0F80
03C0
00E0
C060
E060
F0E0
7FC0
1F00
0000
0E00
0E00
0E00
0600
0C00
ENDCHAR
STARTCHAR 0160
ENCODING 352
SWIDTH 500 0
DWIDTH 16 0
BBX 13 26 2 2
BITMAP
30C0
1980
0F00
0000
1F80
3FC0
70E0
C060
C070
C070
C000
6000
7800
3C00
0F00
03C0
00E0
0070
0038
0018
C018
C018
E038
7070
3FE0
1F80
ENDCHAR
STARTCHAR 0161
ENCODING 353
SWIDTH 500 0
DWIDTH 16 0
BBX 12 20 2 2
BITMAP
30C0
1980
0F00
0000
0000
1F80
3FC0
70E0
6060
6000
3800
1E00
07C0
00E0
0070
0030
E030
F070
7FE0
1F80
ENDCHAR
STARTCHAR 0162
ENCODING 354
SWIDTH 500 0
DWIDTH 16 0
BBX 14 28 1 -4
BITMAP
FFFC
FFFC
0300
0300
0300
0300
0300
0300
0300
0300
0300
0300
0300
0300
0300
0300
0300
0300
0300
0300
0300
0000
0000
0700
0700
0700
0100
0200
ENDCHAR
STARTCHAR 0163
ENCODING 355
SWIDTH 500 0
DWIDTH 16 0
BBX 10 25 3 -4
BITMAP
1800
1800
1800
1800
FF80
FF80
1800
1800
1800
1800
1800
1800
1800
1800
1800
1800
1840
1FC0
0FC0
0000
0E00
0E00
0E00
0600
0C00
ENDCHAR
STARTCHAR 0164
ENCODING 356
SWIDTH 500 0
DWIDTH 16 0
BBX 14 26 1 2
BITMAP
1860
0CC0
0380
0000
FFFC
FFFC
0300
0300
0300
0300
0300
0300
0300
0300
0300
0300
0300
0300
0300
0300
0300
0300
0300
0300
0300
0300
ENDCHAR
STARTCHAR 0165
ENCODING 357
SWIDTH 500 0
DWIDTH 16 0
BBX 11 24 3 1
BITMAP
00E0
00E0
00E0
00E0
0060
18C0
1880
1800
1800
FF80
FF80
1800
1800
1800
1800
1800
1800
1800
1800
1800
1800
1800
1FC0
0FC0
ENDCHAR
STARTCHAR 016A
ENCODING 362
SWIDTH 500 0
DWIDTH 16 0
BBX 12 25 2 2
BITMAP
3FC0
0000
0000
C030
C030
C030
C030
C030
C030
C030
C030
C030
C030
C030
C030
C030
C030
C030
C030
C030
C030
E060
70E0
3FC0
1F80
ENDCHAR
STARTCHAR 016B
ENCODING 363
SWIDTH 500 0
DWIDTH 16 0
BBX 12 19 2 2
BITMAP
3FC0
0000
0000
0000
C030
C030
C030
C030
C030
C030
C030
C030
C030
C030
C030
C070
E0F0
7FF0
3F30
ENDCHAR
STARTCHAR 016C
ENCODING 364
SWIDTH 500 0
DWIDTH 16 0
BBX 12 26 2 2
BITMAP
2040
30C0
0F00
0000
C030
C030
C030
C030
C030
C030
C030
C030
C030
C030
C030
C030
C030
C030
C030
C030
C030
C030
E060
70E0
3FC0
1F80
ENDCHAR
STARTCHAR 016D
ENCODING 365
SWIDTH 500 0
DWIDTH 16 0
BBX 12 20 2 2
BITMAP
6060
30C0
1F80
0000
0000
C030
C030
C030
C030
C030
C030
C030
C030
C030
C030
C030
C070
E0F0
7FF0
3F30
ENDCHAR
STARTCHAR 016E
ENCODING 366
SWIDTH 500 0
DWIDTH 16 0
BBX 12 26 2 2
BITMAP
0F00
1080
1080
1080
CF30
C030
C030
C030
C030
C030
C030
C030
C030
C030
C030
C030
C030
C030
C030
C030
C030
C030
E060
70E0
3FC0
1F80
ENDCHAR
STARTCHAR 016F
ENCODING 367
SWIDTH 500 0
DWIDTH 16 0
BBX 12 22 2 2
BITMAP
0F00
1080
1080
1080
0F00
0000
0000
C030
C030
C030
C030
C030
C030
C030
C030
C030
C030
C030
C070
E0F0
7FF0
3F30
ENDCHAR
STARTCHAR 0170
ENCODING 368
SWIDTH 500 0
DWIDTH 16 0
BBX 12 26 2 2
BITMAP
0E60
1CC0
3980
0000
C030
C030
C030
C030
C030
C030
C030
C030
C030
C030
C030
C030
C030
C030
C030
C030
C030
C030
E060
70E0
3FC0
1F80
ENDCHAR
STARTCHAR 0171
ENCODING 369
SWIDTH 500 0
DWIDTH 16 0
BBX 12 20 2 2
BITMAP
0E60
1CC0
3980
0000
0000
C030
C030
C030
C030
C030
C030
C030
C030
C030
C030
C030
C070
E0F0
7FF0
3F30
ENDCHAR
STARTCHAR 0179
ENCODING 377
SWIDTH 500 0
DWIDTH 16 0
BBX 12 26 2 2
BITMAP
0380
0700
0C00
0000
FFF0
FFF0
0070
00E0
00E0
01C0
01C0
0380
0380
0700
0700
0E00
0C00
1C00
1800
3800
3000
7000
6000
E000
FFF0
FFF0
ENDCHAR
STARTCHAR 017A
ENCODING 378
SWIDTH 500 0
DWIDTH 16 0
BBX 12 20 2 2
BITMAP
0300
0600
0C00
0000
0000
7FE0
7FE0
00E0
01C0
0380
0700
0700
0E00
1C00
1C00
3800
7000
E000
FFF0
FFF0
ENDCHAR
STARTCHAR 017B
ENCODING 379
SWIDTH 500 0
DWIDTH 16 0
BBX 12 26 2 2
BITMAP
0700
0700
0000
0000
FFF0
FFF0
0070
00E0
00E0
01C0
01C0
0380
0380
0700
0700
0E00
0E00
1C00
1C00
3800
3800
7000
7000
E000
FFF0
FFF0
ENDCHAR
STARTCHAR 017C
ENCODING 380
SWIDTH 500 0
DWIDTH 16 0
BBX 12 20 2 2
BITMAP
0700
0700
0000
0000
0000
7FE0
7FE0
00E0
01C0
0180
0380
0700
0E00
0C00
1C00
3800
7000
F000
FFF0
FFF0
ENDCHAR
STARTCHAR 017D
ENCODING 381
SWIDTH 500 0
DWIDTH 16 0
BBX 12 26 2 2
BITMAP
30C0
1B80
0F00
0000
FFF0
FFF0
0070
00E0
00E0
01C0
01C0
0380
0380
0700
0700
0E00
0C00
1C00
1800
3800
3000
7000
6000
E000
FFF0
FFF0
ENDCHAR
STARTCHAR 017E
ENCODING 382
SWIDTH 500 0
DWIDTH 16 0
BBX 12 20 2 2
BITMAP
30C0
1B80
0F00
0000
0000
7FE0
7FE0
00E0
01C0
0380
0700
0700
0E00
1C00
1C00
3800
7000
E000
FFF0
FFF0
ENDCHAR
STARTCHAR 0193
ENCODING 403
SWIDTH 500 0
DWIDTH 16 0
BBX 15 25 1 2
BITMAP
001E
001E
0032
0FB0
3FF0
38F0
7070
6030
6030
C000
C000
C000
C000
C000
C000
C1F8
C1F8
C018
C038
6038
6038
6078
30F8
1FD8
0F98
ENDCHAR
STARTCHAR 01C2
ENCODING 450
SWIDTH 500 0
DWIDTH 16 0
BBX 10 27 3 -3
BITMAP
0C00
0C00
0C00
0C00
0C00
0C00
FFC0
FFC0
0C00
0C00
0C00
0C00
0C00
0C00
0C00
0C00
0C00
0C00
FFC0
FFC0
0C00
0C00
0C00
0C00
0C00
0C00
0C00
ENDCHAR
STARTCHAR 01CD
ENCODING 461
SWIDTH 1000 0
DWIDTH 32 0
BBX 20 26 6 2
BITMAP
070E00
01F800
000000
000000
00F000
01F800
01F800
019800
039C00
039C00
070C00
070E00
070E00
0E0700
0E0700
0E0700
1C0380
1FFF80
3FFFC0
3801C0
3801C0
7000E0
7000E0
F000F0
E00070
E00070
ENDCHAR
STARTCHAR 01CE
ENCODING 462
SWIDTH 1000 0
DWIDTH 32 0
BBX 16 20 8 1
BITMAP
3870
0CE0
0780
0000
0000
0FC0
3FF0
7878
7038
E01C
001C
03FC
1FFC
7C1C
F01C
E01C
E03C
F0FC
FFFF
7F0F
ENDCHAR
STARTCHAR 01D0
ENCODING 464
SWIDTH 1000 0
DWIDTH 32 0
BBX 9 20 12 2
BITMAP
C180
7700
3E00
0000
0000
1C00
1C00
1C00
1C00
1C00
1C00
1C00
1C00
1C00
1C00
1C00
1C00
1C00
1C00
1C00
ENDCHAR
STARTCHAR 01D1
ENCODING 465
SWIDTH 1000 0
DWIDTH 32 0
BBX 20 26 6 2
BITMAP
070E00
01F800
000000
01F800
07FE00
0F0F00
1C0380
3801C0
7000E0
7000E0
7000E0
E00070
E00070
E00070
E00070
E00070
E00070
E00070
7000E0
7000E0
7000E0
3801C0
1C0380
0F0F00
07FE00
01F800
ENDCHAR
STARTCHAR 01D2
ENCODING 466
SWIDTH 1000 0
DWIDTH 32 0
BBX 16 20 8 2
BITMAP
1C38
0E70
03C0
0000
0000
07E0
1FF8
3C3C
781E
700E
E007
E007
E007
E007
E007
F00E
701E
7C3C
3FF8
0FE0
ENDCHAR
STARTCHAR 01D4
ENCODING 468
SWIDTH 1000 0
DWIDTH 32 0
BBX 14 20 9 2
BITMAP
3870
1CC0
0780
0000
0000
E01C
E01C
E01C
E01C
E01C
E01C
E01C
E01C
E01C
E01C
E03C
E07C
70FC
7FDC
1F9C
ENDCHAR
STARTCHAR 01D6
ENCODING 470
SWIDTH 1000 0
DWIDTH 32 0
BBX 14 22 9 2
BITMAP
3FF0
3FF0
3870
3870
0000
0000
0000
E01C
E01C
E01C
E01C
E01C
E01C
E01C
E01C
E01C
E01C
E03C
E07C
70FC
7FDC
1F9C
ENDCHAR
STARTCHAR 01D8
ENCODING 472
SWIDTH 1000 0
DWIDTH 32 0
BBX 14 22 9 2
BITMAP
00E0
0180
3B70
3870
0000
0000
0000
E01C
E01C
E01C
E01C
E01C
E01C
E01C
E01C
E01C
E01C
E03C
E07C
70FC
7FDC
1F9C
ENDCHAR
STARTCHAR 01DA
ENCODING 474
SWIDTH 1000 0
DWIDTH 32 0
BBX 14 22 9 2
BITMAP
1CE0
07C0
3FF0
3870
0000
0000
0000
E01C
E01C
E01C
E01C
E01C
E01C
E01C
E01C
E01C
E01C
E03C
E07C
70FC
7FDC
1F9C
ENDCHAR
STARTCHAR 01DC
ENCODING 476
SWIDTH 1000 0
DWIDTH 32 0
BBX 14 22 9 2
BITMAP
1C00
0600
3B70
3870
0000
0000
0000
E01C
E01C
E01C
E01C
E01C
E01C
E01C
E01C
E01C
E01C
E03C
E07C
70FC
7FDC
1F9C
ENDCHAR
STARTCHAR 01F8
ENCODING 504
SWIDTH 500 0
DWIDTH 16 0
BBX 12 26 2 2
BITMAP
1C00
0E00
0300
0000
E030
E030
F030
F030
F830
D830
D830
DC30
CC30
CE30
C630
C630
C730
C330
C3B0
C1B0
C1B0
C0F0
C0F0
C0F0
C070
C070
ENDCHAR
STARTCHAR 01F9
ENCODING 505
SWIDTH 500 0
DWIDTH 16 0
BBX 12 20 2 2
BITMAP
3C00
0E00
0700
0000
0000
CFC0
FFE0
F870
E030
C030
C030
C030
C030
C030
C030
C030
C030
C030
C030
C030
ENDCHAR
STARTCHAR 01FD
ENCODING 509
SWIDTH 500 0
DWIDTH 16 0
BBX 14 20 1 2
BITMAP
01C0
0180
0300
0000
0000
1C70
3EF8
7398
639C
630C
030C
0FFC
3B00
6300
C300
C30C
C38C
C39C
FFF8
7CF0
ENDCHAR
STARTCHAR 0250
ENCODING 592
SWIDTH 500 0
DWIDTH 16 0
BBX 13 15 1 3
BITMAP
E3E0
FFF0
3E38
3818
3018
3018
3030
33F0
3FC0
3E00
3000
3038
3870
1FF0
0FC0
ENDCHAR
STARTCHAR 0251
ENCODING 593
SWIDTH 500 0
DWIDTH 16 0
BBX 13 15 2 1
BITMAP
0FB0
3FF0
70F0
6070
E030
C030
C030
C030
C030
C030
E030
6070
70F0
3FF8
0F98
ENDCHAR
STARTCHAR 0252
ENCODING 594
SWIDTH 500 0
DWIDTH 16 0
BBX 13 15 1 3
BITMAP
CF80
FFE0
7870
7030
6038
6018
6018
6018
6018
6018
6038
7030
7870
7FE0
6F80
ENDCHAR
STARTCHAR 0253
ENCODING 595
SWIDTH 500 0
DWIDTH 16 0
BBX 12 22 2 2
BITMAP
1F00
7FC0
71C0
E0E0
C060
C000
C000
CF00
DFC0
F0E0
E060
E030
C030
C030
C030
C030
C030
E070
E060
F0E0
FFC0
DF00
ENDCHAR
STARTCHAR 0254
ENCODING 596
SWIDTH 500 0
DWIDTH 16 0
BBX 12 15 2 2
BITMAP
1F00
3FC0
70E0
6060
E070
0030
0030
0030
0030
0030
E070
E060
70E0
3FC0
1F00
ENDCHAR
STARTCHAR 0255
ENCODING 597
SWIDTH 500 0
DWIDTH 16 0
BBX 12 17 2 -1
BITMAP
0F80
3FC0
70E0
6060
E070
C000
C000
C000
C1E0
C7F0
EE30
FC30
7860
7FE0
FF80
C000
C000
ENDCHAR
STARTCHAR 0256
ENCODING 598
SWIDTH 500 0
DWIDTH 16 0
BBX 15 27 1 -3
BITMAP
0060
0060
0060
0060
0060
0060
0060
1F60
3FE0
71E0
60E0
C0E0
C060
C060
C060
C060
C060
C0E0
60E0
71E0
3FE0
1F60
0060
0060
0062
007E
003E
ENDCHAR
STARTCHAR 0257
ENCODING 599
SWIDTH 500 0
DWIDTH 16 0
BBX 15 22 1 2
BITMAP
003E
007E
0060
0060
0060
0060
0060
1F60
3FE0
71E0
60E0
C0E0
C060
C060
C060
C060
C060
C0E0
60E0
71E0
3FE0
1F60
ENDCHAR
STARTCHAR 0258
ENCODING 600
SWIDTH 500 0
DWIDTH 16 0
BBX 12 15 2 2
BITMAP
1F00
3FC0
70E0
6060
E070
E070
FFF0
FFF0
0030
0070
0070
E060
70E0
7FC0
1F00
ENDCHAR
STARTCHAR 0259
ENCODING 601
SWIDTH 500 0
DWIDTH 16 0
BBX 12 15 2 2
BITMAP
1F00
3FC0
70E0
E060
E070
0070
0030
FFF0
FFF0
C070
E070
6060
70E0
3FC0
1F00
ENDCHAR
STARTCHAR 025A
ENCODING 602
SWIDTH 500 0
DWIDTH 16 0
BBX 15 15 1 2
BITMAP
1E00
3F00
7380
6180
E1E0
00F0
03D4
0FDE
3CCC
F8C0
E0C0
6180
7380
3F00
1E00
ENDCHAR
STARTCHAR 025C
ENCODING 604
SWIDTH 500 0
DWIDTH 16 0
BBX 12 15 2 2
BITMAP
1F80
3FC0
70E0
E060
0060
00E0
0FC0
0FC0
0060
0030
0030
0030
F070
7FE0
1F80
ENDCHAR
STARTCHAR 025E
ENCODING 606
SWIDTH 500 0
DWIDTH 16 0
BBX 12 15 2 2
BITMAP
0FC0
3FE0
7070
6030
E030
C030
C060
C7E0
C7E0
C070
C030
6030
7070
3FE0
0FC0
ENDCHAR
STARTCHAR 025F
ENCODING 607
SWIDTH 500 0
DWIDTH 16 0
BBX 10 20 3 -3
BITMAP
0C00
0C00
0C00
0C00
0C00
0C00
0C00
0C00
0C00
0C00
0C00
FFC0
FFC0
0C00
0C00
0C00
0C00
0C00
FC00
F800
ENDCHAR
STARTCHAR 0260
ENCODING 608
SWIDTH 500 0
DWIDTH 16 0
BBX 15 27 1 -3
BITMAP
003E
007E
0060
0060
0060
0060
0060
1F60
3FE0
71E0
60E0
C060
C060
C060
C060
C060
60E0
71E0
3FE0
1F60
0060
0060
E060
60E0
70C0
3FC0
1F00
ENDCHAR
STARTCHAR 0261
ENCODING 609
SWIDTH 500 0
DWIDTH 16 0
BBX 12 20 2 -3
BITMAP
0FB0
3FF0
70F0
6070
C030
C030
C030
C030
C030
6070
70F0
3FF0
1F30
0030
0030
6030
7070
78E0
3FC0
0F80
ENDCHAR
STARTCHAR 0264
ENCODING 612
SWIDTH 500 0
DWIDTH 16 0
BBX 14 15 1 2
BITMAP
F03C
F87C
1CE0
0FC0
0780
0780
0300
0780
0780
0F80
0CC0
0CC0
0CC0
0FC0
0780
ENDCHAR
STARTCHAR 0265
ENCODING 613
SWIDTH 500 0
DWIDTH 16 0
BBX 12 20 2 -3
BITMAP
C030
C030
C030
C030
C030
C030
C030
C030
C030
C030
C030
C070
E1F0
7FF0
3F30
0030
0030
0030
0030
0030
ENDCHAR
STARTCHAR 0266
ENCODING 614
SWIDTH 500 0
DWIDTH 16 0
BBX 12 22 2 2
BITMAP
1F80
3FE0
7060
E030
C000
C000
C000
CFC0
FFE0
F870
E030
C030
C030
C030
C030
C030
C030
C030
C030
C030
C030
C030
ENDCHAR
STARTCHAR 0267
ENCODING 615
SWIDTH 500 0
DWIDTH 16 0
BBX 12 27 2 -3
BITMAP
1F80
3FE0
7060
E030
C000
C000
C000
CFC0
FFE0
F870
E030
C030
C030
C030
C030
C030
C030
C030
C030
C030
C030
C030
0030
0030
0230
03F0
01E0
ENDCHAR
STARTCHAR 0268
ENCODING 616
SWIDTH 500 0
DWIDTH 16 0
BBX 8 22 4 2
BITMAP
1C
1C
1C
00
00
00
00
18
18
18
18
18
FF
18
18
18
18
18
18
18
18
18
ENDCHAR
STARTCHAR 026C
ENCODING 620
SWIDTH 500 0
DWIDTH 16 0
BBX 10 22 2 2
BITMAP
0600
0600
0600
0600
0600
0600
0600
7E00
C600
C600
E600
3FC0
07C0
0600
0600
0600
0600
0600
0600
0600
0600
0600
ENDCHAR
STARTCHAR 026D
ENCODING 621
SWIDTH 500 0
DWIDTH 16 0
BBX 7 27 7 -3
BITMAP
C0
C0
C0
C0
C0
C0
C0
C0
C0
C0
C0
C0
C0
C0
C0
C0
C0
C0
C0
C0
C0
C0
C0
C0
C0
FE
7E
ENDCHAR
STARTCHAR 026E
ENCODING 622
SWIDTH 500 0
DWIDTH 16 0
BBX 12 27 2 -3
BITMAP
C000
C000
C000
C000
C000
C000
C000
FFE0
FFF0
C0E0
C1C0
C780
CE00
DC00
DF80
CFC0
C0E0
C070
C030
C030
C030
C030
0070
3060
38E0
1FC0
0F80
ENDCHAR
STARTCHAR 026F
ENCODING 623
SWIDTH 500 0
DWIDTH 16 0
BBX 14 15 1 2
BITMAP
C30C
C30C
C30C
C30C
C30C
C30C
C30C
C30C
C30C
C30C
C30C
C30C
C71C
FFFC
79EC
ENDCHAR
STARTCHAR 0270
ENCODING 624
SWIDTH 500 0
DWIDTH 16 0
BBX 14 20 1 -3
BITMAP
C30C
C30C
C30C
C30C
C30C
C30C
C30C
C30C
C30C
C30C
C30C
C30C
C71C
FFFC
79FC
000C
000C
000C
000C
000C
ENDCHAR
STARTCHAR 0271
ENCODING 625
SWIDTH 500 0
DWIDTH 16 0
BBX 14 20 1 -3
BITMAP
DE78
FFFC
E38C
C30C
C30C
C30C
C30C
C30C
C30C
C30C
C30C
C30C
C30C
C30C
C30C
000C
000C
008C
00FC
00F8
ENDCHAR
STARTCHAR 0272
ENCODING 626
SWIDTH 500 0
DWIDTH 16 0
BBX 14 20 0 -3
BITMAP
0CF0
0FF8
0F1C
0E0C
0C0C
0C0C
0C0C
0C0C
0C0C
0C0C
0C0C
0C0C
0C0C
0C0C
0C0C
0C00
0C00
8C00
FC00
F800
ENDCHAR
STARTCHAR 0273
ENCODING 627
SWIDTH 500 0
DWIDTH 16 0
BBX 14 20 2 -3
BITMAP
CF00
FF80
F1C0
E0C0
C0C0
C0C0
C0C0
C0C0
C0C0
C0C0
C0C0
C0C0
C0C0
C0C0
C0C0
00C0
00C0
00C4
00FC
007C
ENDCHAR
STARTCHAR 0275
ENCODING 629
SWIDTH 500 0
DWIDTH 16 0
BBX 12 15 2 2
BITMAP
0F00
3FC0
70E0
6060
E070
E070
FFF0
FFF0
C070
E070
E070
6060
70E0
3FC0
0F00
ENDCHAR
STARTCHAR 0279
ENCODING 633
SWIDTH 500 0
DWIDTH 16 0
BBX 8 15 3 1
BITMAP
03
03
03
03
03
03
03
03
03
03
07
1F
7B
F3
E3
ENDCHAR
STARTCHAR 027A
ENCODING 634
SWIDTH 500 0
DWIDTH 16 0
BBX 8 22 3 1
BITMAP
03
03
03
03
03
03
03
03
03
03
03
03
03
03
03
03
03
07
1F
7B
F3
E3
ENDCHAR
STARTCHAR 027B
ENCODING 635
SWIDTH 500 0
DWIDTH 16 0
BBX 12 20 3 -3
BITMAP
0300
0300
0300
0300
0300
0300
0300
0300
0300
0300
0700
1F00
3F00
F300
E300
8300
0300
0310
03F0
01F0
ENDCHAR
STARTCHAR 027D
ENCODING 637
SWIDTH 500 0
DWIDTH 16 0
BBX 8 20 5 -2
BITMAP
C7
CF
DE
F8
E0
E0
C0
C0
C0
C0
C0
C0
C0
C0
C0
C0
C0
C2
FE
7E
ENDCHAR
STARTCHAR 027E
ENCODING 638
SWIDTH 500 0
DWIDTH 16 0
BBX 7 15 6 2
BITMAP
7E
FE
C0
C0
C0
C0
C0
C0
C0
C0
C0
C0
C0
C0
C0
ENDCHAR
STARTCHAR 0281
ENCODING 641
SWIDTH 500 0
DWIDTH 16 0
BBX 12 15 2 2
BITMAP
C030
C070
C0E0
C0C0
C1C0
C180
C380
FF80
FFC0
C0E0
C060
C060
C0E0
FFC0
FF80
ENDCHAR
STARTCHAR 0282
ENCODING 642
SWIDTH 500 0
DWIDTH 16 0
BBX 12 20 2 -3
BITMAP
1F80
7FC0
E0E0
C060
C000
7000
3E00
0F80
01E0
0070
0030
C030
F070
FFE0
FF80
C000
C000
C000
F800
7800
ENDCHAR
STARTCHAR 0283
ENCODING 643
SWIDTH 500 0
DWIDTH 16 0
BBX 10 27 3 -3
BITMAP
07C0
0FC0
0C00
0C00
0C00
0C00
0C00
0C00
0C00
0C00
0C00
0C00
0C00
0C00
0C00
0C00
0C00
0C00
0C00
0C00
0C00
0C00
0C00
0C00
0C00
FC00
F800
ENDCHAR
STARTCHAR 0284
ENCODING 644
SWIDTH 500 0
DWIDTH 16 0
BBX 10 27 3 -3
BITMAP
07C0
0FC0
0C00
0C00
0C00
0C00
0C00
0C00
0C00
0C00
0C00
0C00
0C00
0C00
0C00
0C00
0C00
0C00
FFC0
FFC0
0C00
0C00
0C00
0C00
0C00
FC00
F800
ENDCHAR
STARTCHAR 0288
ENCODING 648
SWIDTH 500 0
DWIDTH 16 0
BBX 10 24 3 -3
BITMAP
1800
1800
1800
1800
FF80
FF80
1800
1800
1800
1800
1800
1800
1800
1800
1800
1800
1800
1800
1800
1800
1800
1840
1FC0
0F80
ENDCHAR
STARTCHAR 0289
ENCODING 649
SWIDTH 500 0
DWIDTH 16 0
BBX 14 15 1 2
BITMAP
6018
6018
6018
6018
6018
FFFC
6018
6018
6018
6018
6018
6038
70F8
3FF8
1F98
ENDCHAR
STARTCHAR 028A
ENCODING 650
SWIDTH 500 0
DWIDTH 16 0
BBX 14 15 1 2
BITMAP
FCFC
FCFC
1CE0
1860
3030
3038
6018
6018
6018
6018
6018
7030
3870
3FE0
0FC0
ENDCHAR
STARTCHAR 028B
ENCODING 651
SWIDTH 500 0
DWIDTH 16 0
BBX 11 15 2 3
BITMAP
C1C0
C0C0
C0E0
C060
C060
C060
C060
C060
C060
C0E0
C0C0
C1C0
E380
7F00
3E00
ENDCHAR
STARTCHAR 028C
ENCODING 652
SWIDTH 500 0
DWIDTH 16 0
BBX 12 15 2 2
BITMAP
0600
0F00
0F00
1F00
1F80
1980
39C0
39C0
30C0
70E0
70E0
6060
E070
E070
C030
ENDCHAR
STARTCHAR 028D
ENCODING 653
SWIDTH 500 0
DWIDTH 16 0
BBX 14 15 1 2
BITMAP
3870
3870
3870
3870
2CD0
6CD8
6CD8
6CD8
6498
6798
6798
E79C
C78C
C78C
C30C
ENDCHAR
STARTCHAR 028E
ENCODING 654
SWIDTH 500 0
DWIDTH 16 0
BBX 12 22 2 2
BITMAP
00F0
01F0
0380
0300
0300
0700
0600
0600
0E00
0E00
0F00
1F00
1B00
3B80
3980
31C0
70C0
70C0
60E0
E060
E070
C070
ENDCHAR
STARTCHAR 0290
ENCODING 656
SWIDTH 500 0
DWIDTH 16 0
BBX 14 20 2 -3
BITMAP
7FE0
7FE0
00E0
01C0
0380
0300
0700
0E00
1C00
1C00
3800
7000
F000
FFE0
FFE0
0060
0060
0060
007C
003C
ENDCHAR
STARTCHAR 0291
ENCODING 657
SWIDTH 500 0
DWIDTH 16 0
BBX 13 18 2 -2
BITMAP
7FE0
7FE0
00C0
01C0
0380
0700
0700
0E00
1C00
38F0
39F8
7398
E318
FFF8
FFE0
0C00
1800
1800
ENDCHAR
STARTCHAR 0292
ENCODING 658
SWIDTH 500 0
DWIDTH 16 0
BBX 12 20 2 -3
BITMAP
7FE0
7FE0
01E0
03C0
0700
0E00
3C00
7F80
3FC0
20E0
0060
0030
0030
0030
0030
C030
E060
70E0
3FC0
1F00
ENDCHAR
STARTCHAR 0294
ENCODING 660
SWIDTH 500 0
DWIDTH 16 0
BBX 12 22 1 2
BITMAP
1F00
3FC0
70C0
E060
E060
0030
0030
0030
0030
0030
0030
0070
0060
00E0
03C0
0F00
0C00
0C00
0C00
0C00
0C00
0C00
ENDCHAR
STARTCHAR 0295
ENCODING 661
SWIDTH 500 0
DWIDTH 16 0
BBX 12 22 2 2
BITMAP
0F80
3FC0
30E0
6070
6070
C000
C000
C000
C000
C000
C000
6000
6000
3000
3C00
0F00
0300
0300
0300
0300
0300
0300
ENDCHAR
STARTCHAR 0298
ENCODING 664
SWIDTH 500 0
DWIDTH 16 0
BBX 12 15 2 2
BITMAP
1F00
3F80
70C0
6060
E060
C630
CF30
CF30
CF30
C630
4060
4060
21C0
1FC0
0F00
ENDCHAR
STARTCHAR 029D
ENCODING 669
SWIDTH 500 0
DWIDTH 16 0
BBX 13 27 1 -4
BITMAP
0380
0380
0380
0000
0000
0000
0000
0180
0180
0180
0180
0180
0180
0180
0180
0180
0180
0180
0180
0180
7F80
FF80
C3C0
C3E0
E3F0
7F38
3E10
ENDCHAR
STARTCHAR 02A1
ENCODING 673
SWIDTH 500 0
DWIDTH 16 0
BBX 12 22 2 2
BITMAP
1F00
7F80
E1C0
C060
C060
0030
0030
0030
0030
0030
0030
0070
0060
00E0
03C0
1F00
1C00
1800
FF80
1800
1800
1800
ENDCHAR
STARTCHAR 02A2
ENCODING 674
SWIDTH 500 0
DWIDTH 16 0
BBX 12 22 2 2
BITMAP
0F80
1FE0
30F0
6070
6070
C000
C000
C000
C000
C000
C000
E000
6000
7000
3C00
1F00
0700
0300
1FF0
0300
0300
0300
ENDCHAR
STARTCHAR 02C7
ENCODING 711
SWIDTH 500 0
DWIDTH 16 0
BBX 10 4 3 20
BITMAP
C0C0
7380
3F00
1E00
ENDCHAR
STARTCHAR 02C8
ENCODING 712
SWIDTH 500 0
DWIDTH 16 0
BBX 2 4 7 24
BITMAP
C0
C0
C0
C0
ENDCHAR
STARTCHAR 02CC
ENCODING 716
SWIDTH 500 0
DWIDTH 16 0
BBX 2 4 7 -4
BITMAP
C0
C0
C0
C0
ENDCHAR
STARTCHAR 02D0
ENCODING 720
SWIDTH 500 0
DWIDTH 16 0
BBX 4 15 6 2
BITMAP
F0
F0
60
60
40
00
00
00
00
00
40
60
60
F0
F0
ENDCHAR
STARTCHAR 02D1
ENCODING 721
SWIDTH 500 0
DWIDTH 16 0
BBX 4 5 6 11
BITMAP
F0
F0
60
60
40
ENDCHAR
STARTCHAR 02D8
ENCODING 728
SWIDTH 500 0
DWIDTH 16 0
BBX 10 4 3 20
BITMAP
C0C0
E1C0
7F80
1E00
ENDCHAR
STARTCHAR 02D9
ENCODING 729
SWIDTH 500 0
DWIDTH 16 0
BBX 4 4 6 20
BITMAP
F0
F0
F0
F0
ENDCHAR
STARTCHAR 02DB
ENCODING 731
SWIDTH 500 0
DWIDTH 16 0
BBX 7 6 5 -1
BITMAP
30
60
C0
C0
FE
7E
ENDCHAR
STARTCHAR 02DC
ENCODING 732
SWIDTH 500 0
DWIDTH 16 0
BBX 10 3 3 21
BITMAP
7800
FFC0
0780
ENDCHAR
STARTCHAR 02DD
ENCODING 733
SWIDTH 500 0
DWIDTH 16 0
BBX 10 4 3 20
BITMAP
39C0
7380
E300
C600
ENDCHAR
STARTCHAR 02DE
ENCODING 734
SWIDTH 500 0
DWIDTH 16 0
BBX 9 6 3 9
BITMAP
F000
F000
1080
1980
0F80
0700
ENDCHAR
STARTCHAR 02E5
ENCODING 741
SWIDTH 500 0
DWIDTH 16 0
BBX 9 32 3 -4
BITMAP
FF80
FF80
0180
0180
0180
0180
0180
0180
0180
0180
0180
0180
0180
0180
0180
0180
0180
0180
0180
0180
0180
0180
0180
0180
0180
0180
0180
0180
0180
0180
0180
0180
ENDCHAR
STARTCHAR 02E6
ENCODING 742
SWIDTH 500 0
DWIDTH 16 0
BBX 9 32 3 -4
BITMAP
0180
0180
0180
0180
0180
0180
0180
FF80
FF80
0180
0180
0180
0180
0180
0180
0180
0180
0180
0180
0180
0180
0180
0180
0180
0180
0180
0180
0180
0180
0180
0180
0180
ENDCHAR
STARTCHAR 02E7
ENCODING 743
SWIDTH 500 0
DWIDTH 16 0
BBX 9 32 3 -4
BITMAP
0180
0180
0180
0180
0180
0180
0180
0180
0180
0180
0180
0180
0180
0180
0180
FF80
FF80
0180
0180
0180
0180
0180
0180
0180
0180
0180
0180
0180
0180
0180
0180
0180
ENDCHAR
STARTCHAR 02E8
ENCODING 744
SWIDTH 500 0
DWIDTH 16 0
BBX 9 32 3 -4
BITMAP
0180
0180
0180
0180
0180
0180
0180
0180
0180
0180
0180
0180
0180
0180
0180
0180
0180
0180
0180
0180
0180
0180
0180
FF80
FF80
0180
0180
0180
0180
0180
0180
0180
ENDCHAR
STARTCHAR 02E9
ENCODING 745
SWIDTH 500 0
DWIDTH 16 0
BBX 9 32 3 -4
BITMAP
0180
0180
0180
0180
0180
0180
0180
0180
0180
0180
0180
0180
0180
0180
0180
0180
0180
0180
0180
0180
0180
0180
0180
0180
0180
0180
0180
0180
0180
0180
FF80
FF80
ENDCHAR
STARTCHAR 0300
ENCODING 768
SWIDTH 500 0
DWIDTH 16 0
BBX 5 3 5 25
BITMAP
E0
70
18
ENDCHAR
STARTCHAR 0301
ENCODING 769
SWIDTH 500 0
DWIDTH 16 0
BBX 5 3 6 25
BITMAP
38
70
C0
ENDCHAR
STARTCHAR 0302
ENCODING 770
SWIDTH 500 0
DWIDTH 16 0
BBX 8 3 4 25
BITMAP
3C
66
C3
ENDCHAR
STARTCHAR 0303
ENCODING 771
SWIDTH 500 0
DWIDTH 16 0
BBX 8 3 4 25
BITMAP
70
FF
0E
ENDCHAR
STARTCHAR 0304
ENCODING 772
SWIDTH 500 0
DWIDTH 16 0
BBX 8 1 4 26
BITMAP
FF
ENDCHAR
STARTCHAR 0306
ENCODING 774
SWIDTH 500 0
DWIDTH 16 0
BBX 8 3 4 25
BITMAP
C3
E7
3C
ENDCHAR
STARTCHAR 0308
ENCODING 776
SWIDTH 500 0
DWIDTH 16 0
BBX 10 2 3 26
BITMAP
E1C0
E1C0
ENDCHAR
STARTCHAR 030B
ENCODING 779
SWIDTH 500 0
DWIDTH 16 0
BBX 8 3 5 25
BITMAP
77
6E
CC
ENDCHAR
STARTCHAR 030C
ENCODING 780
SWIDTH 500 0
DWIDTH 16 0
BBX 8 3 4 25
BITMAP
C3
66
3C
ENDCHAR
STARTCHAR 030F
ENCODING 783
SWIDTH 500 0
DWIDTH 16 0
BBX 8 3 3 25
BITMAP
EE
76
33
ENDCHAR
STARTCHAR 0318
ENCODING 792
SWIDTH 500 0
DWIDTH 16 0
BBX 4 4 5 -4
BITMAP
30
F0
30
30
ENDCHAR
STARTCHAR 0319
ENCODING 793
SWIDTH 500 0
DWIDTH 16 0
BBX 4 4 7 -4
BITMAP
C0
F0
C0
C0
ENDCHAR
STARTCHAR 031A
ENCODING 794
SWIDTH 500 0
DWIDTH 16 0
BBX 6 4 9 24
BITMAP
FC
0C
0C
0C
ENDCHAR
STARTCHAR 031C
ENCODING 796
SWIDTH 500 0
DWIDTH 16 0
BBX 3 4 6 -3
BITMAP
E0
C0
E0
20
ENDCHAR
STARTCHAR 031D
ENCODING 797
SWIDTH 500 0
DWIDTH 16 0
BBX 6 3 5 -3
BITMAP
30
30
FC
ENDCHAR
STARTCHAR 031E
ENCODING 798
SWIDTH 500 0
DWIDTH 16 0
BBX 6 4 5 -4
BITMAP
FC
30
30
30
ENDCHAR
STARTCHAR 031F
ENCODING 799
SWIDTH 500 0
DWIDTH 16 0
BBX 8 4 4 -4
BITMAP
18
FF
18
18
ENDCHAR
STARTCHAR 0320
ENCODING 800
SWIDTH 500 0
DWIDTH 16 0
BBX 8 1 4 -2
BITMAP
FF
ENDCHAR
STARTCHAR 0324
ENCODING 804
SWIDTH 500 0
DWIDTH 16 0
BBX 10 2 3 -3
BITMAP
E1C0
E1C0
ENDCHAR
STARTCHAR 0325
ENCODING 805
SWIDTH 500 0
DWIDTH 16 0
BBX 4 6 6 -4
BITMAP
60
90
90
90
90
60
ENDCHAR
STARTCHAR 0329
ENCODING 809
SWIDTH 500 0
DWIDTH 16 0
BBX 2 4 7 -4
BITMAP
C0
C0
C0
C0
ENDCHAR
STARTCHAR 032A
ENCODING 810
SWIDTH 500 0
DWIDTH 16 0
BBX 8 3 4 -3
BITMAP
FF
C3
C3
ENDCHAR
STARTCHAR 032C
ENCODING 812
SWIDTH 500 0
DWIDTH 16 0
BBX 8 3 4 -3
BITMAP
C3
66
3C
ENDCHAR
STARTCHAR 032F
ENCODING 815
SWIDTH 500 0
DWIDTH 16 0
BBX 8 3 4 -3
BITMAP
3C
E6
C3
ENDCHAR
STARTCHAR 0330
ENCODING 816
SWIDTH 500 0
DWIDTH 16 0
BBX 8 3 4 -3
BITMAP
70
FF
0E
ENDCHAR
STARTCHAR 0334
ENCODING 820
SWIDTH 500 0
DWIDTH 16 0
BBX 8 3 4 11
BITMAP
70
FF
0F
ENDCHAR
STARTCHAR 0339
ENCODING 825
SWIDTH 500 0
DWIDTH 16 0
BBX 3 4 7 -3
BITMAP
E0
60
E0
80
ENDCHAR
STARTCHAR 033A
ENCODING 826
SWIDTH 500 0
DWIDTH 16 0
BBX 8 3 4 -3
BITMAP
C3
C3
FF
ENDCHAR
STARTCHAR 033B
ENCODING 827
SWIDTH 500 0
DWIDTH 16 0
BBX 8 3 4 -3
BITMAP
FF
C3
FF
ENDCHAR
STARTCHAR 033C
ENCODING 828
SWIDTH 500 0
DWIDTH 16 0
BBX 10 3 3 -3
BITMAP
7380
FFC0
8C00
ENDCHAR
STARTCHAR 033D
ENCODING 829
SWIDTH 500 0
DWIDTH 16 0
BBX 8 3 4 25
BITMAP
66
3C
E7
ENDCHAR
STARTCHAR 0361
ENCODING 865
SWIDTH 500 0
DWIDTH 16 0
BBX 14 4 1 24
BITMAP
0FC0
7030
C00C
8000
ENDCHAR
STARTCHAR 0391
ENCODING 913
SWIDTH 1000 0
DWIDTH 32 0
BBX 20 22 6 2
BITMAP
00F000
01F800
01F800
019800
039C00
039C00
070C00
070E00
070E00
0E0700
0E0700
0E0700
1C0380
1FFF80
3FFFC0
3FFFC0
3801C0
7801E0
7000E0
F000F0
E00070
E00070
ENDCHAR
STARTCHAR 0392
ENCODING 914
SWIDTH 1000 0
DWIDTH 32 0
BBX 18 22 8 2
BITMAP
FFF800
FFFE00
FFFF00
E00780
E00380
E00380
E00380
E00380
E00F00
FFFE00
FFFC00
FFFF00
E00780
E003C0
E001C0
E001C0
E001C0
E003C0
E00780
FFFF80
FFFF00
FFFC00
ENDCHAR
STARTCHAR 0393
ENCODING 915
SWIDTH 1000 0
DWIDTH 32 0
BBX 17 22 8 2
BITMAP
FFFF80
FFFF80
FFFF80
E00000
E00000
E00000
E00000
E00000
E00000
E00000
E00000
E00000
E00000
E00000
E00000
E00000
E00000
E00000
E00000
E00000
E00000
E00000
ENDCHAR
STARTCHAR 0394
ENCODING 916
SWIDTH 1000 0
DWIDTH 32 0
BBX 22 22 5 2
BITMAP
007800
007800
00FC00
00FC00
01CE00
01CE00
038700
038700
030300
070380
070380
0E01C0
0E01C0
1C00E0
1C00E0
380070
380070
300030
700038
7FFFF8
FFFFFC
FFFFFC
ENDCHAR
STARTCHAR 0395
ENCODING 917
SWIDTH 1000 0
DWIDTH 32 0
BBX 17 22 8 2
BITMAP
FFFF00
FFFF00
FFFF00
E00000
E00000
E00000
E00000
E00000
E00000
FFFE00
FFFE00
FFFE00
E00000
E00000
E00000
E00000
E00000
E00000
E00000
FFFF80
FFFF80
FFFF80
ENDCHAR
STARTCHAR 0396
ENCODING 918
SWIDTH 1000 0
DWIDTH 32 0
BBX 18 22 7 2
BITMAP
7FFF80
7FFF80
7FFF80
000700
000F00
000E00
001C00
003800
007000
00E000
01E000
03C000
038000
070000
0E0000
1C0000
3C0000
780000
F00000
FFFFC0
FFFFC0
FFFFC0
ENDCHAR
STARTCHAR 0397
ENCODING 919
SWIDTH 1000 0
DWIDTH 32 0
BBX 18 22 7 2
BITMAP
E001C0
E001C0
E001C0
E001C0
E001C0
E001C0
E001C0
E001C0
E001C0
FFFFC0
FFFFC0
FFFFC0
E001C0
E001C0
E001C0
E001C0
E001C0
E001C0
E001C0
E001C0
E001C0
E001C0
ENDCHAR
STARTCHAR 0398
ENCODING 920
SWIDTH 1000 0
DWIDTH 32 0
BBX 22 24 5 1
BITMAP
00FC00
07FF80
0F03C0
1E01E0
3C00F0
380070
700038
700038
E0001C
E0001C
E0001C
E7FF9C
E7FF9C
E7FF9C
E0001C
E0001C
700038
700038
380070
3800F0
1C01E0
0F03C0
07FF80
00FC00
ENDCHAR
STARTCHAR 0399
ENCODING 921
SWIDTH 1000 0
DWIDTH 32 0
BBX 3 22 14 2
BITMAP
E0
E0
E0
E0
E0
E0
E0
E0
E0
E0
E0
E0
E0
E0
E0
E0
E0
E0
E0
E0
E0
E0
ENDCHAR
STARTCHAR 039A
ENCODING 922
SWIDTH 1000 0
DWIDTH 32 0
BBX 20 22 7 2
BITMAP
E003C0
E00700
E00E00
E01C00
E03800
E07000
E1E000
E3C000
E78000
EFC000
FFC000
FCE000
F87000
F07800
E03C00
E01E00
E00E00
E00F00
E00780
E003C0
E001E0
E000F0
ENDCHAR
STARTCHAR 039B
ENCODING 923
SWIDTH 1000 0
DWIDTH 32 0
BBX 20 22 6 2
BITMAP
00F000
00F000
01F800
01F800
019800
039C00
039C00
070E00
070E00
070E00
0E0700
0E0700
1C0380
1C0380
1C0380
3801C0
3801C0
7000E0
7000E0
7000E0
E00070
E00070
ENDCHAR
STARTCHAR 039C
ENCODING 924
SWIDTH 1000 0
DWIDTH 32 0
BBX 22 22 5 2
BITMAP
F8007C
F8007C
F8007C
FC00FC
EC00DC
EC00DC
EE01DC
E6019C
E6019C
E7039C
E3031C
E3031C
E3871C
E1861C
E18E1C
E1CE1C
E0CC1C
E0DC1C
E0FC1C
E0781C
E0781C
E0781C
ENDCHAR
STARTCHAR 039D
ENCODING 925
SWIDTH 1000 0
DWIDTH 32 0
BBX 18 22 7 2
BITMAP
F801C0
F801C0
FC01C0
EC01C0
EE01C0
E701C0
E701C0
E381C0
E181C0
E1C1C0
E0C1C0
E0E1C0
E071C0
E031C0
E039C0
E019C0
E01DC0
E00FC0
E00FC0
E007C0
E003C0
E003C0
ENDCHAR
STARTCHAR 039E
ENCODING 926
SWIDTH 1000 0
DWIDTH 32 0
BBX 18 22 7 2
BITMAP
FFFFC0
FFFFC0
FFFFC0
000000
000000
000000
000000
000000
000000
3FFF00
3FFF00
3FFF00
000000
000000
000000
000000
000000
000000
000000
FFFFC0
FFFFC0
FFFFC0
ENDCHAR
STARTCHAR 039F
ENCODING 927
SWIDTH 1000 0
DWIDTH 32 0
BBX 20 24 6 1
BITMAP
01F800
07FE00
0F0F00
1C0380
3801C0
7801C0
7000E0
7000E0
E00070
E00070
E00070
E00070
E00070
E00070
E00070
E00070
7000E0
7000E0
7801E0
3801C0
1C0380
0F0F00
07FE00
01F800
ENDCHAR
STARTCHAR 03A0
ENCODING 928
SWIDTH 1000 0
DWIDTH 32 0
BBX 18 22 7 2
BITMAP
FFFFC0
FFFFC0
FFFFC0
E001C0
E001C0
E001C0
E001C0
E001C0
E001C0
E001C0
E001C0
E001C0
E001C0
E001C0
E001C0
E001C0
E001C0
E001C0
E001C0
E001C0
E001C0
E001C0
ENDCHAR
STARTCHAR 03A1
ENCODING 929
SWIDTH 1000 0
DWIDTH 32 0
BBX 17 22 8 2
BITMAP
FFF800
FFFE00
FFFF00
E00F00
E00780
E00380
E00380
E00380
E00780
E00F00
FFFF00
FFFE00
FFF800
E00000
E00000
E00000
E00000
E00000
E00000
E00000
E00000
E00000
ENDCHAR
STARTCHAR 03A3
ENCODING 931
SWIDTH 1000 0
DWIDTH 32 0
BBX 20 22 6 2
BITMAP
FFFFE0
FFFFE0
FFFFE0
700000
380000
1E0000
0F0000
038000
01C000
00F000
007800
00F000
01E000
03C000
070000
0E0000
1C0000
380000
700000
FFFFF0
FFFFF0
FFFFF0
ENDCHAR
STARTCHAR 03A4
ENCODING 932
SWIDTH 1000 0
DWIDTH 32 0
BBX 20 22 6 2
BITMAP
FFFFF0
FFFFF0
FFFFF0
007000
007000
007000
007000
007000
007000
007000
007000
007000
007000
007000
007000
007000
007000
007000
007000
007000
007000
007000
ENDCHAR
STARTCHAR 03A5
ENCODING 933
SWIDTH 1000 0
DWIDTH 32 0
BBX 21 22 6 2
BITMAP
F00078
7800F0
3800E0
3C01E0
1E03C0
0E0380
070700
078F00
038E00
01DC00
01FC00
00F800
007000
007000
007000
007000
007000
007000
007000
007000
007000
007000
ENDCHAR
STARTCHAR 03A6
ENCODING 934
SWIDTH 1000 0
DWIDTH 32 0
BBX 23 22 5 2
BITMAP
003800
003800
003800
01FF00
0FFFE0
1FBBF0
3C3878
70381C
F0381E
E0380E
E0380E
E0380E
E0380E
F0381E
70381C
3C3878
1FBBF0
0FFFE0
01FF00
003800
003800
003800
ENDCHAR
STARTCHAR 03A7
ENCODING 935
SWIDTH 1000 0
DWIDTH 32 0
BBX 22 22 5 2
BITMAP
3800F0
1C00E0
1E01E0
0F03C0
070380
038700
03CF00
01CE00
00FC00
007800
007800
00F800
00FC00
01CE00
03CF00
078780
0F03C0
0E01C0
1E01E0
3C00F0
780078
F0003C
ENDCHAR
STARTCHAR 03A8
ENCODING 936
SWIDTH 1000 0
DWIDTH 32 0
BBX 18 22 7 2
BITMAP
E0E1C0
E0E1C0
E0E1C0
E0E1C0
E0E1C0
E0E1C0
E0E1C0
E0E1C0
E0E1C0
E0E1C0
E0E1C0
F0E1C0
70E380
78E780
3FFF00
0FFE00
03F800
00E000
00E000
00E000
00E000
00E000
ENDCHAR
STARTCHAR 03A9
ENCODING 937
SWIDTH 1000 0
DWIDTH 32 0
BBX 22 23 5 2
BITMAP
00FE00
03FF80
0F83C0
1E00F0
1C0070
380038
380038
70001C
70001C
70001C
70001C
70001C
70003C
380038
380078
1C00F0
0E01E0
0787C0
03CF00
01CE00
FFCFFC
FFCFFC
FFCFFC
ENDCHAR
STARTCHAR 03B1
ENCODING 945
SWIDTH 1000 0
DWIDTH 32 0
BBX 20 16 6 2
BITMAP
03F0E0
07F8E0
0E39C0
1C19C0
381B80
301F80
701F00
701E00
E01E00
E01C00
E03C00
E07C70
E0EC60
71CEE0
7F87C0
3E0380
ENDCHAR
STARTCHAR 03B2
ENCODING 946
SWIDTH 1000 0
DWIDTH 32 0
BBX 18 28 6 -3
BITMAP
003E00
00FF00
01C380
0181C0
0301C0
0701C0
0601C0
0601C0
0E03C0
0C0380
1DEF00
1DFE00
18FC00
180E00
380700
380380
300380
300380
300380
780380
7C0700
7E0F00
67FE00
61F800
600000
E00000
E00000
E00000
ENDCHAR
STARTCHAR 03B3
ENCODING 947
SWIDTH 1000 0
DWIDTH 32 0
BBX 18 21 7 -3
BITMAP
0C0000
3F0080
7F81C0
E183C0
E18780
01CF00
01CE00
00DC00
00F800
00F000
00E000
00E000
00C000
01C000
03C000
038000
078000
078000
078000
070000
060000
ENDCHAR
STARTCHAR 03B4
ENCODING 948
SWIDTH 1000 0
DWIDTH 32 0
BBX 17 24 8 1
BITMAP
03C000
07F000
0E3C00
0E1E00
0E0780
070300
078000
03C000
01E000
01F000
0FF800
1C3800
381C00
701C00
701C00
E01C00
E01C00
E01C00
E03800
E03800
707000
70E000
3FC000
1F8000
ENDCHAR
STARTCHAR 03B5
ENCODING 949
SWIDTH 1000 0
DWIDTH 32 0
BBX 14 16 9 2
BITMAP
1FE0
3FF8
703C
7008
7000
3000
1FC0
3FE0
7BC0
F000
E000
E010
E038
F0F8
7FE0
1F80
ENDCHAR
STARTCHAR 03B6
ENCODING 950
SWIDTH 1000 0
DWIDTH 32 0
BBX 16 28 9 -3
BITMAP
0007
0E1F
1C3E
187C
18F8
1FE0
0780
0700
0E00
1C00
1C00
3800
3800
7000
7000
6000
E000
E000
E000
FF00
3FE0
01F0
0070
0070
2070
38F0
3FE0
0F80
ENDCHAR
STARTCHAR 03B7
ENCODING 951
SWIDTH 1000 0
DWIDTH 32 0
BBX 17 21 7 -3
BITMAP
1C1E00
3E7F00
7EFF80
E3C380
C38380
030380
070380
060300
060700
0E0700
0C0700
0C0700
1C0600
180E00
380E00
380E00
000E00
001C00
001C00
001C00
001C00
ENDCHAR
STARTCHAR 03B8
ENCODING 952
SWIDTH 1000 0
DWIDTH 32 0
BBX 16 24 8 1
BITMAP
00F0
03FC
071C
0E0E
1C06
1807
3807
3007
7007
7007
6007
FFFF
FFFF
FFFE
E006
E00E
E00C
E00C
E01C
6038
7030
38E0
3FC0
0F80
ENDCHAR
STARTCHAR 03B9
ENCODING 953
SWIDTH 1000 0
DWIDTH 32 0
BBX 11 16 10 1
BITMAP
0700
0E00
0E00
1C00
1C00
3800
3800
7000
7000
7000
E040
E0E0
E1C0
E3C0
7F00
3E00
ENDCHAR
STARTCHAR 03BA
ENCODING 954
SWIDTH 1000 0
DWIDTH 32 0
BBX 16 17 8 1
BITMAP
0001
0E07
0C1F
1C3E
1CF8
19E0
1F80
3E00
3F80
3180
71C0
71C3
71C3
60C7
E0CE
E0FC
0078
ENDCHAR
STARTCHAR 03BB
ENCODING 955
SWIDTH 1000 0
DWIDTH 32 0
BBX 17 23 7 2
BITMAP
03C000
0FF000
1C7000
383800
103800
003800
003800
003800
003800
007800
00F800
00F800
01D800
039800
039800
071C00
0E1C00
1C0C00
1C0E00
380E00
700700
F00700
E00380
ENDCHAR
STARTCHAR 03BC
ENCODING 956
SWIDTH 1000 0
DWIDTH 32 0
BBX 21 20 6 -3
BITMAP
060180
0E0380
0E0380
0E0380
0E0300
0C0300
1C0700
1C0700
1C0600
1C0600
3C0E18
3C0E18
341E38
363670
77F3E0
73C3C0
600000
600000
E00000
E00000
ENDCHAR
STARTCHAR 03BD
ENCODING 957
SWIDTH 1000 0
DWIDTH 32 0
BBX 15 17 9 0
BITMAP
2000
E00E
700E
700E
780E
380C
381C
381C
3838
3838
3870
30F0
31E0
7780
7F00
7C00
E000
ENDCHAR
STARTCHAR 03BE
ENCODING 958
SWIDTH 1000 0
DWIDTH 32 0
BBX 15 28 8 -3
BITMAP
063E
07FE
03FC
0700
0E00
1C00
1C00
1C00
1C00
0E38
07FC
07F8
1E00
7800
7000
E000
E000
E000
F800
7F80
3FF0
07F8
003C
001C
001C
3838
3FF8
0FE0
ENDCHAR
STARTCHAR 03BF
ENCODING 959
SWIDTH 1000 0
DWIDTH 32 0
BBX 14 16 9 2
BITMAP
07F0
1FF8
3C38
381C
701C
701C
E01C
E01C
E01C
E03C
E038
E038
7070
70E0
3FC0
1F80
ENDCHAR
STARTCHAR 03C0
ENCODING 960
SWIDTH 1000 0
DWIDTH 32 0
BBX 19 17 7 2
BITMAP
0000C0
1FFFE0
7FFFC0
FFFF80
671C00
461800
061800
0E3800
0C3800
1C3800
1C3000
187040
3870E0
3870C0
707180
707F00
003E00
ENDCHAR
STARTCHAR 03C1
ENCODING 961
SWIDTH 1000 0
DWIDTH 32 0
BBX 16 20 7 -2
BITMAP
01F8
03FC
070E
0E06
1C07
1C07
3807
3807
3807
3807
780E
780E
6C1C
6E3C
67F8
63E0
E000
E000
E000
E000
ENDCHAR
STARTCHAR 03C2
ENCODING 962
SWIDTH 500 0
DWIDTH 16 0
BBX 12 20 2 -3
BITMAP
0F80
1FE0
38F0
7070
6030
6020
6000
6000
3000
3800
1C00
0E00
0700
0300
0380
0180
4180
E380
7F00
3E00
ENDCHAR
STARTCHAR 03C3
ENCODING 963
SWIDTH 1000 0
DWIDTH 32 0
BBX 17 16 9 1
BITMAP
03FF80
0FFF80
1FFF00
3C3800
783800
701C00
F01C00
E01C00
E01C00
E01C00
E03800
E03800
607000
70F000
3FC000
0F8000
ENDCHAR
STARTCHAR 03C4
ENCODING 964
SWIDTH 1000 0
DWIDTH 32 0
BBX 17 17 8 2
BITMAP
000100
3FFF80
FFFF00
7D8000
438000
038000
030000
070000
070000
070000
0E0000
0E0000
0E0800
0E1C00
0E3800
07F000
03C000
ENDCHAR
STARTCHAR 03C5
ENCODING 965
SWIDTH 1000 0
DWIDTH 32 0
BBX 17 16 7 2
BITMAP
3F0600
7F0700
E70700
C70380
0F0380
0E0380
0E0380
1C0380
1C0380
380300
380700
380E00
380E00
1C3C00
1FF000
07C000
ENDCHAR
STARTCHAR 03C6
ENCODING 966
SWIDTH 1000 0
DWIDTH 32 0
BBX 18 26 7 -3
BITMAP
001800
001800
003800
003800
003000
007000
07FC00
1FFF00
3C6780
786380
70E1C0
E0C1C0
E0C1C0
E0C1C0
E1C1C0
E181C0
E18380
718780
7B8F00
3FFE00
0FF800
070000
070000
070000
060000
0E0000
ENDCHAR
STARTCHAR 03C7
ENCODING 967
SWIDTH 1000 0
DWIDTH 32 0
BBX 17 21 7 -3
BITMAP
040000
1F0380
3F0700
738E00
218E00
019C00
01B800
01F000
01F000
00E000
01C000
03C000
03C000
07C000
0EE000
0C6100
1C6100
386380
707700
703E00
E01C00
ENDCHAR
STARTCHAR 03C8
ENCODING 968
SWIDTH 1000 0
DWIDTH 32 0
BBX 19 26 6 -3
BITMAP
000C00
000C00
001C00
001C00
001800
001800
063880
1F3980
3C31C0
7871C0
7070E0
F060E0
E060E0
E0E0E0
E0E0E0
E0C1E0
F0C1C0
71C3C0
3DCF80
1FFF00
07FC00
038000
038000
030000
070000
070000
ENDCHAR
STARTCHAR 03C9
ENCODING 969
SWIDTH 1000 0
DWIDTH 32 0
BBX 21 16 5 2
BITMAP
030060
0780E0
0E0070
1C0070
381838
781838
703838
F03838
E03038
E03038
E07038
E07070
E0F070
7198E0
7F1FC0
1E0F80
ENDCHAR
STARTCHAR 0401
ENCODING 1025
SWIDTH 1000 0
DWIDTH 32 0
BBX 17 26 8 2
BITMAP
1C3800
1C3800
1C3800
000000
FFFF00
FFFF00
FFFF00
E00000
E00000
E00000
E00000
E00000
E00000
FFFE00
FFFE00
FFFE00
E00000
E00000
E00000
E00000
E00000
E00000
E00000
FFFF80
FFFF80
FFFF80
ENDCHAR
STARTCHAR 0410
ENCODING 1040
SWIDTH 1000 0
DWIDTH 32 0
BBX 20 22 6 2
BITMAP
00F000
01F800
01F800
019800
039C00
039C00
070C00
070E00
070E00
0E0700
0E0700
0E0700
1C0380
1FFF80
3FFFC0
3FFFC0
3801C0
7801E0
7000E0
F000F0
E00070
E00070
ENDCHAR
STARTCHAR 0411
ENCODING 1041
SWIDTH 1000 0
DWIDTH 32 0
BBX 18 22 8 2
BITMAP
FFFF80
FFFF80
FFFF80
E00000
E00000
E00000
E00000
E00000
E00000
FFF800
FFFE00
FFFF80
E00780
E003C0
E001C0
E001C0
E001C0
E003C0
E00780
FFFF80
FFFE00
FFF800
ENDCHAR
STARTCHAR 0412
ENCODING 1042
SWIDTH 1000 0
DWIDTH 32 0
BBX 18 22 8 2
BITMAP
FFF800
FFFE00
FFFF00
E00780
E00380
E00380
E00380
E00380
E00F00
FFFE00
FFFC00
FFFF00
E00780
E003C0
E001C0
E001C0
E001C0
E003C0
E00780
FFFF80
FFFF00
FFFC00
ENDCHAR
STARTCHAR 0413
ENCODING 1043
SWIDTH 1000 0
DWIDTH 32 0
BBX 17 22 8 2
BITMAP
FFFF80
FFFF80
FFFF80
E00000
E00000
E00000
E00000
E00000
E00000
E00000
E00000
E00000
E00000
E00000
E00000
E00000
E00000
E00000
E00000
E00000
E00000
E00000
ENDCHAR
STARTCHAR 0414
ENCODING 1044
SWIDTH 1000 0
DWIDTH 32 0
BBX 22 26 5 -2
BITMAP
03FFE0
03FFE0
03FFE0
0380E0
0380E0
0380E0
0380E0
0300E0
0300E0
0700E0
0700E0
0700E0
0700E0
0600E0
0E00E0
0E00E0
1C00E0
1C00E0
1C00E0
FFFFFC
FFFFFC
FFFFFC
E0001C
E0001C
E0001C
E0001C
ENDCHAR
STARTCHAR 0415
ENCODING 1045
SWIDTH 1000 0
DWIDTH 32 0
BBX 17 22 8 2
BITMAP
FFFF00
FFFF00
FFFF00
E00000
E00000
E00000
E00000
E00000
E00000
FFFE00
FFFE00
FFFE00
E00000
E00000
E00000
E00000
E00000
E00000
E00000
FFFF80
FFFF80
FFFF80
ENDCHAR
STARTCHAR 0416
ENCODING 1046
SWIDTH 1000 0
DWIDTH 32 0
BBX 25 22 4 2
BITMAP
701C0700
701C0700
301C0600
381C0E00
381C0E00
181C0C00
1C1C1C00
0E1C3800
0F9CF800
07FFF000
03FFE000
039CE000
071C7000
071C7000
0E1C3800
1C1C1C00
1C1C1C00
381C0E00
781C0F00
701C0700
E01C0380
E01C0380
ENDCHAR
STARTCHAR 0417
ENCODING 1047
SWIDTH 1000 0
DWIDTH 32 0
BBX 18 24 7 1
BITMAP
03F000
0FFC00
1E0F00
380700
700380
700380
000380
000380
000700
000F00
01FE00
01FC00
01FF00
000780
000380
0001C0
0001C0
0001C0
E001C0
F003C0
700380
3C0F00
1FFE00
07F800
ENDCHAR
STARTCHAR 0418
ENCODING 1048
SWIDTH 1000 0
DWIDTH 32 0
BBX 18 22 7 2
BITMAP
E001C0
E001C0
E001C0
E003C0
E007C0
E00FC0
E00FC0
E01DC0
E039C0
E071C0
E0E1C0
E1C1C0
E381C0
E701C0
EE01C0
FC01C0
F801C0
F001C0
E001C0
E001C0
E001C0
E001C0
ENDCHAR
STARTCHAR 0419
ENCODING 1049
SWIDTH 1000 0
DWIDTH 32 0
BBX 18 26 7 2
BITMAP
0C0C00
0C0C00
061800
07F800
E1E1C0
E001C0
E001C0
E003C0
E007C0
E00FC0
E01FC0
E03DC0
E079C0
E071C0
E0E1C0
E1C1C0
E381C0
E701C0
EE01C0
FC01C0
F801C0
F001C0
E001C0
E001C0
E001C0
E001C0
ENDCHAR
STARTCHAR 041A
ENCODING 1050
SWIDTH 1000 0
DWIDTH 32 0
BBX 19 22 7 2
BITMAP
E001C0
E00380
E00380
E00380
E00700
E00700
E00E00
E03C00
E0F800
FFF000
FFE000
FE7000
E07800
E03800
E01C00
E00E00
E00F00
E00700
E00380
E003C0
E001E0
E000E0
ENDCHAR
STARTCHAR 041B
ENCODING 1051
SWIDTH 1000 0
DWIDTH 32 0
BBX 22 23 3 1
BITMAP
007FFC
007FFC
007FFC
00701C
00701C
00701C
00701C
00701C
00701C
00701C
00701C
00701C
00701C
00701C
00E01C
00E01C
00E01C
E0E01C
E0C01C
71C01C
73801C
3F801C
1E0000
ENDCHAR
STARTCHAR 041C
ENCODING 1052
SWIDTH 1000 0
DWIDTH 32 0
BBX 22 22 5 2
BITMAP
F8007C
F8007C
F8007C
FC00FC
EC00DC
EC00DC
EE01DC
E6019C
E6019C
E7039C
E3031C
E3031C
E3871C
E1861C
E18E1C
E1CE1C
E0CC1C
E0DC1C
E0FC1C
E0781C
E0781C
E0781C
ENDCHAR
STARTCHAR 041D
ENCODING 1053
SWIDTH 1000 0
DWIDTH 32 0
BBX 18 22 7 2
BITMAP
E001C0
E001C0
E001C0
E001C0
E001C0
E001C0
E001C0
E001C0
E001C0
FFFFC0
FFFFC0
FFFFC0
E001C0
E001C0
E001C0
E001C0
E001C0
E001C0
E001C0
E001C0
E001C0
E001C0
ENDCHAR
STARTCHAR 041E
ENCODING 1054
SWIDTH 1000 0
DWIDTH 32 0
BBX 20 24 6 1
BITMAP
01F800
07FE00
0F0F00
1C0380
3801C0
7801C0
7000E0
7000E0
E00070
E00070
E00070
E00070
E00070
E00070
E00070
E00070
7000E0
7000E0
7801E0
3801C0
1C0380
0F0F00
07FE00
01F800
ENDCHAR
STARTCHAR 041F
ENCODING 1055
SWIDTH 1000 0
DWIDTH 32 0
BBX 18 22 7 2
BITMAP
FFFFC0
FFFFC0
FFFFC0
E001C0
E001C0
E001C0
E001C0
E001C0
E001C0
E001C0
E001C0
E001C0
E001C0
E001C0
E001C0
E001C0
E001C0
E001C0
E001C0
E001C0
E001C0
E001C0
ENDCHAR
STARTCHAR 0420
ENCODING 1056
SWIDTH 1000 0
DWIDTH 32 0
BBX 17 22 8 2
BITMAP
FFF800
FFFE00
FFFF00
E00F00
E00780
E00380
E00380
E00380
E00780
E00F00
FFFF00
FFFE00
FFF800
E00000
E00000
E00000
E00000
E00000
E00000
E00000
E00000
E00000
ENDCHAR
STARTCHAR 0421
ENCODING 1057
SWIDTH 1000 0
DWIDTH 32 0
BBX 21 24 5 1
BITMAP
00FC00
07FF00
0F83C0
1E01C0
3C00E0
380070
780070
700078
F00000
E00000
E00000
E00000
E00000
E00000
E00000
E00000
600038
700038
700070
3800F0
1C01E0
0F03C0
07FF80
01FC00
ENDCHAR
STARTCHAR 0422
ENCODING 1058
SWIDTH 1000 0
DWIDTH 32 0
BBX 20 22 6 2
BITMAP
FFFFF0
FFFFF0
FFFFF0
007000
007000
007000
007000
007000
007000
007000
007000
007000
007000
007000
007000
007000
007000
007000
007000
007000
007000
007000
ENDCHAR
STARTCHAR 0423
ENCODING 1059
SWIDTH 1000 0
DWIDTH 32 0
BBX 19 22 7 2
BITMAP
F000E0
7001E0
3801C0
3801C0
1C0380
1C0380
0E0700
0E0700
070E00
070E00
038E00
019C00
01DC00
00F800
00F800
007000
007000
00E000
01E000
7FC000
7FC000
7F0000
ENDCHAR
STARTCHAR 0424
ENCODING 1060
SWIDTH 1000 0
DWIDTH 32 0
BBX 23 22 5 2
BITMAP
003800
003800
003800
01FF00
0FFFE0
1FBBF0
3C3878
70381C
F0381E
E0380E
E0380E
E0380E
E0380E
F0381E
70381C
3C3878
1FFFF0
07FFE0
00FF00
003800
003800
003800
ENDCHAR
STARTCHAR 0425
ENCODING 1061
SWIDTH 1000 0
DWIDTH 32 0
BBX 22 22 5 2
BITMAP
3800F0
1C00E0
1E01E0
0F03C0
070380
038700
03CF00
01CE00
00FC00
007800
007800
00F800
00FC00
01CE00
03CF00
078780
0F03C0
0E01C0
1E01E0
3C00F0
780078
F0003C
ENDCHAR
STARTCHAR 0426
ENCODING 1062
SWIDTH 1000 0
DWIDTH 32 0
BBX 21 26 7 -2
BITMAP
E00380
E00380
E00380
E00380
E00380
E00380
E00380
E00380
E00380
E00380
E00380
E00380
E00380
E00380
E00380
E00380
E00380
E00380
E00380
FFFFF8
FFFFF8
FFFFF8
000038
000038
000038
000038
ENDCHAR
STARTCHAR 0427
ENCODING 1063
SWIDTH 1000 0
DWIDTH 32 0
BBX 16 22 8 2
BITMAP
E007
E007
E007
E007
E007
E007
E007
E007
E007
E007
E00F
F01F
783F
3FF7
1F87
0007
0007
0007
0007
0007
0007
0007
ENDCHAR
STARTCHAR 0428
ENCODING 1064
SWIDTH 1000 0
DWIDTH 32 0
BBX 22 22 5 2
BITMAP
E0381C
E0381C
E0381C
E0381C
E0381C
E0381C
E0381C
E0381C
E0381C
E0381C
E0381C
E0381C
E0381C
E0381C
E0381C
E0381C
E0381C
E0381C
E0381C
FFFFFC
FFFFFC
FFFFFC
ENDCHAR
STARTCHAR 0429
ENCODING 1065
SWIDTH 1000 0
DWIDTH 32 0
BBX 25 26 4 -2
BITMAP
E0380E00
E0380E00
E0380E00
E0380E00
E0380E00
E0380E00
E0380E00
E0380E00
E0380E00
E0380E00
E0380E00
E0380E00
E0380E00
E0380E00
E0380E00
E0380E00
E0380E00
E0380E00
E0380E00
FFFFFF80
FFFFFF80
FFFFFF80
00000380
00000380
00000380
00000380
ENDCHAR
STARTCHAR 042A
ENCODING 1066
SWIDTH 1000 0
DWIDTH 32 0
BBX 23 22 4 2
BITMAP
FF8000
FF8000
FF8000
038000
038000
038000
038000
038000
038000
03FFC0
03FFF8
03FFFC
03803C
03801E
03800E
03800E
03800E
03801E
03803C
03FFF8
03FFF0
03FFC0
ENDCHAR
STARTCHAR 042B
ENCODING 1067
SWIDTH 1000 0
DWIDTH 32 0
BBX 20 22 6 2
BITMAP
E00070
E00070
E00070
E00070
E00070
E00070
E00070
E00070
E00070
FFC070
FFF870
FFFC70
E03C70
E01E70
E00E70
E00E70
E00E70
E01E70
E03C70
FFFC70
FFF070
FFC070
ENDCHAR
STARTCHAR 042C
ENCODING 1068
SWIDTH 1000 0
DWIDTH 32 0
BBX 18 22 8 2
BITMAP
E00000
E00000
E00000
E00000
E00000
E00000
E00000
E00000
E00000
FFF800
FFFE00
FFFF80
E00780
E003C0
E001C0
E001C0
E001C0
E003C0
E00780
FFFF80
FFFF00
FFF800
ENDCHAR
STARTCHAR 042D
ENCODING 1069
SWIDTH 1000 0
DWIDTH 32 0
BBX 20 24 6 1
BITMAP
01F800
0FFE00
1E0F00
3C0380
7801C0
7001C0
F000E0
0000E0
000070
000070
0F0070
1FC670
10FE70
003C70
000070
000070
0000E0
E000E0
7000E0
7001C0
380380
1E0F00
0FFE00
03F800
ENDCHAR
STARTCHAR 042E
ENCODING 1070
SWIDTH 1000 0
DWIDTH 32 0
BBX 24 24 5 1
BITMAP
000FC0
E03FF0
E07878
E0701C
E0E01C
E1C00E
E1C00E
E18006
E18007
E38007
FF8007
FF8007
FF8007
E38007
E38007
E18007
E1C00E
E1C00E
E0C00E
E0E01C
E0703C
E07878
E03FF0
000FC0
ENDCHAR
STARTCHAR 042F
ENCODING 1071
SWIDTH 1000 0
DWIDTH 32 0
BBX 18 22 6 2
BITMAP
07FFC0
1FFFC0
3FFFC0
7C01C0
7001C0
7001C0
7001C0
7001C0
3C01C0
3FFFC0
1FFFC0
03FFC0
03C1C0
0381C0
0781C0
0701C0
0E01C0
1E01C0
1C01C0
3801C0
7801C0
F001C0
ENDCHAR
STARTCHAR 0430
ENCODING 1072
SWIDTH 1000 0
DWIDTH 32 0
BBX 16 16 8 1
BITMAP
0FE0
3FF0
7038
6038
E01C
001C
03FC
1FFC
7E1C
701C
E01C
E01C
E03C
F0FC
7FDF
3F0F
ENDCHAR
STARTCHAR 0431
ENCODING 1073
SWIDTH 1000 0
DWIDTH 32 0
BBX 14 23 9 1
BITMAP
003C
00F8
03F0
0FC0
1E00
3800
3000
6100
6FE0
DFF0
F878
F038
E01C
E01C
E01C
E01C
E01C
E01C
7038
7038
3870
1FE0
0FC0
ENDCHAR
STARTCHAR 0432
ENCODING 1074
SWIDTH 1000 0
DWIDTH 32 0
BBX 13 15 10 2
BITMAP
FFC0
FFF0
FFF8
E078
E038
E078
FFF0
FFC0
FFF0
E078
E038
E078
FFF8
FFF0
FFC0
ENDCHAR
STARTCHAR 0433
ENCODING 1075
SWIDTH 1000 0
DWIDTH 32 0
BBX 13 15 10 2
BITMAP
FFF8
FFF8
FFF8
E000
E000
E000
E000
E000
E000
E000
E000
E000
E000
E000
E000
ENDCHAR
STARTCHAR 0434
ENCODING 1076
SWIDTH 1000 0
DWIDTH 32 0
BBX 17 19 7 -2
BITMAP
07FE00
07FE00
07FE00
070E00
060E00
060E00
0E0E00
0E0E00
0C0E00
0C0E00
1C0E00
180E00
FFFF80
FFFF80
FFFF80
E00380
E00380
E00380
E00380
ENDCHAR
STARTCHAR 0435
ENCODING 1077
SWIDTH 1000 0
DWIDTH 32 0
BBX 16 16 8 1
BITMAP
0180
0FF0
1818
300C
6006
6006
FFFE
FFFF
FFFF
E000
E007
600E
700E
3C3C
1FF8
07E0
ENDCHAR
STARTCHAR 0436
ENCODING 1078
SWIDTH 1000 0
DWIDTH 32 0
BBX 21 15 6 2
BITMAP
707070
707070
707060
3870E0
3C71C0
1E73C0
0FFF80
0FFF80
0E7380
1C71C0
1C71C0
3870E0
707070
707070
E07038
ENDCHAR
STARTCHAR 0437
ENCODING 1079
SWIDTH 1000 0
DWIDTH 32 0
BBX 14 16 8 2
BITMAP
0FC0
3FF0
7838
7038
0038
0078
07F0
07E0
07F8
003C
001C
001C
F01C
7838
3FF8
0FE0
ENDCHAR
STARTCHAR 0438
ENCODING 1080
SWIDTH 1000 0
DWIDTH 32 0
BBX 14 15 9 2
BITMAP
E01C
E01C
E03C
E07C
E0FC
E1FC
E3DC
E79C
EF1C
FE1C
FC1C
F81C
F01C
E01C
E01C
ENDCHAR
STARTCHAR 0439
ENCODING 1081
SWIDTH 1000 0
DWIDTH 32 0
BBX 14 20 9 2
BITMAP
3030
3870
1FE0
07C0
0000
E01C
E01C
E03C
E07C
E0FC
E1FC
E3DC
E79C
EF1C
FE1C
FC1C
F81C
F01C
E01C
E01C
ENDCHAR
STARTCHAR 043A
ENCODING 1082
SWIDTH 1000 0
DWIDTH 32 0
BBX 15 15 9 2
BITMAP
E018
E038
E038
E070
E0F0
E1E0
FFC0
FF80
E1C0
E0E0
E070
E078
E038
E01C
E00E
ENDCHAR
STARTCHAR 043B
ENCODING 1083
SWIDTH 1000 0
DWIDTH 32 0
BBX 18 16 5 1
BITMAP
01FFC0
01FFC0
01FFC0
01C1C0
01C1C0
01C1C0
01C1C0
01C1C0
01C1C0
0181C0
0381C0
E381C0
E381C0
E701C0
7F01C0
3C0000
ENDCHAR
STARTCHAR 043C
ENCODING 1084
SWIDTH 1000 0
DWIDTH 32 0
BBX 16 15 8 2
BITMAP
F81F
F81F
F81F
FC3F
EC37
EC37
EC77
E667
E667
E667
E7C7
E3C7
E3C7
E387
E187
ENDCHAR
STARTCHAR 043D
ENCODING 1085
SWIDTH 1000 0
DWIDTH 32 0
BBX 14 15 9 2
BITMAP
E01C
E01C
E01C
E01C
E01C
E01C
FFFC
FFFC
FFFC
E01C
E01C
E01C
E01C
E01C
E01C
ENDCHAR
STARTCHAR 043E
ENCODING 1086
SWIDTH 1000 0
DWIDTH 32 0
BBX 16 16 8 2
BITMAP
0FF0
1FF8
381C
700E
700E
E007
E007
E007
E007
E007
E007
700E
781E
3C3C
1FF8
07E0
ENDCHAR
STARTCHAR 043F
ENCODING 1087
SWIDTH 1000 0
DWIDTH 32 0
BBX 14 15 9 2
BITMAP
FFFC
FFFC
FFFC
E01C
E01C
E01C
E01C
E01C
E01C
E01C
E01C
E01C
E01C
E01C
E01C
ENDCHAR
STARTCHAR 0440
ENCODING 1088
SWIDTH 1000 0
DWIDTH 32 0
BBX 16 21 9 -3
BITMAP
00C0
C7F0
FFFC
F81C
F00E
F00E
E007
E007
E007
E007
E007
E007
F00E
F80E
EC3C
EFF8
E3E0
E000
E000
E000
E000
ENDCHAR
STARTCHAR 0441
ENCODING 1089
SWIDTH 1000 0
DWIDTH 32 0
BBX 16 16 8 2
BITMAP
0FF0
1FF8
381C
700E
700E
E000
E000
E000
E000
E000
E007
700E
780E
3C3C
1FF8
07E0
ENDCHAR
STARTCHAR 0442
ENCODING 1090
SWIDTH 1000 0
DWIDTH 32 0
BBX 14 15 9 2
BITMAP
FFFC
FFFC
FFFC
0380
0380
0380
0380
0380
0380
0380
0380
0380
0380
0380
0380
ENDCHAR
STARTCHAR 0443
ENCODING 1091
SWIDTH 1000 0
DWIDTH 32 0
BBX 17 20 8 -3
BITMAP
F00380
700700
780700
380E00
380E00
1C1C00
1C1C00
0E1800
0E3800
073800
077000
03F000
03E000
01E000
01C000
01C000
038000
7F8000
7F0000
7E0000
ENDCHAR
STARTCHAR 0444
ENCODING 1092
SWIDTH 1000 0
DWIDTH 32 0
BBX 21 27 6 -3
BITMAP
007000
007000
007000
007000
007000
007000
047100
1FFFC0
3FFFE0
70F870
707070
E07038
E07038
E07038
E07038
E07038
E07038
E07038
707070
78F8F0
3FFFE0
1F77C0
007000
007000
007000
007000
007000
ENDCHAR
STARTCHAR 0445
ENCODING 1093
SWIDTH 1000 0
DWIDTH 32 0
BBX 18 15 7 2
BITMAP
780780
3C0F00
1E1E00
0E1C00
073800
03F000
01E000
01E000
03F000
073800
0F3C00
1E1E00
3C0F00
780780
F003C0
ENDCHAR
STARTCHAR 0446
ENCODING 1094
SWIDTH 1000 0
DWIDTH 32 0
BBX 16 19 9 -2
BITMAP
E038
E038
E038
E038
E038
E038
E038
E038
E038
E038
E038
E038
FFFF
FFFF
FFFF
0007
0007
0007
0007
ENDCHAR
STARTCHAR 0447
ENCODING 1095
SWIDTH 1000 0
DWIDTH 32 0
BBX 14 15 9 2
BITMAP
E01C
E01C
E01C
E01C
E01C
E01C
E03C
70FC
7FDC
1F1C
001C
001C
001C
001C
001C
ENDCHAR
STARTCHAR 0448
ENCODING 1096
SWIDTH 1000 0
DWIDTH 32 0
BBX 20 15 6 2
BITMAP
E07070
E07070
E07070
E07070
E07070
E07070
E07070
E07070
E07070
E07070
E07070
E07070
FFFFF0
FFFFF0
FFFFF0
ENDCHAR
STARTCHAR 0449
ENCODING 1097
SWIDTH 1000 0
DWIDTH 32 0
BBX 22 19 6 -2
BITMAP
E07070
E07070
E07070
E07070
E07070
E07070
E07070
E07070
E07070
E07070
E07070
E07070
FFFFFC
FFFFFC
FFFFFC
00001C
00001C
00001C
00001C
ENDCHAR
STARTCHAR 044A
ENCODING 1098
SWIDTH 1000 0
DWIDTH 32 0
BBX 18 15 7 2
BITMAP
FE0000
FE0000
FE0000
0E0000
0E0000
0FFE00
0FFF00
0FFF80
0E03C0
0E01C0
0E01C0
0E03C0
0FFF80
0FFF00
0FFE00
ENDCHAR
STARTCHAR 044B
ENCODING 1099
SWIDTH 1000 0
DWIDTH 32 0
BBX 18 15 7 2
BITMAP
E001C0
E001C0
E001C0
E001C0
E001C0
FFC1C0
FFE1C0
FFF1C0
E079C0
E039C0
E039C0
E079C0
FFF1C0
FFE1C0
FFC1C0
ENDCHAR
STARTCHAR 044C
ENCODING 1100
SWIDTH 1000 0
DWIDTH 32 0
BBX 14 15 9 2
BITMAP
E000
E000
E000
E000
E000
FFE0
FFF8
FFF8
E03C
E01C
E01C
E03C
FFF8
FFF0
FFE0
ENDCHAR
STARTCHAR 044D
ENCODING 1101
SWIDTH 1000 0
DWIDTH 32 0
BBX 16 16 8 2
BITMAP
0FE0
3FF8
783C
701E
E00E
0007
1E07
1FE7
01E7
0007
E007
E00E
701E
383C
1FF8
07E0
ENDCHAR
STARTCHAR 044E
ENCODING 1102
SWIDTH 1000 0
DWIDTH 32 0
BBX 22 16 6 2
BITMAP
E03FC0
E07FE0
E0E070
E1C038
E1C038
E3801C
FF801C
FF801C
FF801C
E3801C
E3801C
E1C038
E1E078
E0F0F0
E07FE0
001F80
ENDCHAR
STARTCHAR 044F
ENCODING 1103
SWIDTH 1000 0
DWIDTH 32 0
BBX 15 15 7 2
BITMAP
07FE
1FFE
3FFE
380E
380E
380E
3FFE
1FFE
07FE
070E
0E0E
1C0E
3C0E
780E
F00E
ENDCHAR
STARTCHAR 0451
ENCODING 1105
SWIDTH 1000 0
DWIDTH 32 0
BBX 16 21 8 1
BITMAP
1C38
1C38
1C38
0000
0000
0180
0FF0
1818
300C
700C
6006
FFFE
FFFE
FFFF
E000
E00E
700E
701C
3C3C
1FF8
07E0
ENDCHAR
STARTCHAR 1E3E
ENCODING 7742
SWIDTH 500 0
DWIDTH 16 0
BBX 12 26 2 2
BITMAP
0380
0600
0C00
0000
E070
E070
E070
E0F0
F0F0
F0F0
F0F0
F0F0
D0B0
D1B0
D9B0
D9B0
D9B0
D9B0
C930
CB30
CF30
CF30
CF30
CF30
C630
C630
ENDCHAR
STARTCHAR 1E3F
ENCODING 7743
SWIDTH 500 0
DWIDTH 16 0
BBX 14 20 1 2
BITMAP
01C0
0380
0600
0000
0000
DE78
FFFC
E38C
C30C
C30C
C30C
C30C
C30C
C30C
C30C
C30C
C30C
C30C
C30C
C30C
ENDCHAR
STARTCHAR 1F70
ENCODING 8048
SWIDTH 500 0
DWIDTH 16 0
BBX 13 20 2 1
BITMAP
0C00
0600
0300
0000
0000
0FB0
3FF0
70F0
6070
E030
C030
C030
C030
C030
C030
E030
6070
70F0
3FF8
0F98
ENDCHAR
STARTCHAR 1F71
ENCODING 8049
SWIDTH 500 0
DWIDTH 16 0
BBX 13 20 2 1
BITMAP
01C0
0380
0600
0000
0000
0FB0
3FF0
70F0
6070
E030
C030
C030
C030
C030
C030
E030
6070
70F0
3FF8
0F98
ENDCHAR
STARTCHAR 1F72
ENCODING 8050
SWIDTH 500 0
DWIDTH 16 0
BBX 12 20 2 2
BITMAP
1C00
0E00
0300
0000
0000
1F80
3FC0
70E0
6070
6000
7000
3F00
3F00
6000
C000
C000
C000
E0F0
7FE0
1F80
ENDCHAR
STARTCHAR 1F73
ENCODING 8051
SWIDTH 500 0
DWIDTH 16 0
BBX 12 20 2 2
BITMAP
0380
0300
0600
0000
0000
1F80
3FC0
70E0
6070
6000
7000
3F00
3F00
6000
C000
C000
C000
E0F0
7FE0
1F80
ENDCHAR
STARTCHAR 2010
ENCODING 8208
SWIDTH 1000 0
DWIDTH 32 0
BBX 10 2 11 11
BITMAP
FFC0
FFC0
ENDCHAR
STARTCHAR 2013
ENCODING 8211
SWIDTH 500 0
DWIDTH 16 0
BBX 6 2 5 11
BITMAP
FC
FC
ENDCHAR
STARTCHAR 2014
ENCODING 8212
SWIDTH 1000 0
DWIDTH 32 0
BBX 28 2 2 11
BITMAP
FFFFFFF0
FFFFFFF0
ENDCHAR
STARTCHAR 2015
ENCODING 8213
SWIDTH 1000 0
DWIDTH 32 0
BBX 28 2 2 11
BITMAP
FFFFFFF0
FFFFFFF0
ENDCHAR
STARTCHAR 2016
ENCODING 8214
SWIDTH 1000 0
DWIDTH 32 0
BBX 10 32 11 -4
BITMAP
C0C0
C0C0
C0C0
C0C0
C0C0
C0C0
C0C0
C0C0
C0C0
C0C0
C0C0
C0C0
C0C0
C0C0
C0C0
C0C0
C0C0
C0C0
C0C0
C0C0
C0C0
C0C0
C0C0
C0C0
C0C0
C0C0
C0C0
C0C0
C0C0
C0C0
C0C0
C0C0
ENDCHAR
STARTCHAR 2018
ENCODING 8216
SWIDTH 1000 0
DWIDTH 32 0
BBX 4 9 26 18
BITMAP
30
30
60
60
C0
F0
F0
F0
F0
ENDCHAR
STARTCHAR 2019
ENCODING 8217
SWIDTH 1000 0
DWIDTH 32 0
BBX 4 9 2 18
BITMAP
F0
F0
F0
F0
30
60
60
C0
C0
ENDCHAR
STARTCHAR 201C
ENCODING 8220
SWIDTH 1000 0
DWIDTH 32 0
BBX 11 9 19 18
BITMAP
3060
3060
60C0
60C0
C180
F1E0
F1E0
F1E0
F1E0
ENDCHAR
STARTCHAR 201D
ENCODING 8221
SWIDTH 1000 0
DWIDTH 32 0
BBX 11 9 2 18
BITMAP
F1E0
F1E0
F1E0
F1E0
3060
60C0
60C0
C180
C180
ENDCHAR
STARTCHAR 2020
ENCODING 8224
SWIDTH 1000 0
DWIDTH 32 0
BBX 16 29 8 -2
BITMAP
0180
03C0
03C0
03C0
03C0
0180
799E
FFFF
FFFF
799E
0180
03C0
03C0
03C0
03C0
0380
0180
0180
0180
0180
0180
0180
0180
0180
0180
0180
0180
0180
0180
ENDCHAR
STARTCHAR 2021
ENCODING 8225
SWIDTH 1000 0
DWIDTH 32 0
BBX 14 30 9 -3
BITMAP
0780
0780
0780
0300
F33C
FFFC
FFFC
F33C
0300
0780
0300
0300
0300
0300
0300
0300
0300
0300
0300
0780
0780
0300
F33C
FFFC
FB7C
0300
0700
0780
0780
0780
ENDCHAR
STARTCHAR 2022
ENCODING 8226
SWIDTH 500 0
DWIDTH 16 0
BBX 7 7 4 9
BITMAP
38
7C
FE
FE
FE
7C
38
ENDCHAR
STARTCHAR 2025
ENCODING 8229
SWIDTH 1000 0
DWIDTH 32 0
BBX 20 4 6 10
BITMAP
F000F0
F000F0
F000F0
F000F0
ENDCHAR
STARTCHAR 2026
ENCODING 8230
SWIDTH 1000 0
DWIDTH 32 0
BBX 24 4 4 10
BITMAP
F03C0F
F03C0F
F03C0F
F03C0F
ENDCHAR
STARTCHAR 2030
ENCODING 8240
SWIDTH 1000 0
DWIDTH 32 0
BBX 29 29 1 -2
BITMAP
00007000
00006000
1E00E000
3F00C000
73018000
61838000
61830000
61870000
61860000
618C0000
619C0000
33980000
3F380000
1E300000
00600000
00E781E0
00CFC3F0
019CC730
01986618
03186618
07186618
06186618
0C186618
0C186618
180CE338
380FC3F0
300781E0
60000000
E0000000
ENDCHAR
STARTCHAR 2032
ENCODING 8242
SWIDTH 1000 0
DWIDTH 32 0
BBX 4 9 2 18
BITMAP
30
30
70
60
60
60
40
C0
C0
ENDCHAR
STARTCHAR 2033
ENCODING 8243
SWIDTH 1000 0
DWIDTH 32 0
BBX 9 9 2 18
BITMAP
3180
3180
7180
6300
6300
6300
4200
C200
C600
ENDCHAR
STARTCHAR 203B
ENCODING 8251
SWIDTH 1000 0
DWIDTH 32 0
BBX 26 26 3 -1
BITMAP
C00000C0
E00C01C0
701E0380
381E0700
1C0C0E00
0E001C00
07003800
03807000
01C0E000
00E1C000
00738000
603F0380
F01E0780
F01E0780
603F0300
00738000
00E1C000
01C0E000
03807000
07003800
0E001C00
1C0C0E00
381E0700
701E0380
E00C01C0
40000080
ENDCHAR
STARTCHAR 203C
ENCODING 8252
SWIDTH 500 0
DWIDTH 16 0
BBX 10 25 3 0
BITMAP
E1C0
E1C0
E1C0
E1C0
E1C0
E1C0
E1C0
E1C0
E1C0
E1C0
E1C0
E1C0
E1C0
E1C0
E1C0
E1C0
E1C0
E1C0
E1C0
0000
0000
E1C0
E1C0
E1C0
E1C0
ENDCHAR
STARTCHAR 203E
ENCODING 8254
SWIDTH 1000 0
DWIDTH 32 0
BBX 32 1 0 27
BITMAP
FFFFFFFF
ENDCHAR
STARTCHAR 203F
ENCODING 8255
SWIDTH 500 0
DWIDTH 16 0
BBX 12 4 2 -3
BITMAP
8010
E070
7FE0
1F80
ENDCHAR
STARTCHAR 2042
ENCODING 8258
SWIDTH 500 0
DWIDTH 16 0
BBX 14 20 1 2
BITMAP
0300
0300
0BC0
0580
0300
0EC0
0B40
0300
0300
0000
0000
3030
3030
F7BC
7CF8
3030
DDEC
B7B4
3030
3030
ENDCHAR
STARTCHAR 2047
ENCODING 8263
SWIDTH 500 0
DWIDTH 16 0
BBX 14 26 1 0
BITMAP
3838
7C78
6ECC
C6CC
C6CC
C6CC
C6CC
060C
0C1C
0C18
1C18
1838
3030
3030
7060
6060
6060
6060
6060
6060
0000
0000
7070
7070
7070
7070
ENDCHAR
STARTCHAR 2048
ENCODING 8264
SWIDTH 500 0
DWIDTH 16 0
BBX 13 25 1 0
BITMAP
3C38
7E38
6738
E338
C338
C338
C338
0338
0638
0638
0E38
0C38
1C38
1838
3838
3838
3818
3010
3010
0000
0000
3838
3838
3838
3838
ENDCHAR
STARTCHAR 2049
ENCODING 8265
SWIDTH 500 0
DWIDTH 16 0
BBX 12 25 2 0
BITMAP
E3C0
E7E0
E760
E630
EE30
EE30
EE30
E030
E070
E060
E060
E0C0
E0C0
E080
E180
E180
6180
4180
4180
0000
0000
E380
E380
E380
E380
ENDCHAR
STARTCHAR 2051
ENCODING 8273
SWIDTH 1000 0
DWIDTH 32 0
BBX 10 25 11 0
BITMAP
0C00
0C00
CCC0
EDC0
7B80
0C00
3B00
EDC0
CCC0
0C00
0C00
0000
0000
0000
0C00
0C00
0C00
CCC0
EB80
1E00
1F00
E9C0
CCC0
0C00
0C00
ENDCHAR
STARTCHAR 20AC
ENCODING 8364
SWIDTH 500 0
DWIDTH 16 0
BBX 13 22 1 2
BITMAP
07C0
0FE0
1C70
1838
1818
3818
3800
3000
FFC0
FFC0
3000
3000
FFC0
FFC0
3000
3800
3818
3818
1838
1C70
0FF0
03C0
ENDCHAR
STARTCHAR 2103
ENCODING 8451
SWIDTH 1000 0
DWIDTH 32 0
BBX 26 25 2 1
BITMAP
38000000
44000000
8207F000
821FFC00
823C1E00
44700700
38E00380
01C00380
01C001C0
01C00000
03800000
03800000
03800000
03800000
03800000
03800000
03800000
038001C0
01C001C0
01C003C0
00E00380
00700700
007C1E00
001FFC00
0007F000
ENDCHAR
STARTCHAR 210F
ENCODING 8463
SWIDTH 500 0
DWIDTH 16 0
BBX 14 22 1 2
BITMAP
0E00
0C00
0C00
1FC0
7F80
5C00
1800
18F0
3BF8
3F1C
3C0C
380C
380C
700C
7018
7018
6018
6038
E030
E030
E070
C070
ENDCHAR
STARTCHAR 2113
ENCODING 8467
SWIDTH 500 0
DWIDTH 16 0
BBX 14 22 1 2
BITMAP
00E0
03F0
0798
0718
0E18
0E18
0C18
0C18
1C38
1830
1830
1870
1860
18E0
18C0
19C0
1B88
1F0C
1E1C
7E38
F7F0
43E0
ENDCHAR
STARTCHAR 2116
ENCODING 8470
SWIDTH 1000 0
DWIDTH 32 0
BBX 28 23 2 1
BITMAP
E0300000
F0300000
F0300000
F0300000
F8300000
D8300000
DC307800
CC30FC00
CE31CE00
CE318600
C7330300
C7330300
C3330300
C3B30300
C1B30300
C1F30300
C0F30300
C0F30300
C0F30300
C0718670
C071CE70
C030FC70
00007800
ENDCHAR
STARTCHAR 2121
ENCODING 8481
SWIDTH 1000 0
DWIDTH 32 0
BBX 28 22 2 2
BITMAP
FFE00000
FFE00000
0E000000
0E000000
0E000000
0E000000
0E3FC600
0E3FC600
0E300600
0E300600
0E300600
0E300600
0E300600
0E3F8600
0E3F8600
0E300600
0E300600
0E300600
0E300600
0E300600
0E3FC7F0
0E3FC7F0
ENDCHAR
STARTCHAR 2127
ENCODING 8487
SWIDTH 500 0
DWIDTH 16 0
BBX 14 22 1 2
BITMAP
FCFC
FCFC
0CC0
0CC0
1860
3030
6038
6018
E018
C00C
C00C
C00C
C00C
C00C
C00C
C00C
6018
6018
7038
3870
1FE0
0FC0
ENDCHAR
STARTCHAR 212B
ENCODING 8491
SWIDTH 1000 0
DWIDTH 32 0
BBX 20 26 6 2
BITMAP
00F000
019800
010800
010800
011800
00F000
000000
00F000
00F000
01F800
019800
039C00
039C00
070E00
070E00
0E0700
0E0700
1C0300
1FFF80
1FFF80
3801C0
3000C0
7000E0
7000E0
E00070
E00070
ENDCHAR
STARTCHAR 2135
ENCODING 8501
SWIDTH 500 0
DWIDTH 16 0
BBX 14 23 1 2
BITMAP
3030
3060
6060
6070
6038
607C
70EC
38CC
1D80
0F80
3F00
63C0
61E0
6070
6038
3018
300C
180C
180C
180C
7818
F038
0030
ENDCHAR
STARTCHAR 2153
ENCODING 8531
SWIDTH 500 0
DWIDTH 16 0
BBX 14 28 1 -2
BITMAP
1818
7818
7810
1830
1820
1860
1860
18C0
18C0
1880
1980
1900
1B00
1B00
0270
06F8
058C
0C0C
0C0C
0808
1870
1018
300C
200C
618C
618C
40F8
C078
ENDCHAR
STARTCHAR 2154
ENCODING 8532
SWIDTH 500 0
DWIDTH 16 0
BBX 14 29 1 -3
BITMAP
3800
7C18
C610
C630
C630
0620
0C60
1C40
38C0
70C0
6080
E180
C100
FF00
0270
06F8
079C
0D8C
0C0C
080C
1818
1870
3018
300C
200C
618C
418C
C1F8
C0F0
ENDCHAR
STARTCHAR 2155
ENCODING 8533
SWIDTH 500 0
DWIDTH 16 0
BBX 15 28 1 -1
BITMAP
1808
7818
7818
1810
1830
1820
1860
1840
18C0
18C0
1980
1980
1900
1B00
02FC
06C0
0480
0C80
0CB8
18FC
188C
1006
3006
2006
6186
40CE
C0FC
4078
ENDCHAR
STARTCHAR 2160
ENCODING 8544
SWIDTH 1000 0
DWIDTH 32 0
BBX 3 22 14 2
BITMAP
E0
E0
E0
E0
E0
E0
E0
E0
E0
E0
E0
E0
E0
E0
E0
E0
E0
E0
E0
E0
E0
E0
ENDCHAR
STARTCHAR 2161
ENCODING 8545
SWIDTH 1000 0
DWIDTH 32 0
BBX 12 22 10 2
BITMAP
E070
E070
E070
E070
E070
E070
E070
E070
E070
E070
E070
E070
E070
E070
E070
E070
E070
E070
E070
E070
E070
E070
ENDCHAR
STARTCHAR 2162
ENCODING 8546
SWIDTH 1000 0
DWIDTH 32 0
BBX 20 22 6 2
BITMAP
E07070
E07070
E07070
E07070
E07070
E07070
E07070
E07070
E07070
E07070
E07070
E07070
E07070
E07070
E07070
E07070
E07070
E07070
E07070
E07070
E07070
E07070
ENDCHAR
STARTCHAR 2163
ENCODING 8547
SWIDTH 1000 0
DWIDTH 32 0
BBX 24 22 5 2
BITMAP
E70007
E78007
E3800E
E3800E
E1C00E
E1C01C
E1C01C
E0E03C
E0E038
E0E038
E07070
E07070
E03870
E038E0
E038E0
E01CE0
E01DC0
E01DC0
E00F80
E00F80
E00780
E00700
ENDCHAR
STARTCHAR 2164
ENCODING 8548
SWIDTH 1000 0
DWIDTH 32 0
BBX 20 22 6 2
BITMAP
E00070
E00070
7000E0
7000E0
7801E0
3801C0
3801C0
1C0380
1C0380
1C0380
0E0700
0E0700
070E00
070E00
070E00
039C00
039C00
01F800
01F800
01F800
00F000
00F000
ENDCHAR
STARTCHAR 2165
ENCODING 8549
SWIDTH 1000 0
DWIDTH 32 0
BBX 24 22 3 2
BITMAP
E000E7
E001E7
7001C7
7001C7
700387
380387
380387
3C0707
1C0707
1C0707
0E0E07
0E0E07
0E1C07
071C07
071C07
073807
03B807
03B807
01F007
01F007
01E007
00E007
ENDCHAR
STARTCHAR 2166
ENCODING 8550
SWIDTH 1000 0
DWIDTH 32 0
BBX 27 22 2 2
BITMAP
E00738E0
E00738E0
700E38E0
700E38E0
700E38E0
301C38E0
381C38E0
381C38E0
381838E0
183838E0
1C3838E0
1C3838E0
0C7038E0
0E7038E0
0E7038E0
0E6038E0
06E038E0
07E038E0
07E038E0
03C038E0
03C038E0
03C038E0
ENDCHAR
STARTCHAR 2167
ENCODING 8551
SWIDTH 1000 0
DWIDTH 32 0
BBX 28 22 1 2
BITMAP
E01CE770
601CE770
701CE770
7018E770
7038E770
3038E770
3038E770
3830E770
3830E770
1870E770
1870E770
1C60E770
1C60E770
0CE0E770
0CE0E770
0EC0E770
0EC0E770
07C0E770
07C0E770
0780E770
0780E770
0380E770
ENDCHAR
STARTCHAR 2168
ENCODING 8552
SWIDTH 1000 0
DWIDTH 32 0
BBX 24 22 5 2
BITMAP
E1E00E
E0E01C
E0701C
E07038
E03878
E03C70
E01CE0
E00FE0
E00FC0
E00780
E00780
E007C0
E00FC0
E01EE0
E01CF0
E03870
E07838
E0703C
E0E01C
E1E01E
E1C00F
E3C007
ENDCHAR
STARTCHAR 2169
ENCODING 8553
SWIDTH 1000 0
DWIDTH 32 0
BBX 22 22 5 2
BITMAP
3800F0
1C00E0
1E01E0
0F03C0
070380
038700
03CF00
01CE00
00FC00
007800
007800
00F800
00FC00
01CE00
03CF00
078780
0F03C0
0E01C0
1E01E0
3C00F0
780078
F0003C
ENDCHAR
STARTCHAR 216A
ENCODING 8554
SWIDTH 1000 0
DWIDTH 32 0
BBX 24 22 3 2
BITMAP
700787
380707
380E07
1C0E07
1E1C07
0E3C07
073807
077007
03F007
03E007
01E007
03E007
03F007
077807
0F3807
0E1C07
1C1E07
3C0E07
380707
700787
F00387
E003C7
ENDCHAR
STARTCHAR 216B
ENCODING 8555
SWIDTH 1000 0
DWIDTH 32 0
BBX 27 22 2 2
BITMAP
700E38E0
381C38E0
381C38E0
1C3838E0
0C3838E0
0E7038E0
067038E0
07E038E0
03E038E0
03C038E0
03C038E0
03C038E0
07E038E0
076038E0
0E7038E0
0E3838E0
1C3838E0
1C1C38E0
381C38E0
780E38E0
700E38E0
E00738E0
ENDCHAR
STARTCHAR 2170
ENCODING 8560
SWIDTH 1000 0
DWIDTH 32 0
BBX 4 22 14 2
BITMAP
E0
E0
E0
00
00
00
00
70
70
70
70
70
70
70
70
70
70
70
70
70
70
70
ENDCHAR
STARTCHAR 2171
ENCODING 8561
SWIDTH 1000 0
DWIDTH 32 0
BBX 12 22 10 2
BITMAP
E070
E070
E070
0000
0000
0000
0000
E070
E070
E070
E070
E070
E070
E070
E070
E070
E070
E070
E070
E070
E070
E070
ENDCHAR
STARTCHAR 2172
ENCODING 8562
SWIDTH 1000 0
DWIDTH 32 0
BBX 18 22 7 2
BITMAP
E0E1C0
E0E1C0
E0E1C0
000000
000000
000000
000000
70E380
70E380
70E380
70E380
70E380
70E380
70E380
70E380
70E380
70E380
70E380
70E380
70E380
70E380
70E380
ENDCHAR
STARTCHAR 2173
ENCODING 8563
SWIDTH 1000 0
DWIDTH 32 0
BBX 20 22 7 2
BITMAP
E00000
E00000
E00000
000000
000000
000000
000000
E70070
E38070
E38070
E1C0E0
E1C0E0
E0C1C0
E0E1C0
E0E180
E07380
E07380
E03F00
E03F00
E01E00
E01E00
E01C00
ENDCHAR
STARTCHAR 2174
ENCODING 8564
SWIDTH 1000 0
DWIDTH 32 0
BBX 16 15 8 2
BITMAP
E007
E007
700E
700E
381C
381C
381C
1C38
1C38
0E70
0E70
07E0
07E0
03C0
03C0
ENDCHAR
STARTCHAR 2175
ENCODING 8565
SWIDTH 1000 0
DWIDTH 32 0
BBX 20 22 5 2
BITMAP
000070
000070
000070
000000
000000
000000
000000
E00E70
E01C70
E01C70
703870
703870
387070
387070
187070
1CE070
1CE070
0FC070
0FC070
078070
078070
038070
ENDCHAR
STARTCHAR 2176
ENCODING 8566
SWIDTH 1000 0
DWIDTH 32 0
BBX 24 22 4 2
BITMAP
0001C7
0001C7
0001C7
000000
000000
000000
000000
C03B8E
E03B8E
60338E
70738E
70738E
30638E
38E38E
38C38E
19C38E
1DC38E
1D838E
0F838E
0F838E
07038E
07038E
ENDCHAR
STARTCHAR 2177
ENCODING 8567
SWIDTH 1000 0
DWIDTH 32 0
BBX 27 22 2 2
BITMAP
0001CEE0
0001CEE0
0001CEE0
00000000
00000000
00000000
00000000
E019DCE0
6039DCE0
7039DCE0
7031DCE0
3071DCE0
3871DCE0
3861DCE0
18E1DCE0
1CC1DCE0
1DC1DCE0
0DC1DCE0
0F81DCE0
0781DCE0
0781DCE0
0701DCE0
ENDCHAR
STARTCHAR 2178
ENCODING 8568
SWIDTH 1000 0
DWIDTH 32 0
BBX 21 22 6 2
BITMAP
E00000
E00000
E00000
000000
000000
000000
000000
E38078
E1C0F0
E0E0E0
E071C0
E07B80
E03F00
E01F00
E01E00
E03F00
E03B80
E071C0
E0E1E0
E1C0F0
E3C078
E78038
ENDCHAR
STARTCHAR 2179
ENCODING 8569
SWIDTH 1000 0
DWIDTH 32 0
BBX 18 15 7 2
BITMAP
780780
3C0F00
1E1E00
0E1C00
073800
03F000
01E000
01E000
03F000
073800
0F3C00
1E1E00
3C0F00
780780
F003C0
ENDCHAR
STARTCHAR 217A
ENCODING 8570
SWIDTH 1000 0
DWIDTH 32 0
BBX 21 22 5 2
BITMAP
000038
000038
000038
000000
000000
000000
000000
F00E38
781C38
383838
1C7038
0EF038
07E038
07C038
03C038
07E038
0EE038
1C7038
3C3838
781C38
F01E38
E00F38
ENDCHAR
STARTCHAR 217B
ENCODING 8571
SWIDTH 1000 0
DWIDTH 32 0
BBX 25 22 3 2
BITMAP
0000E380
0000E380
0000E380
00000000
00000000
00000000
00000000
7038E380
7070E380
3870E380
1CE0E380
0DC0E380
0FC0E380
0780E380
0780E380
0F80E380
0FC0E380
1CE0E380
3870E380
7870E380
7038E380
E01CE380
ENDCHAR
STARTCHAR 2190
ENCODING 8592
SWIDTH 1000 0
DWIDTH 32 0
BBX 28 12 2 6
BITMAP
01C00000
07800000
0F000000
1E000000
38000000
7FFFFFF0
FFFFFFF0
38000000
1E000000
0F000000
07800000
01C00000
ENDCHAR
STARTCHAR 2191
ENCODING 8593
SWIDTH 1000 0
DWIDTH 32 0
BBX 12 28 10 -1
BITMAP
0400
0600
0F00
1F80
3FC0
76E0
76E0
E670
C630
8610
0600
0600
0600
0600
0600
0600
0600
0600
0600
0600
0600
0600
0600
0600
0600
0600
0600
0600
ENDCHAR
STARTCHAR 2192
ENCODING 8594
SWIDTH 1000 0
DWIDTH 32 0
BBX 28 12 2 6
BITMAP
00003800
00001E00
00000F00
00000780
000001C0
FFFFFFE0
FFFFFFF0
000001C0
00000780
00000F00
00001E00
00003800
ENDCHAR
STARTCHAR 2193
ENCODING 8595
SWIDTH 1000 0
DWIDTH 32 0
BBX 12 28 10 -3
BITMAP
0600
0600
0600
0600
0600
0600
0600
0600
0600
0600
0600
0600
0600
0600
0600
0600
0600
0600
8610
C630
E670
76E0
76E0
3FC0
1F80
0F00
0600
0200
ENDCHAR
STARTCHAR 2194
ENCODING 8596
SWIDTH 500 0
DWIDTH 16 0
BBX 14 11 1 7
BITMAP
1860
3870
3030
7018
6018
FFFC
FFFC
6018
7038
3030
1860
ENDCHAR
STARTCHAR 2196
ENCODING 8598
SWIDTH 500 0
DWIDTH 16 0
BBX 12 24 2 1
BITMAP
1000
3C00
3E00
3F80
7DE0
6C60
6E20
C600
C600
C700
8300
0300
0380
0180
0180
01C0
00C0
00E0
0060
0060
0070
0030
0030
0020
ENDCHAR
STARTCHAR 2197
ENCODING 8599
SWIDTH 500 0
DWIDTH 16 0
BBX 12 24 2 1
BITMAP
0080
03C0
07C0
1FC0
7BE0
6360
4760
0730
0630
0E30
0C20
0C00
1C00
1800
1800
3800
3000
7000
7000
6000
E000
C000
C000
4000
ENDCHAR
STARTCHAR 2198
ENCODING 8600
SWIDTH 500 0
DWIDTH 16 0
BBX 12 24 2 1
BITMAP
C000
C000
E000
6000
6000
7000
3000
3000
3800
1800
1800
1C00
0C00
0E20
0E30
0630
8730
4360
7360
3FE0
1FC0
07C0
01C0
0080
ENDCHAR
STARTCHAR 2199
ENCODING 8601
SWIDTH 500 0
DWIDTH 16 0
BBX 12 24 2 1
BITMAP
0030
0030
0070
0070
0060
00E0
00C0
00C0
01C0
0180
0180
0380
0300
8700
C700
C600
CE10
6C20
6CE0
7FC0
3F80
3E00
3800
1000
ENDCHAR
STARTCHAR 21C4
ENCODING 8644
SWIDTH 500 0
DWIDTH 16 0
BBX 12 24 2 0
BITMAP
0380
01C0
00C0
0060
FFF0
FFF0
0070
00E0
00C0
0180
0380
0000
0000
1C00
3800
3000
6000
FFF0
FFF0
E000
7000
3000
1800
1C00
ENDCHAR
STARTCHAR 21D2
ENCODING 8658
SWIDTH 1000 0
DWIDTH 32 0
BBX 28 18 2 3
BITMAP
00003000
00003800
00001C00
00000E00
FFFFFF00
FFFFFF80
000001C0
000000E0
00000070
00000070
000000E0
000001C0
FFFFFF80
FFFFFF00
00000E00
00001C00
00003800
00003000
ENDCHAR
STARTCHAR 21D4
ENCODING 8660
SWIDTH 1000 0
DWIDTH 32 0
BBX 30 18 1 3
BITMAP
00C00C00
01C00E00
03800700
07000380
0FFFFFC0
1FFFFFE0
38000070
70000038
E000001C
E000001C
70000038
38000070
1FFFFFE0
0FFFFFC0
07000380
03800700
01C00E00
00C00C00
ENDCHAR
STARTCHAR 21E6
ENCODING 8678
SWIDTH 500 0
DWIDTH 16 0
BBX 14 10 1 7
BITMAP
0400
0C00
1400
67FC
C004
C004
27FC
1400
0C00
0400
ENDCHAR
STARTCHAR 21E7
ENCODING 8679
SWIDTH 500 0
DWIDTH 16 0
BBX 10 26 3 0
BITMAP
0C00
1E00
1200
3300
6100
4080
C0C0
F3C0
1200
1200
1200
1200
1200
1200
1200
1200
1200
1200
1200
1200
1200
1200
1200
1200
1200
1E00
ENDCHAR
STARTCHAR 21E8
ENCODING 8680
SWIDTH 500 0
DWIDTH 16 0
BBX 14 10 1 7
BITMAP
0080
00C0
00A0
FF90
800C
800C
FF98
00A0
00C0
0080
ENDCHAR
STARTCHAR 21E9
ENCODING 8681
SWIDTH 500 0
DWIDTH 16 0
BBX 10 26 3 -1
BITMAP
1E00
1200
1200
1200
1200
1200
1200
1200
1200
1200
1200
1200
1200
1200
1200
1200
1200
1200
F3C0
C0C0
4080
6180
2300
1200
1E00
0C00
ENDCHAR
STARTCHAR 2200
ENCODING 8704
SWIDTH 1000 0
DWIDTH 32 0
BBX 26 28 3 -3
BITMAP
C00000C0
E00001C0
60000180
70000380
30000300
38000700
18000600
18000600
0C000C00
0C000C00
07FFF800
07FFF800
03003000
03003000
01807000
01806000
01C0E000
00C0C000
00C0C000
00618000
00618000
00330000
00330000
001E0000
001E0000
000C0000
000C0000
00080000
ENDCHAR
STARTCHAR 2202
ENCODING 8706
SWIDTH 1000 0
DWIDTH 32 0
BBX 15 25 7 0
BITMAP
03E0
0FF0
1E38
0C1C
080C
000C
0006
0006
0006
0006
07C6
1FF6
383E
701E
600E
E00E
C00C
C00C
C00C
C018
C018
6030
70E0
3FC0
0F80
ENDCHAR
STARTCHAR 2203
ENCODING 8707
SWIDTH 1000 0
DWIDTH 32 0
BBX 23 24 4 0
BITMAP
FFFFFE
FFFFFE
000006
000006
000006
000006
000006
000006
000006
000006
000006
FFFFFE
FFFFFE
000006
000006
000006
000006
000006
000006
000006
000006
000006
FFFFFE
FFFFFE
ENDCHAR
STARTCHAR 2205
ENCODING 8709
SWIDTH 500 0
DWIDTH 16 0
BBX 14 19 1 2
BITMAP
0010
0018
0030
0FF0
1FF0
38F8
60D8
E1DC
C18C
C30C
C70C
C60C
EE18
7C18
3C70
3FE0
37C0
7000
6000
ENDCHAR
STARTCHAR 2207
ENCODING 8711
SWIDTH 1000 0
DWIDTH 32 0
BBX 24 24 4 -2
BITMAP
FFFFFF
FFFFFF
600006
700006
30000C
38000C
180018
1C0038
0E0030
0E0070
070060
0700E0
0380C0
0381C0
01C180
01C380
00E300
00E700
007600
003C00
003C00
001800
001800
001000
ENDCHAR
STARTCHAR 2208
ENCODING 8712
SWIDTH 1000 0
DWIDTH 32 0
BBX 26 24 3 0
BITMAP
007FFFC0
03FFFFC0
07C00000
1E000000
3C000000
38000000
70000000
60000000
E0000000
E0000000
E0000000
FFFFFFC0
FFFFFFC0
E0000000
E0000000
E0000000
60000000
70000000
38000000
3C000000
1E000000
07C00000
03FFFFC0
007FFFC0
ENDCHAR
STARTCHAR 2209
ENCODING 8713
SWIDTH 500 0
DWIDTH 16 0
BBX 13 23 1 1
BITMAP
00E0
00C0
03F8
0FF8
1CC0
39C0
7180
6180
C180
C380
C300
FFF8
FFF8
C700
C600
C600
6600
7600
3E00
1C00
0FF8
0FF8
1C00
ENDCHAR
STARTCHAR 220B
ENCODING 8715
SWIDTH 1000 0
DWIDTH 32 0
BBX 26 24 3 0
BITMAP
FFFF8000
FFFFF000
00007800
00001E00
00000E00
00000700
00000380
00000180
000001C0
000001C0
000001C0
FFFFFFC0
FFFFFFC0
000001C0
000001C0
000001C0
00000180
00000380
00000700
00000F00
00001E00
0000FC00
FFFFF000
FFFF8000
ENDCHAR
STARTCHAR 2212
ENCODING 8722
SWIDTH 500 0
DWIDTH 16 0
BBX 12 2 2 11
BITMAP
FFF0
FFF0
ENDCHAR
STARTCHAR 2213
ENCODING 8723
SWIDTH 500 0
DWIDTH 16 0
BBX 12 23 2 0
BITMAP
FFF0
FFF0
0000
0000
0000
0000
0600
0600
0600
0600
0600
0600
0600
FFF0
FFF0
0600
0600
0600
0600
0600
0600
0600
0600
ENDCHAR
STARTCHAR 221A
ENCODING 8730
SWIDTH 1000 0
DWIDTH 32 0
BBX 31 30 1 -3
BITMAP
00007FFE
00006000
0000C000
0000C000
0000C000
00018000
00018000
00018000
00030000
00030000
00030000
00060000
00060000
000E0000
000C0000
080C0000
0C1C0000
1C180000
1C180000
3E380000
36300000
37300000
63700000
63600000
C3E00000
41E00000
01C00000
00C00000
00800000
00800000
ENDCHAR
STARTCHAR 221D
ENCODING 8733
SWIDTH 1000 0
DWIDTH 32 0
BBX 27 13 2 6
BITMAP
0F801F00
3FE07F80
70F0E1C0
6039C0E0
C01B8040
C00F0000
C0060000
C00F0000
E01F8000
6039C0E0
7870E1C0
3FE07FC0
0F801F00
ENDCHAR
STARTCHAR 221E
ENCODING 8734
SWIDTH 1000 0
DWIDTH 32 0
BBX 28 13 2 6
BITMAP
0F801F00
3FE07FC0
70F0F1E0
6039C0E0
C01F8070
C00F0030
C00F0030
C00F0030
C01F8030
6039C060
7070E0E0
3FE07FC0
0F801F00
ENDCHAR
STARTCHAR 221F
ENCODING 8735
SWIDTH 1000 0
DWIDTH 32 0
BBX 26 26 4 0
BITMAP
C0000000
C0000000
C0000000
C0000000
C0000000
C0000000
C0000000
C0000000
C0000000
C0000000
C0000000
C0000000
C0000000
C0000000
C0000000
C0000000
C0000000
C0000000
C0000000
C0000000
C0000000
C0000000
C0000000
C0000000
FFFFFFC0
FFFFFFC0
ENDCHAR
STARTCHAR 2220
ENCODING 8736
SWIDTH 1000 0
DWIDTH 32 0
BBX 27 25 2 1
BITMAP
00000040
000000E0
000001C0
00000380
00000700
00000E00
00003C00
00007800
0000F000
0001E000
0003C000
00078000
000F0000
001E0000
003C0000
00780000
00F00000
01E00000
03C00000
07800000
0F000000
1E000000
3C000000
7FFFFFE0
FFFFFFE0
ENDCHAR
STARTCHAR 2225
ENCODING 8741
SWIDTH 1000 0
DWIDTH 32 0
BBX 18 28 7 -1
BITMAP
0030C0
007180
006180
006380
00E300
00C300
00C700
018600
018600
038E00
030C00
030C00
071C00
061800
061800
0E3800
0C3000
0C3000
1C6000
186000
18E000
30C000
30C000
71C000
618000
618000
E38000
410000
ENDCHAR
STARTCHAR 2226
ENCODING 8742
SWIDTH 500 0
DWIDTH 16 0
BBX 14 28 1 -1
BITMAP
030C
0318
0318
0618
0618
0638
0630
4630
EC30
7C30
3C60
1C60
1E60
1F60
1BE0
18C0
18E0
30F8
30DC
31C8
3180
3180
6180
6180
6300
6300
E300
4100
ENDCHAR
STARTCHAR 2227
ENCODING 8743
SWIDTH 1000 0
DWIDTH 32 0
BBX 26 27 3 0
BITMAP
000C0000
000C0000
001C0000
001E0000
001E0000
00330000
00330000
00618000
00618000
00C0C000
00C0C000
01806000
01806000
03003000
03003000
07003800
06001800
0E001C00
0C000C00
1C000E00
18000600
38000700
30000300
70000380
60000180
E00001C0
C00000C0
ENDCHAR
STARTCHAR 2228
ENCODING 8744
SWIDTH 1000 0
DWIDTH 32 0
BBX 26 27 3 -2
BITMAP
C00000C0
E00001C0
60000180
70000380
30000300
38000700
18000600
1C000E00
0C000C00
0E001C00
06001800
07003800
03003000
03003000
01806000
01806000
00C0C000
00C0C000
00618000
00618000
00330000
00330000
001E0000
001E0000
000E0000
000C0000
000C0000
ENDCHAR
STARTCHAR 2229
ENCODING 8745
SWIDTH 1000 0
DWIDTH 32 0
BBX 24 26 4 0
BITMAP
00FF00
03FFC0
0F00F0
1C0038
380018
30000C
70000E
600006
600006
C00003
C00003
C00003
C00003
C00003
C00003
C00003
C00003
C00003
C00003
C00003
C00003
C00003
C00003
C00003
C00003
C00003
ENDCHAR
STARTCHAR 222A
ENCODING 8746
SWIDTH 1000 0
DWIDTH 32 0
BBX 24 26 4 -1
BITMAP
C00003
C00003
C00003
C00003
C00003
C00003
C00003
C00003
C00003
C00003
C00003
C00003
C00003
C00003
C00003
C00003
C00003
600006
600006
70000E
30000C
38001C
1C0038
0F00F0
03FFC0
00FF00
ENDCHAR
STARTCHAR 222B
ENCODING 8747
SWIDTH 1000 0
DWIDTH 32 0
BBX 16 30 8 -3
BITMAP
003C
007E
00E6
00C7
00C3
00C3
00C0
00C0
01C0
01C0
0180
0180
0180
0180
0180
0180
0180
0180
0180
0180
0380
0380
0300
0300
C300
C300
E300
6600
7E00
3C00
ENDCHAR
STARTCHAR 222C
ENCODING 8748
SWIDTH 1000 0
DWIDTH 32 0
BBX 26 30 3 -3
BITMAP
00380F00
007C1F80
00CE19C0
00C618C0
01C638C0
018730C0
01803000
01803000
01803000
01803000
01803000
01803000
01803000
01807000
03807000
03807000
03806000
03006000
03006000
03006000
03006000
03006000
03006000
03006000
C338E000
C718C000
C618C000
E61DC000
7C0F8000
38070000
ENDCHAR
STARTCHAR 222E
ENCODING 8750
SWIDTH 1000 0
DWIDTH 32 0
BBX 16 30 8 -3
BITMAP
003C
007E
0066
00C7
00C3
00C3
00C0
00C0
01C0
01C0
03C0
07E0
0990
1188
1188
1188
1188
0990
0DF0
03C0
0380
0380
0300
0300
C300
C300
E300
6600
7E00
3C00
ENDCHAR
STARTCHAR 2234
ENCODING 8756
SWIDTH 1000 0
DWIDTH 32 0
BBX 20 20 6 2
BITMAP
006000
00F000
00F000
006000
000000
000000
000000
000000
000000
000000
000000
000000
000000
000000
000000
000000
600060
F000F0
F000F0
600060
ENDCHAR
STARTCHAR 2235
ENCODING 8757
SWIDTH 1000 0
DWIDTH 32 0
BBX 20 20 6 2
BITMAP
600060
F000F0
F000F0
600060
000000
000000
000000
000000
000000
000000
000000
000000
000000
000000
000000
000000
006000
00F000
00F000
006000
ENDCHAR
STARTCHAR 223D
ENCODING 8765
SWIDTH 1000 0
DWIDTH 32 0
BBX 28 13 2 6
BITMAP
0F801F00
3FC07FC0
70E0F0E0
6001C060
C0038030
C0070030
C0060030
C00E0030
C01C0030
60380060
707060E0
3FE07FC0
0F801F00
ENDCHAR
STARTCHAR 2243
ENCODING 8771
SWIDTH 500 0
DWIDTH 16 0
BBX 12 10 2 8
BITMAP
7800
FE30
87F0
01E0
0000
0000
0000
0000
FFF0
FFF0
ENDCHAR
STARTCHAR 2245
ENCODING 8773
SWIDTH 500 0
DWIDTH 16 0
BBX 12 14 2 5
BITMAP
7800
FE30
87F0
01E0
0000
0000
0000
FFF0
FFF0
0000
0000
0000
FFF0
FFF0
ENDCHAR
STARTCHAR 2248
ENCODING 8776
SWIDTH 500 0
DWIDTH 16 0
BBX 12 11 2 7
BITMAP
3800
FC00
CE30
03F0
01E0
0000
0000
7800
FE10
C7F0
01E0
ENDCHAR
STARTCHAR 2252
ENCODING 8786
SWIDTH 1000 0
DWIDTH 32 0
BBX 22 22 5 2
BITMAP
070000
078000
078000
078000
000000
000000
000000
FFFFFC
FFFFFC
000000
000000
000000
000000
000000
FFFFFC
FFFFFC
000000
000000
000380
0003C0
0003C0
000380
ENDCHAR
STARTCHAR 2260
ENCODING 8800
SWIDTH 1000 0
DWIDTH 32 0
BBX 22 22 5 1
BITMAP
000180
000380
000300
000600
000600
000C00
FFFFFC
FFFFFC
001800
003800
003000
007000
006000
FFFFFC
FFFFFC
01C000
018000
018000
038000
030000
070000
060000
ENDCHAR
STARTCHAR 2261
ENCODING 8801
SWIDTH 1000 0
DWIDTH 32 0
BBX 22 16 5 4
BITMAP
FFFFFC
FFFFFC
000000
000000
000000
000000
000000
FFFFFC
FFFFFC
000000
000000
000000
000000
000000
FFFFFC
FFFFFC
ENDCHAR
STARTCHAR 2262
ENCODING 8802
SWIDTH 500 0
DWIDTH 16 0
BBX 12 23 2 1
BITMAP
00C0
00C0
0180
0180
FFF0
FFF0
0300
0300
0300
0300
0600
FFF0
FFF0
0600
0C00
0C00
0C00
FFF0
FFF0
1800
1800
3000
3000
ENDCHAR
STARTCHAR 2266
ENCODING 8806
SWIDTH 1000 0
DWIDTH 32 0
BBX 22 25 5 1
BITMAP
00000C
00007C
0003F0
001FC0
007E00
03F000
1F8000
FC0000
7E0000
0F8000
03F000
007E00
000FC0
0001F8
00003C
00000C
000000
000000
FFFFFC
FFFFFC
000000
000000
000000
FFFFFC
FFFFFC
ENDCHAR
STARTCHAR 2267
ENCODING 8807
SWIDTH 1000 0
DWIDTH 32 0
BBX 22 25 5 1
BITMAP
C00000
F80000
3F0000
07E000
01F800
003F00
0007E0
0000FC
0001F8
0007C0
003F00
01F800
0FC000
7E0000
F00000
C00000
000000
000000
FFFFFC
FFFFFC
000000
000000
000000
FFFFFC
FFFFFC
ENDCHAR
STARTCHAR 226A
ENCODING 8810
SWIDTH 1000 0
DWIDTH 32 0
BBX 25 29 3 -2
BITMAP
0001C380
00038700
00070E00
001E1C00
00383800
00707000
00E0E000
01C1C000
03838000
07070000
0E0E0000
1C1C0000
38380000
70700000
E0E00000
70700000
38380000
1C1C0000
0E0E0000
07070000
03838000
01C1C000
00E0E000
00707000
00383800
001E1C00
00070E00
00038700
0001C380
ENDCHAR
STARTCHAR 226B
ENCODING 8811
SWIDTH 1000 0
DWIDTH 32 0
BBX 25 29 4 -2
BITMAP
E1C00000
70E00000
38700000
1C1C0000
0E0E0000
07070000
03838000
01C1C000
00E0E000
00707000
00383800
001C1C00
000E0E00
00070700
00038380
00070700
000E0E00
001C1C00
00383800
00707000
00E0E000
01C1C000
03838000
07070000
0E0E0000
1C3C0000
38700000
70E00000
E1C00000
ENDCHAR
STARTCHAR 2276
ENCODING 8822
SWIDTH 500 0
DWIDTH 16 0
BBX 13 24 1 0
BITMAP
0018
0078
01F0
03C0
0F00
3C00
F800
3C00
0F00
03C0
00F0
6038
7818
1E00
0F80
03C0
00F0
0078
01E0
07C0
0F00
3C00
7000
4000
ENDCHAR
STARTCHAR 2277
ENCODING 8823
SWIDTH 500 0
DWIDTH 16 0
BBX 13 24 2 0
BITMAP
C000
F000
7C00
1E00
0780
01E0
00F8
01E0
0780
1E00
7800
E030
C0F0
03C0
0F80
1E00
7800
F000
3C00
1E00
0780
01E0
0070
0010
ENDCHAR
STARTCHAR 2282
ENCODING 8834
SWIDTH 1000 0
DWIDTH 32 0
BBX 26 24 3 0
BITMAP
007FFFC0
03FFFFC0
07800000
1E000000
38000000
30000000
60000000
60000000
C0000000
C0000000
C0000000
C0000000
C0000000
C0000000
C0000000
C0000000
60000000
60000000
30000000
38000000
1C000000
0F800000
03FFFFC0
007FFFC0
ENDCHAR
STARTCHAR 2283
ENCODING 8835
SWIDTH 1000 0
DWIDTH 32 0
BBX 26 24 3 0
BITMAP
FFFF8000
FFFFF000
0000F800
00001E00
00000700
00000300
00000180
00000180
000000C0
000000C0
000000C0
000000C0
000000C0
000000C0
000000C0
000000C0
00000180
00000180
00000300
00000700
00001E00
00007800
FFFFF000
FFFF8000
ENDCHAR
STARTCHAR 2284
ENCODING 8836
SWIDTH 500 0
DWIDTH 16 0
BBX 13 23 1 1
BITMAP
00E0
00C0
03F8
0FF8
3DC0
39C0
7180
6180
E180
C380
C300
C300
C300
C700
C700
E600
6600
7600
3E00
1C00
0FF8
0FF8
1C00
ENDCHAR
STARTCHAR 2285
ENCODING 8837
SWIDTH 500 0
DWIDTH 16 0
BBX 13 23 2 0
BITMAP
01C0
FF80
FF80
03C0
03E0
0370
0330
0338
0718
0718
0618
0618
0618
0E18
0C38
0C30
0C70
1CE0
1DC0
FF80
FE00
1800
3800
ENDCHAR
STARTCHAR 2286
ENCODING 8838
SWIDTH 1000 0
DWIDTH 32 0
BBX 26 24 3 0
BITMAP
03FFFFC0
0FFFFFC0
1E000000
38000000
60000000
60000000
C0000000
C0000000
C0000000
C0000000
C0000000
C0000000
60000000
60000000
30000000
1C000000
0FFFFFC0
03FFFFC0
00000000
00000000
00000000
00000000
FFFFFFC0
FFFFFFC0
ENDCHAR
STARTCHAR 2287
ENCODING 8839
SWIDTH 1000 0
DWIDTH 32 0
BBX 26 24 3 0
BITMAP
FFFFF000
FFFFFC00
00001E00
00000700
00000180
00000180
000000C0
000000C0
000000C0
000000C0
000000C0
000000C0
00000180
00000180
00000300
00000E00
FFFFFC00
FFFFF000
00000000
00000000
00000000
00000000
FFFFFFC0
FFFFFFC0
ENDCHAR
STARTCHAR 228A
ENCODING 8842
SWIDTH 500 0
DWIDTH 16 0
BBX 12 23 2 0
BITMAP
0FF0
3FF0
7000
6000
E000
C000
C000
C000
C000
C000
C000
6000
7000
3FF0
0FF0
0000
0000
0300
0300
FFF0
FFF0
0C00
0C00
ENDCHAR
STARTCHAR 228B
ENCODING 8843
SWIDTH 500 0
DWIDTH 16 0
BBX 12 23 2 0
BITMAP
FF00
FFC0
00E0
0060
0070
0030
0030
0030
0030
0030
0070
0060
00E0
FFC0
FF00
0000
0000
0300
0300
FFF0
FFF0
0C00
0C00
ENDCHAR
STARTCHAR 2295
ENCODING 8853
SWIDTH 500 0
DWIDTH 16 0
BBX 14 15 1 5
BITMAP
0780
1860
3010
6308
4308
8304
8304
9FE4
8304
8304
4308
4308
2010
1860
0F80
ENDCHAR
STARTCHAR 2296
ENCODING 8854
SWIDTH 500 0
DWIDTH 16 0
BBX 14 13 1 6
BITMAP
0FC0
1820
2010
4008
8004
8004
9FE4
8004
8004
4008
6010
3060
0F80
ENDCHAR
STARTCHAR 2297
ENCODING 8855
SWIDTH 500 0
DWIDTH 16 0
BBX 14 15 1 5
BITMAP
0780
1860
3010
6008
5868
8CC4
8784
8304
8784
8CC4
5868
4008
2010
1860
07C0
ENDCHAR
STARTCHAR 22A5
ENCODING 8869
SWIDTH 1000 0
DWIDTH 32 0
BBX 28 26 2 0
BITMAP
00060000
00060000
00060000
00060000
00060000
00060000
00060000
00060000
00060000
00060000
00060000
00060000
00060000
00060000
00060000
00060000
00060000
00060000
00060000
00060000
00060000
00060000
00060000
00060000
FFFFFFF0
FFFFFFF0
ENDCHAR
STARTCHAR 22BF
ENCODING 8895
SWIDTH 1000 0
DWIDTH 32 0
BBX 26 26 3 1
BITMAP
00000040
000000C0
000001C0
000003C0
000007C0
00000FC0
00001EC0
00003CC0
000078C0
0000F0C0
0001E0C0
0003C0C0
000780C0
000F00C0
001E00C0
003C00C0
007800C0
00F000C0
01E000C0
03C000C0
078000C0
0F0000C0
1E0000C0
3C0000C0
7FFFFFC0
FFFFFFC0
ENDCHAR
STARTCHAR 22DA
ENCODING 8922
SWIDTH 500 0
DWIDTH 16 0
BBX 12 26 2 -1
BITMAP
0030
00F0
07C0
1F00
7800
F000
3E00
0F80
01F0
0070
0010
0000
FFF0
FFF0
0000
8000
E000
F800
1F00
07C0
00F0
01E0
0F80
3E00
F000
C000
ENDCHAR
STARTCHAR 22DB
ENCODING 8923
SWIDTH 500 0
DWIDTH 16 0
BBX 12 26 2 -1
BITMAP
C000
F000
3E00
0F80
01E0
00F0
07C0
1F00
F800
E000
8000
0000
FFF0
FFF0
0000
0010
0070
01F0
0F80
3E00
F000
7800
1F00
07C0
00F0
0030
ENDCHAR
STARTCHAR 2305
ENCODING 8965
SWIDTH 500 0
DWIDTH 16 0
BBX 12 15 2 4
BITMAP
FFF0
FFF0
0000
0600
0600
0F00
0F00
1F80
1980
1980
30C0
30C0
6060
6060
E070
ENDCHAR
STARTCHAR 2306
ENCODING 8966
SWIDTH 500 0
DWIDTH 16 0
BBX 12 20 2 2
BITMAP
FFF0
FFF0
0000
0000
0000
FFF0
FFF0
0000
0600
0600
0F00
0F00
1F80
1980
1980
30C0
30C0
6060
6060
E070
ENDCHAR
STARTCHAR 2312
ENCODING 8978
SWIDTH 1000 0
DWIDTH 32 0
BBX 30 7 1 19
BITMAP
003FF000
03FFFF00
0FC00FC0
3E0001F0
70000038
E000001C
80000004
ENDCHAR
STARTCHAR 2318
ENCODING 8984
SWIDTH 1000 0
DWIDTH 32 0
BBX 28 28 2 -2
BITMAP
3E0007C0
63000C20
C1801C10
81801810
81801810
81801810
C1801870
7FFFFFE0
3FFFFFC0
01801800
01801800
01801800
01801800
01801800
01801800
01801800
01801800
01801800
01801800
3FFFFFC0
7FFFFFE0
E1801870
81801810
81801810
81801810
83801810
43000C20
3E0007C0
ENDCHAR
STARTCHAR 23BE
ENCODING 9150
SWIDTH 1000 0
DWIDTH 32 0
BBX 17 32 15 -4
BITMAP
FFFF80
800000
800000
800000
800000
800000
800000
800000
800000
800000
800000
800000
800000
800000
800000
800000
800000
800000
800000
800000
800000
800000
800000
800000
800000
800000
800000
800000
800000
800000
800000
800000
ENDCHAR
STARTCHAR 23BF
ENCODING 9151
SWIDTH 1000 0
DWIDTH 32 0
BBX 17 32 15 -4
BITMAP
800000
800000
800000
800000
800000
800000
800000
800000
800000
800000
800000
800000
800000
800000
800000
800000
800000
800000
800000
800000
800000
800000
800000
800000
800000
800000
800000
800000
800000
800000
800000
FFFF80
ENDCHAR
STARTCHAR 23C0
ENCODING 9152
SWIDTH 1000 0
DWIDTH 32 0
BBX 25 32 3 -4
BITMAP
00080000
00080000
00080000
00080000
007F0000
01C9E000
06083000
08081800
10080C00
20080600
60080300
40080300
40080100
80080080
80080080
80080080
80080080
80080080
80080080
40080180
40080100
60080300
30080600
18080C00
0C081800
06083000
03C9E000
007F8000
00080000
00080000
00080000
00080000
ENDCHAR
STARTCHAR 23C1
ENCODING 9153
SWIDTH 1000 0
DWIDTH 32 0
BBX 32 32 0 -4
BITMAP
FFFFFFFF
00010000
00010000
00010000
001FF000
00711C00
00C10600
01810180
03010080
02010040
04010060
04010020
08010020
08010010
08010010
08010010
08010010
08010010
08010010
04010020
04010020
04010060
020100C0
03010180
01810300
00C10600
00393C00
000FF000
00010000
00010000
00010000
00010000
ENDCHAR
STARTCHAR 23C2
ENCODING 9154
SWIDTH 1000 0
DWIDTH 32 0
BBX 32 32 0 -4
BITMAP
00010000
00010000
00010000
00010000
000FE000
00393C00
00E10600
01810300
03010080
020100C0
04010060
04010020
0C010020
08010010
08010010
08010010
08010010
08010010
08010010
08010030
04010020
04010060
02010040
030100C0
01810180
00C10700
00711C00
001FF000
00010000
00010000
00010000
FFFFFFFF
ENDCHAR
STARTCHAR 23C3
ENCODING 9155
SWIDTH 1000 0
DWIDTH 32 0
BBX 27 32 2 -4
BITMAP
00040000
00040000
00040000
00040000
00040000
000E0000
000E0000
001F0000
00150000
00358000
00648000
0064C000
00C46000
00842000
01843000
01041000
03041800
06040C00
04040400
0C040600
08040200
18040300
30040100
30040180
600400C0
40040040
FFFFFFE0
00040000
00040000
00040000
00040000
00040000
ENDCHAR
STARTCHAR 23C4
ENCODING 9156
SWIDTH 1000 0
DWIDTH 32 0
BBX 32 32 0 -4
BITMAP
FFFFFFFF
00010000
00010000
00010000
00010000
00038000
00038000
0007C000
00056000
000D6000
00193000
00191000
00311800
00210C00
00610C00
00410600
00C10200
00810300
01810180
03010180
020100C0
06010040
04010060
0C010030
08010030
18010018
3FFFFFF8
00010000
00010000
00010000
00010000
00010000
ENDCHAR
STARTCHAR 23C5
ENCODING 9157
SWIDTH 1000 0
DWIDTH 32 0
BBX 32 32 0 -4
BITMAP
00010000
00010000
00010000
00010000
00010000
00038000
00038000
0007C000
00054000
000D6000
00093000
00191000
00311800
00310800
00610C00
00410600
00C10200
00810300
01810100
03010180
030100C0
06010040
04010060
0C010030
08010030
18010018
3FFFFFF8
00010000
00010000
00010000
00010000
FFFFFFFF
ENDCHAR
STARTCHAR 23C6
ENCODING 9158
SWIDTH 1000 0
DWIDTH 32 0
BBX 27 32 2 -4
BITMAP
00040000
00040000
00040000
00040000
00040000
00040000
00040000
00040000
00040000
00040000
00040000
00040000
1F040000
60E40000
C0340000
000C0000
00060000
00078060
0004E0C0
00043F00
00040000
00040000
00040000
00040000
00040000
00040000
00040000
00040000
00040000
00040000
00040000
00040000
ENDCHAR
STARTCHAR 23C7
ENCODING 9159
SWIDTH 1000 0
DWIDTH 32 0
BBX 32 32 0 -4
BITMAP
FFFFFFFF
00010000
00010000
00010000
00010000
00010000
00010000
00010000
00010000
00010000
00010000
00010000
07E10000
1C390000
300F0000
00030000
00018004
0001600C
00013830
000107C0
00010000
00010000
00010000
00010000
00010000
00010000
00010000
00010000
00010000
00010000
00010000
00010000
ENDCHAR
STARTCHAR 23C8
ENCODING 9160
SWIDTH 1000 0
DWIDTH 32 0
BBX 32 32 0 -4
BITMAP
00010000
00010000
00010000
00010000
00010000
00010000
00010000
00010000
00010000
00010000
00010000
00010000
07E10000
1C390000
300D0000
20030000
00018000
0001E00C
00013838
000107C0
00010000
00010000
00010000
00010000
00010000
00010000
00010000
00010000
00010000
00010000
00010000
FFFFFFFF
ENDCHAR
STARTCHAR 23C9
ENCODING 9161
SWIDTH 1000 0
DWIDTH 32 0
BBX 32 32 0 -4
BITMAP
FFFFFFFF
00010000
00010000
00010000
00010000
00010000
00010000
00010000
00010000
00010000
00010000
00010000
00010000
00010000
00010000
00010000
00010000
00010000
00010000
00010000
00010000
00010000
00010000
00010000
00010000
00010000
00010000
00010000
00010000
00010000
00010000
00010000
ENDCHAR
STARTCHAR 23CA
ENCODING 9162
SWIDTH 1000 0
DWIDTH 32 0
BBX 32 32 0 -4
BITMAP
00010000
00010000
00010000
00010000
00010000
00010000
00010000
00010000
00010000
00010000
00010000
00010000
00010000
00010000
00010000
00010000
00010000
00010000
00010000
00010000
00010000
00010000
00010000
00010000
00010000
00010000
00010000
00010000
00010000
00010000
00010000
FFFFFFFF
ENDCHAR
STARTCHAR 23CB
ENCODING 9163
SWIDTH 1000 0
DWIDTH 32 0
BBX 17 32 0 -4
BITMAP
FFFF80
000080
000080
000080
000080
000080
000080
000080
000080
000080
000080
000080
000080
000080
000080
000080
000080
000080
000080
000080
000080
000080
000080
000080
000080
000080
000080
000080
000080
000080
000080
000080
ENDCHAR
STARTCHAR 23CC
ENCODING 9164
SWIDTH 1000 0
DWIDTH 32 0
BBX 17 32 0 -4
BITMAP
000080
000080
000080
000080
000080
000080
000080
000080
000080
000080
000080
000080
000080
000080
000080
000080
000080
000080
000080
000080
000080
000080
000080
000080
000080
000080
000080
000080
000080
000080
000080
FFFF80
ENDCHAR
STARTCHAR 23CE
ENCODING 9166
SWIDTH 1000 0
DWIDTH 32 0
BBX 27 27 2 -3
BITMAP
00007FE0
00007FE0
00006060
00006060
00006060
00006060
00006060
00006060
00106060
00306060
00706060
01F06060
03306060
063FE060
0C3FC060
18000060
70000060
C0000060
700000C0
180003C0
0C3FFF00
063FFE00
03300000
01F00000
00700000
00300000
00100000
ENDCHAR
STARTCHAR 2423
ENCODING 9251
SWIDTH 1000 0
DWIDTH 32 0
BBX 24 7 4 -1
BITMAP
C00003
C00003
C00003
C00003
C00003
FFFFFF
FFFFFF
ENDCHAR
STARTCHAR 2460
ENCODING 9312
SWIDTH 1000 0
DWIDTH 32 0
BBX 31 30 0 -3
BITMAP
000FE000
007FFC00
01F01F00
03800380
070001C0
0C01C060
1807C030
381FC038
301DC018
6001C00C
6001C00C
C001C006
C001C006
C001C006
C001C006
C001C006
C001C006
C001C006
C001C00E
6001C00C
6001C00C
3001C018
3801C038
1801C030
0C01C060
0F0001C0
03800380
01F01F00
007FFC00
000FE000
ENDCHAR
STARTCHAR 2461
ENCODING 9313
SWIDTH 1000 0
DWIDTH 32 0
BBX 30 30 1 -3
BITMAP
001FE000
00FFF800
03F03E00
07800700
0E07C180
1C1FF0C0
383C3860
30701830
70600C30
60E00C18
60E00C18
C0000C0C
C000180C
C000780C
C001F00C
C003C00C
C00F000C
C01E000C
C03C001C
60380018
60700018
30E00030
30FFFC30
18FFFC60
0C0000E0
0E0001C0
07800780
01E03E00
007FF800
001FE000
ENDCHAR
STARTCHAR 2462
ENCODING 9314
SWIDTH 1000 0
DWIDTH 32 0
BBX 30 30 1 -3
BITMAP
001FE000
00FFF800
01F03E00
07800700
0E0F81C0
1C3FE0C0
38787060
30703830
70E01830
60E01818
60001818
C000380C
C000700C
C00FE00C
C00FE00C
C000780C
C000180C
C0000C0C
C0000C1C
61C00C18
60E00C18
70E01830
30783830
183FF060
1C0FC0E0
0E0001C0
07800780
01E03E00
007FF800
001FE000
ENDCHAR
STARTCHAR 2463
ENCODING 9315
SWIDTH 1000 0
DWIDTH 32 0
BBX 32 30 0 -3
BITMAP
000FF000
007FFE00
01F00F80
03C003C0
070000E0
0E007070
1C007038
3800F01C
3001F00C
6003B006
6007B006
E00F3007
C00E3003
C01C3003
C0383003
C0703003
C0E03003
C1E03003
E1FFFF07
61FFFF06
60003006
3000300C
3800301C
18003018
0E003030
070000E0
03C003C0
01F00F80
007FFE00
000FF000
ENDCHAR
STARTCHAR 2464
ENCODING 9316
SWIDTH 1000 0
DWIDTH 32 0
BBX 30 30 1 -3
BITMAP
001FE000
00FFF800
03F03E00
07800700
0E0001C0
1C7FF8C0
387FF860
30700030
70700030
60700018
60700018
C077C00C
C07FF00C
C078380C
C070180C
C0600C0C
C0000C0C
C0000C0C
C0000C1C
60000C18
60E01C18
30701830
30383830
181FF060
1C0FC0E0
0E0001C0
07800780
01E03E00
007FF800
001FE000
ENDCHAR
STARTCHAR 2465
ENCODING 9317
SWIDTH 1000 0
DWIDTH 32 0
BBX 30 31 1 -3
BITMAP
001FE000
007FF800
01F03E00
03800700
07000380
0C07C0C0
181FF060
383C7870
30383830
60701C18
60600018
E0600018
C0E0000C
C0E7C00C
C0FFF00C
C0F8380C
C0F0180C
C0E00C0C
C0E00C0C
E0E00C18
60600C18
60600C18
30701830
38383870
181FF060
0C07C0C0
0F000380
03800700
01E03E00
007FF800
001FE000
ENDCHAR
STARTCHAR 2466
ENCODING 9318
SWIDTH 1000 0
DWIDTH 32 0
BBX 30 30 1 -3
BITMAP
001FE000
007FF800
01F03E00
03800780
060001C0
0C0000E0
187FFC60
307FFC30
30001C30
60003818
60003818
C000300C
C000700C
C000600C
C000E00C
C000E00C
C001C00C
C001C00C
C001801C
60038018
60038018
70030030
30070030
18070060
1C0700E0
0E0E01C0
07800780
01E03E00
007FF800
001FE000
ENDCHAR
STARTCHAR 2467
ENCODING 9319
SWIDTH 1000 0
DWIDTH 32 0
BBX 30 30 1 -3
BITMAP
001FE000
00FFF800
03F03E00
07800700
0E0FC1C0
1C3FF0C0
38703860
30601830
70C00C30
60C00C18
60C00C18
C0E01C0C
C070380C
C03FF00C
C01FE00C
C038700C
C060180C
C0C00C0C
C0C00C1C
60C00C18
60C00C18
30E01C30
30703830
183FF060
1C0FC0E0
0E0001C0
07800780
01E03E00
007FF800
001FE000
ENDCHAR
STARTCHAR 2468
ENCODING 9320
SWIDTH 1000 0
DWIDTH 32 0
BBX 30 30 1 -3
BITMAP
001FE000
007FF800
01F03E00
03800700
0E0001C0
1C07C0C0
181FF060
30387830
70303830
60601818
60601C18
C0601C0C
C0601C0C
C0601C0C
C0703C0C
C0387C0C
C01FEC0C
C00F8C0C
C0000C1C
60001C18
60701818
70701830
30703030
18387060
1C1FE0E0
0E0F81C0
07800780
01E03E00
007FF800
001FE000
ENDCHAR
STARTCHAR 2469
ENCODING 9321
SWIDTH 1000 0
DWIDTH 32 0
BBX 29 30 1 -3
BITMAP
001FC000
00FFF800
03E03C00
07800F00
0E000380
1D80F1C0
3B83FCC0
37830C60
77860660
61860630
618C0330
C18C0318
C18C0318
C18C0318
C18C0318
C18C0318
C18C0318
C18C0318
C18C0318
618C0330
61860630
71860670
31830C60
1983FCC0
1D80F1C0
0E000380
07800F00
01E03C00
00FFF800
001FC000
ENDCHAR
STARTCHAR 246A
ENCODING 9322
SWIDTH 1000 0
DWIDTH 32 0
BBX 30 30 1 -3
BITMAP
001FE000
00FFF800
03F03E00
07800700
0E000180
1CC00CC0
39C03C60
33C07C30
73C06C30
60C00C18
60C00C18
C0C00C0C
C0C00C0C
C0C00C0C
C0C00C0C
C0C00C0C
C0C00C0C
C0C00C0C
C0C00C1C
60C00C18
60C00C18
30C00C30
30C00C30
18C00C60
1CC00CE0
0E0001C0
07800780
01E03E00
007FF800
001FE000
ENDCHAR
STARTCHAR 246B
ENCODING 9323
SWIDTH 1000 0
DWIDTH 32 0
BBX 30 30 1 -3
BITMAP
001FE000
00FFF800
03F03E00
07800700
0E000180
1D80F8C0
3B83FC60
37878630
75870330
61860318
618E0318
C180030C
C180070C
C1800E0C
C1801E0C
C1803C0C
C180780C
C180F00C
C181C01C
61838018
61838018
31870030
31870030
198FFF60
1D8FFFE0
0E0001C0
07800780
01E03E00
007FF800
001FE000
ENDCHAR
STARTCHAR 246C
ENCODING 9324
SWIDTH 1000 0
DWIDTH 32 0
BBX 30 30 1 -3
BITMAP
001FE000
00FFF800
03F03E00
07800700
0E000180
1D81F8C0
3B83FC60
37870E30
77860630
618E0618
61800618
C180060C
C1800C0C
C180F80C
C180FC0C
C1800E0C
C180070C
C180030C
C180031C
618E0318
618E0318
31860630
31870E30
1983FC60
1D81F0E0
0E0001C0
07800780
01E03E00
007FF800
001FE000
ENDCHAR
STARTCHAR 246D
ENCODING 9325
SWIDTH 1000 0
DWIDTH 32 0
BBX 30 30 1 -3
BITMAP
001FE000
00FFF800
03F03E00
07800700
0E000180
1D801CC0
3B801C60
37803C30
77803C30
61807C18
6180EC18
C180EC0C
C181CC0C
C1818C0C
C1838C0C
C1870C0C
C1870C0C
C18E0C0C
C18FFF9C
618FFF98
61800C18
31800C30
31800C30
19800C60
1D800CE0
0E0001C0
07800780
01E03E00
007FF800
001FE000
ENDCHAR
STARTCHAR 246E
ENCODING 9326
SWIDTH 1000 0
DWIDTH 32 0
BBX 30 30 1 -3
BITMAP
001FE000
00FFF800
03F03E00
07800700
0E000180
1D87FEC0
3B87FE60
37870030
75870030
61860018
61860018
C186780C
C186FC0C
C1870E0C
C186060C
C182030C
C180030C
C180030C
C180031C
61800318
618E0718
318E0630
31870E30
1983FC60
1D81F0E0
0E0001C0
07800780
01E03E00
007FF800
001FE000
ENDCHAR
STARTCHAR 246F
ENCODING 9327
SWIDTH 1000 0
DWIDTH 32 0
BBX 29 30 1 -3
BITMAP
001FC000
00FFF800
03E03C00
07800F00
0E000380
1D80F1C0
3B81FCC0
37839C60
77870E60
65860E30
61860030
C18E0018
C18C0018
C18CF018
C18FF818
C18F1C18
C18E0E18
C18C0618
C18C0618
618C0630
61840630
71860E70
31871C60
1983F8C0
1D81F1C0
0E000380
07800F00
01E03C00
00FFF800
001FC000
ENDCHAR
STARTCHAR 2470
ENCODING 9328
SWIDTH 1000 0
DWIDTH 32 0
BBX 31 30 0 -3
BITMAP
000FF000
007FFC00
01F01F00
03800380
070001C0
0C63FFE0
19E3FFB0
3BE003B8
73600318
6060070C
6060060C
C0600606
C0600E06
C0600C06
C0601C06
C0601C06
C0601806
C0603806
C060380E
6060380C
6060300C
30607018
38607038
18607030
0C60E060
070001C0
03800380
01F01F00
007FFC00
000FE000
ENDCHAR
STARTCHAR 2471
ENCODING 9329
SWIDTH 1000 0
DWIDTH 32 0
BBX 29 30 1 -3
BITMAP
001FC000
00FFF800
03E03C00
07800F00
0E000380
1D81F1C0
3B87F8C0
37860C60
778C0660
618C0630
618C0630
C18C0E18
C1871C18
C183F818
C183F818
C18E1C18
C18C0C18
C1980618
C1980618
61980630
61980630
719C0E70
318E1C60
1987F8C0
1D83F1C0
0E000380
07800F00
01E03C00
00FFF800
001FC000
ENDCHAR
STARTCHAR 2472
ENCODING 9330
SWIDTH 1000 0
DWIDTH 32 0
BBX 29 30 1 -3
BITMAP
001FC000
00FFF800
03E03C00
07800F00
0E000380
1D81F1C0
3B83F8C0
37871C60
778E0C60
618C0430
618C0630
C18C0618
C18C0618
C18E0E18
C1871E18
C183FE18
C181E618
C1800618
C1800618
61800C30
618E0C30
718E0C70
31871860
1983F0C0
1D81E1C0
0E000380
07800F00
01E03C00
00FFF800
001FC000
ENDCHAR
STARTCHAR 2473
ENCODING 9331
SWIDTH 1000 0
DWIDTH 32 0
BBX 30 31 1 -3
BITMAP
001FE000
007FF800
01F03E00
03800700
07000380
0C781CC0
19FC3E60
398C7370
33866330
63066118
6306C198
E306C198
C00EC18C
C00CC18C
C01CC18C
C038C18C
C038C18C
C070C18C
C0E0C18C
E0C0C198
61C0C198
6180C198
338063B0
3B806370
1BFE6360
0FFE3EC0
0F001F80
03800700
01E03E00
007FF800
001FE000
ENDCHAR
STARTCHAR 24D0
ENCODING 9424
SWIDTH 1000 0
DWIDTH 32 0
BBX 30 31 1 -3
BITMAP
001FE000
007FF800
01F03E00
03800700
07000380
0C0000C0
18000060
38000070
30000030
600F8018
603FE018
E0387018
C070300C
C000300C
C007F00C
C01FF00C
C030300C
C060300C
C060700C
E070F018
607FFC18
601F1C18
30000030
38000070
18000060
0C0000C0
0F000380
03800700
01E03E00
007FF800
001FE000
ENDCHAR
STARTCHAR 24D1
ENCODING 9425
SWIDTH 1000 0
DWIDTH 32 0
BBX 30 30 1 -3
BITMAP
001FE000
007FF800
01F03E00
03800780
060001C0
0C3000E0
18300060
30300030
70300030
60300018
6033E018
C037F00C
C03C380C
C038180C
C0300C0C
C0300C0C
C0300C0C
C0300C0C
C0300C1C
60381818
603C1818
703FF030
3033E030
18000060
1C0000E0
0E0001C0
07800780
01E03E00
007FF800
001FE000
ENDCHAR
STARTCHAR 24D2
ENCODING 9426
SWIDTH 1000 0
DWIDTH 32 0
BBX 30 30 1 -3
BITMAP
001FE000
00FFF800
01F03E00
07800700
0E0001C0
1C0000C0
18000060
30000030
7007C030
601FE018
60387018
C030300C
C070380C
C060000C
C060000C
C060000C
C060000C
C060380C
C030381C
60387018
601FE018
7007C030
30000030
18000060
1C0000E0
0E0001C0
07800780
01E03E00
007FF800
001FE000
ENDCHAR
STARTCHAR 24D3
ENCODING 9427
SWIDTH 1000 0
DWIDTH 32 0
BBX 30 30 1 -3
BITMAP
001FE000
00FFF800
01F03E00
07800700
0E0001C0
1C0030C0
18003060
30003030
70003030
60003018
601F3018
C03FB00C
C070F00C
C060700C
C0C0300C
C0C0300C
C0C0300C
C0C0300C
C0C0301C
60607018
6070F018
703FF030
301F3030
18000060
1C0000E0
0E0001C0
07800780
01E03E00
007FF800
001FE000
ENDCHAR
STARTCHAR 24D4
ENCODING 9428
SWIDTH 1000 0
DWIDTH 32 0
BBX 30 30 1 -3
BITMAP
001FE000
007FF800
01F03E00
03800700
0E0001C0
0C0000C0
18000060
30000030
70000030
6007C018
601FE018
C038700C
C030380C
C060180C
C07FF80C
C07FF80C
C060000C
C060180C
C030381C
60387018
601FF018
7007C030
30000030
18000060
1C0000E0
0E0001C0
07800780
01E03E00
007FF800
001FE000
ENDCHAR
STARTCHAR 24D5
ENCODING 9429
SWIDTH 1000 0
DWIDTH 32 0
BBX 30 30 1 -3
BITMAP
001FE000
00FFF800
03F03E00
07800700
0E000180
1C0000C0
3803E060
3007E030
70060030
60060018
60060018
C006000C
C07FE00C
C07FE00C
C006000C
C006000C
C006000C
C006000C
C006001C
60060018
60060018
70060030
30060030
18060060
1C0000E0
0E0001C0
07800780
01E03E00
007FF800
001FE000
ENDCHAR
STARTCHAR 24D6
ENCODING 9430
SWIDTH 1000 0
DWIDTH 32 0
BBX 30 30 1 -3
BITMAP
000FE000
007FFC00
01F03E00
03800780
060001C0
0C0000E0
18000060
3007D830
700FF830
601C7818
60383818
C030180C
C030180C
C030180C
C038380C
C01C780C
C00FF80C
C007980C
C000181C
60301818
60383018
701FF030
3007C030
18000060
1C0000E0
0E0001C0
07800780
01E03E00
007FF800
001FE000
ENDCHAR
STARTCHAR 24D7
ENCODING 9431
SWIDTH 1000 0
DWIDTH 32 0
BBX 30 31 1 -3
BITMAP
001FE000
007FF800
01F03E00
03800700
07000380
0C0000C0
18300060
38300070
30300030
60300018
60300018
60300018
C033E00C
C037F00C
C03E380C
C038180C
C030180C
C030180C
C030180C
E0301818
60301818
60301818
30301830
38301870
18301860
0C0000C0
0F000380
03800700
01E03E00
007FF800
001FE000
ENDCHAR
STARTCHAR 24D8
ENCODING 9432
SWIDTH 1000 0
DWIDTH 32 0
BBX 31 30 1 -3
BITMAP
000FE000
007FFC00
01F01F00
03800380
070001C0
0C000060
18038030
38038038
30038018
6000000C
6000000C
C0030006
C0030006
C0030006
C0030006
C0030006
C0030006
C0030006
C003000E
6003000C
6003000C
30030018
38030038
18030030
0C000060
0F0001C0
03800380
01F01F00
007FFC00
000FE000
ENDCHAR
STARTCHAR 24D9
ENCODING 9433
SWIDTH 1000 0
DWIDTH 32 0
BBX 31 30 1 -3
BITMAP
000FE000
007FFC00
00F01F00
03800380
0701C1C0
0C01C060
1801C030
38000038
30000018
6001800C
6001800C
C0018006
C0018006
C0018006
C0018006
C0018006
C0018006
C0018006
C001800E
6001800C
6001800C
70018018
38018038
181F8030
0C1F0060
0F0001C0
03800380
01F01F00
007FFC00
000FE000
ENDCHAR
STARTCHAR 24DA
ENCODING 9434
SWIDTH 1000 0
DWIDTH 32 0
BBX 30 31 1 -3
BITMAP
000FE000
007FF800
01F03E00
03800700
07000380
0C0000C0
18300060
38300070
30300030
60300018
60300018
60300018
C030700C
C030E00C
C031C00C
C033800C
C037000C
C03F800C
C03D800C
E039C018
6030E018
60307018
30303030
38303870
18301C60
0C0000C0
0F000380
03800700
01E03E00
007FF800
001FE000
ENDCHAR
STARTCHAR 24DB
ENCODING 9435
SWIDTH 1000 0
DWIDTH 32 0
BBX 30 30 1 -3
BITMAP
001FE000
007FF800
01F03E00
03800780
060001C0
0C0000E0
18030060
30030030
30030030
60030018
60030018
C003000C
C003000C
C003000C
C003000C
C003000C
C003000C
C003000C
C003001C
60030018
60030018
70030030
30030030
18030060
1C0000E0
0E0001C0
07800780
01E03E00
007FF800
001FE000
ENDCHAR
STARTCHAR 24DC
ENCODING 9436
SWIDTH 1000 0
DWIDTH 32 0
BBX 30 31 1 -3
BITMAP
001FE000
007FF800
01F03E00
03800700
07000380
0C0000C0
18000060
38000070
30000030
619E7C18
61FFFC18
E1E7CE18
C1C3860C
C183060C
C183060C
C183060C
C183060C
C183060C
C183060C
E1830618
61830618
61830618
30000030
38000070
18000060
0C0000C0
0F000380
03800700
01E03E00
007FF800
001FE000
ENDCHAR
STARTCHAR 24DD
ENCODING 9437
SWIDTH 1000 0
DWIDTH 32 0
BBX 30 31 1 -3
BITMAP
001FE000
00FFF800
01F03E00
03800700
0F000380
0C0000C0
18000060
38000070
30000030
6067E018
606FF018
E07C3818
C070180C
C060180C
C060180C
C060180C
C060180C
C060180C
C060180C
E0601818
60601818
60601818
30000030
38000070
18000060
0C0000C0
0F000380
03800700
01E03E00
007FF800
001FE000
ENDCHAR
STARTCHAR 24DE
ENCODING 9438
SWIDTH 1000 0
DWIDTH 32 0
BBX 30 30 1 -3
BITMAP
001FE000
00FFF800
03F03E00
07800700
0E0001C0
1C0000C0
38000060
30000030
70078030
601FE018
60387018
C030300C
C070380C
C060180C
C060180C
C060180C
C060180C
C060380C
C030301C
60387018
601FE018
30078030
30000030
18000060
1C0000E0
0E0001C0
07800780
01E03E00
007FF800
001FE000
ENDCHAR
STARTCHAR 24DF
ENCODING 9439
SWIDTH 1000 0
DWIDTH 32 0
BBX 30 31 1 -3
BITMAP
001FE000
007FF800
01F03E00
03800700
07000380
0C0000C0
18000060
38000070
3033E030
603FF818
603E1C18
E0380C18
C0380E0C
C030060C
C030060C
C030060C
C030060C
C0380E0C
C0380C0C
E03E1C18
6037F818
6033E018
30300030
38300070
18300060
0C0000C0
0F000380
03800700
01E03E00
007FF800
001FE000
ENDCHAR
STARTCHAR 24E0
ENCODING 9440
SWIDTH 1000 0
DWIDTH 32 0
BBX 30 31 1 -3
BITMAP
001FE000
007FF800
01F03E00
03800700
07000380
0C0000C0
18000060
38000070
301F3030
607FB018
60E1F018
E0C07018
C1C0700C
C180300C
C180300C
C180300C
C180300C
C1C0700C
C0C0700C
E0E1F018
607FB018
601E3018
30003030
38003070
18003060
0C0000C0
0F000380
03800700
01E03E00
007FF800
001FE000
ENDCHAR
STARTCHAR 24E1
ENCODING 9441
SWIDTH 1000 0
DWIDTH 32 0
BBX 31 30 0 -3
BITMAP
000FF000
007FFC00
01F01F00
03800380
0F0001C0
1C000060
18000030
38000038
70000018
60061C0C
60067C0C
C006F006
C007C006
C0070006
C0060006
C0060006
C0060006
C0060006
C006000E
6006000C
6006000C
30060018
38000038
18000030
0C000060
070001C0
03800380
01F01F00
007FFC00
000FE000
ENDCHAR
STARTCHAR 24E2
ENCODING 9442
SWIDTH 1000 0
DWIDTH 32 0
BBX 30 30 1 -3
BITMAP
001FE000
00FFF800
01F03E00
07800700
0E0001C0
1C0000C0
38000060
30000030
700F8030
601FE018
60386018
C030700C
C030000C
C01C000C
C00F800C
C001E00C
C000700C
C070300C
C030301C
60387018
601FE018
700FC030
30000030
18000060
1C0000E0
0E0001C0
07800780
01E03E00
007FF800
001FE000
ENDCHAR
STARTCHAR 24E3
ENCODING 9443
SWIDTH 1000 0
DWIDTH 32 0
BBX 30 30 1 -3
BITMAP
001FE000
007FF800
01F03E00
07800780
0E0001C0
1C0000E0
18000060
30060030
70060030
60060018
603FE018
C03FE00C
C006000C
C006000C
C006000C
C006000C
C006000C
C006000C
C006001C
60060018
60060018
3007E030
3003E030
18000060
1C0000E0
0E0001C0
07800780
01E03E00
007FF800
001FE000
ENDCHAR
STARTCHAR 24E4
ENCODING 9444
SWIDTH 1000 0
DWIDTH 32 0
BBX 30 31 1 -3
BITMAP
001FE000
00FFF800
01F03E00
03800700
0F000380
0C0000C0
18000060
38000070
30000030
60601818
60601818
E0601818
C060180C
C060180C
C060180C
C060180C
C060180C
C060180C
C060380C
E070F818
603FF818
601F9818
30000030
38000070
18000060
0C0000C0
0F000380
03800700
01E03E00
007FF800
001FE000
ENDCHAR
STARTCHAR 24E5
ENCODING 9445
SWIDTH 1000 0
DWIDTH 32 0
BBX 30 31 1 -3
BITMAP
001FE000
007FF800
01F03E00
03800700
07000380
0C0000C0
18000060
38000070
30000030
60000018
60E01C18
E0E01C18
C060380C
C070380C
C030300C
C038700C
C018600C
C01CE00C
C00CC00C
E00FC018
60078018
60078018
30030030
38000070
18000060
0C0000C0
0F000380
03800700
01E03E00
007FF800
001FE000
ENDCHAR
STARTCHAR 24E6
ENCODING 9446
SWIDTH 1000 0
DWIDTH 32 0
BBX 30 31 1 -3
BITMAP
001FE000
007FF800
01F03E00
03800700
07000380
0C0000C0
18000060
38000070
30000030
60000018
67030398
E3078318
C307830C
C387870C
C18FC60C
C18CC60C
C1CCCE0C
C0DCCC0C
C0D86C0C
E0F87C18
60787818
60703818
30303030
38000070
18000060
0C0000C0
0F000380
03800700
01E03E00
007FF800
001FE000
ENDCHAR
STARTCHAR 24E7
ENCODING 9447
SWIDTH 1000 0
DWIDTH 32 0
BBX 30 31 1 -3
BITMAP
001FE000
007FF800
01F03E00
03800700
07000380
0C0000C0
18000060
38000070
30000030
60E03C18
60703818
E0387018
C01CE00C
C00FC00C
C007800C
C007800C
C00FC00C
C01CC00C
C01CE00C
E0387018
60703818
60E01C18
30000030
38000070
18000060
0C0000C0
0F000380
03800700
01E03E00
007FF800
001FE000
ENDCHAR
STARTCHAR 24E8
ENCODING 9448
SWIDTH 1000 0
DWIDTH 32 0
BBX 31 31 0 -3
BITMAP
000FE000
003FFC00
00F01F00
01800380
070001C0
0E0000E0
1C000070
18000038
30700618
60300E0C
60380C0C
60181C0C
C01C1806
C00C3806
C00E3006
C0067006
C0076006
C0036006
C003C006
E001C00C
6001C00C
6001800C
30038018
383F0038
183E0070
0C0000E0
070001C0
03800380
01F01F00
007FFC00
000FE000
ENDCHAR
STARTCHAR 24E9
ENCODING 9449
SWIDTH 1000 0
DWIDTH 32 0
BBX 30 31 1 -3
BITMAP
001FE000
007FF800
01F03E00
03800700
07000380
0C0000C0
18000060
38000070
30000030
607FF818
607FF818
E0007018
C000E00C
C001C00C
C003800C
C007000C
C00E000C
C01C000C
C038000C
E0700018
607FF818
607FF818
30000030
38000070
18000060
0C0000C0
0F000380
03800700
01E03E00
007FF800
001FE000
ENDCHAR
STARTCHAR 24EB
ENCODING 9451
SWIDTH 1000 0
DWIDTH 32 0
BBX 30 30 1 -3
BITMAP
001FE000
007FF800
01FFFE00
07FFFF80
0FFFFFC0
1F3FF1E0
1E3FE1E0
3C3FC1F0
7C3FC1F0
7F3FF1F8
7F3FF1F8
FF3FF1FC
FF3FF1FC
FF3FF1FC
FF3FF1FC
FF3FF1FC
FF3FF1FC
FF3FF1FC
FF3FF1FC
7F3FF1F8
7F3FF1F8
3F3FF1F0
3F3FF1F0
1F3FF1E0
1F3FF1E0
0FFFFFC0
07FFFF80
01FFFE00
007FF800
001FE000
ENDCHAR
STARTCHAR 24EC
ENCODING 9452
SWIDTH 1000 0
DWIDTH 32 0
BBX 30 30 1 -3
BITMAP
001FE000
00FFF800
03FFFE00
07FFFF00
0FFFFFC0
1E3F87C0
3C3E01E0
383E79F0
7A3C7CF0
7E3CFCF8
7E3CFCF8
FE3FFCFC
FE3FF8FC
FE3FF9FC
FE3FF3FC
FE3FE7FC
FE3FCFFC
FE3F9FFC
FE3F3FFC
7E3E3FF8
7E3E7FF8
3E3CFFF0
3E3C00F0
1E3C00E0
0E3800E0
0FFFFFC0
07FFFF80
01FFFE00
007FF800
001FE000
ENDCHAR
STARTCHAR 24ED
ENCODING 9453
SWIDTH 1000 0
DWIDTH 32 0
BBX 30 30 1 -3
BITMAP
001FE000
00FFF800
03FFFE00
07FFFF00
0FFFFFC0
1F3F87C0
3C3E01E0
383C79F0
783CFCF0
7E3CFCF8
7E3FFCF8
FE3FFCFC
FE3FF9FC
FE3F83FC
FE3F81FC
FE3FF8FC
FE3FF87C
FE3FFC7C
FE3FFC7C
7E38FC78
7E3CFC78
3E3CF8F0
3E3C78F0
1E3E01E0
1E3F03E0
0FFFFFC0
07FFFF80
01FFFE00
007FF800
001FE000
ENDCHAR
STARTCHAR 24EE
ENCODING 9454
SWIDTH 1000 0
DWIDTH 32 0
BBX 30 30 1 -3
BITMAP
001FE000
00FFF800
03FFFE00
07FFFF00
0FFFFFC0
1F3FE1C0
3C3FE1E0
383FC1F0
783FC1F0
7E3F81F8
7E3F11F8
FE3F11FC
FE3E31FC
FE3E71FC
FE3C71FC
FE38F1FC
FE38F1FC
FE31F1FC
FE30007C
7E300078
7E3FF1F8
3E3FF1F0
3E3FF1F0
1E3FF1E0
0E3FF1E0
0FFFFFC0
07FFFF80
01FFFE00
007FF800
001FE000
ENDCHAR
STARTCHAR 24EF
ENCODING 9455
SWIDTH 1000 0
DWIDTH 32 0
BBX 30 30 1 -3
BITMAP
001FE000
00FFF800
03FFFE00
07FFFF00
0FFFFFC0
1E3C01C0
3C3C01E0
383CFFF0
7A3CFFF0
7E3CFFF8
7E3CFFF8
FE3CC7FC
FE3C03FC
FE3C01FC
FE3C71FC
FE3EF8FC
FE3FFCFC
FE3FFCFC
FE3FFCFC
7E3FFCF8
7E38FCF8
3E3CF9F0
3E3C71F0
1E3E03E0
1E3F07E0
0FFFFFC0
07FFFF80
01FFFE00
007FF800
001FE000
ENDCHAR
STARTCHAR 24F0
ENCODING 9456
SWIDTH 1000 0
DWIDTH 32 0
BBX 30 30 1 -3
BITMAP
001FE000
00FFF800
03FFFE00
07FFFF00
0FFFFFC0
1F3F83C0
3C3F01E0
383E38F0
783C7CF0
7E3C7C78
7E3CFFF8
FE38FFFC
FE38FFFC
FE3883FC
FE3801FC
FE3838FC
FE38787C
FE38FC7C
FE38FC7C
7E38FC78
7E3CFC78
3E3C78F0
3E3C38F0
1E3E01E0
1E3F83E0
0FFFFFC0
07FFFF80
01FFFE00
007FF800
001FE000
ENDCHAR
STARTCHAR 24F1
ENCODING 9457
SWIDTH 1000 0
DWIDTH 32 0
BBX 30 30 1 -3
BITMAP
001FE000
00FFF800
03FFFE00
07FFFF00
0FFFFFC0
1E3800C0
3C3800E0
383FF8F0
7A3FF9F0
7E3FF1F8
7E3FF3F8
FE3FF3FC
FE3FE3FC
FE3FE7FC
FE3FE7FC
FE3FC7FC
FE3FCFFC
FE3FCFFC
FE3F8FFC
7E3F8FF8
7E3F9FF8
3E3F1FF0
3E3F1FF0
1E3F1FE0
1E3E3FE0
0FFFFFC0
07FFFF80
01FFFE00
007FF800
001FE000
ENDCHAR
STARTCHAR 24F2
ENCODING 9458
SWIDTH 1000 0
DWIDTH 32 0
BBX 30 30 1 -3
BITMAP
001FE000
00FFF800
03FFFE00
07FFFF00
0FFFFFC0
1F3F87C0
3C3E01E0
383E79F0
783CFCF0
7E3CFCF8
7E3CFCF8
FE3CFCFC
FE3E79FC
FE3E01FC
FE3F03FC
FE3C78FC
FE3CFCFC
FE39FE7C
FE39FE7C
7E39FE78
7E39FE78
3E38FC70
3E3C78F0
1E3E01E0
1E3F03E0
0FFFFFC0
07FFFF80
01FFFE00
007FF800
001FE000
ENDCHAR
STARTCHAR 24F3
ENCODING 9459
SWIDTH 1000 0
DWIDTH 32 0
BBX 30 30 1 -3
BITMAP
001FE000
00FFF800
03FFFE00
07FFFF00
0FFFFFC0
1F3F83C0
3C3F01E0
383E78F0
783C78F0
7E3CFCF8
7E3CFC78
FE3CFC7C
FE3CFC7C
FE3CF87C
FE3E787C
FE3E007C
FE3F847C
FE3FFC7C
FE3FFC7C
7E3FFCF8
7E3CFCF8
3E3C78F0
3E3E71F0
1E3E03E0
0E3F87E0
0FFFFFC0
07FFFF80
01FFFE00
007FF800
001FE000
ENDCHAR
STARTCHAR 24F4
ENCODING 9460
SWIDTH 1000 0
DWIDTH 32 0
BBX 31 31 0 -3
BITMAP
000FE000
007FFC00
00FFFF00
01FFFF80
07FFFFC0
0F87F1E0
1E03E0F0
3E71CE78
3C79CE78
7CF9DE3C
7CF99F3C
7CF99F3C
FFF39F3E
FFF39F3E
FFE79F3E
FFC79F3E
FFCF9F3E
FF9F9F3E
FF3F9F3E
FF3F9F3C
7E7F9F3C
7E7F8F3C
3C7FCE78
3C01CE78
1C01C070
0C01E0E0
07FFF1C0
03FFFF80
01FFFF00
007FFC00
000FE000
ENDCHAR
STARTCHAR 24F5
ENCODING 9461
SWIDTH 1000 0
DWIDTH 32 0
BBX 30 30 1 -3
BITMAP
001FE000
00E01800
01800600
060FC100
0C703880
18C00C40
11030220
220F0110
641F0090
4C1B0048
48030048
98030064
90030024
90030024
90030024
90030024
90030024
90030024
9803004C
48030048
4C0300D8
64030090
22030130
11030260
18C00440
0C703880
060FE300
01800600
00E03800
001FE000
ENDCHAR
STARTCHAR 24F6
ENCODING 9462
SWIDTH 1000 0
DWIDTH 32 0
BBX 30 30 1 -3
BITMAP
001FE000
00E01800
01800600
061FC100
0CE03080
19800C40
120FC220
241FE110
68383090
587018C8
50701848
B0601844
A0003824
A0007024
A000E024
A003C024
A0078024
A00E0024
B01C004C
50380048
587000D8
487FF890
247FF930
12000220
11800C40
08E03880
061FC100
01000600
00E03800
001FE000
ENDCHAR
STARTCHAR 24F7
ENCODING 9463
SWIDTH 1000 0
DWIDTH 32 0
BBX 31 30 1 -3
BITMAP
001FE000
00701C00
01800300
020FE080
0C701840
18C00620
1107C110
221FF088
64383848
4C301864
48301824
98001822
90003012
9007E012
9007E012
90003812
90001812
90000C12
D8000C26
48700C24
4C701C6C
64383848
321FF098
1907E130
18C00620
0C701C40
030FE180
01800300
00701C00
001FE000
ENDCHAR
STARTCHAR 24F8
ENCODING 9464
SWIDTH 1000 0
DWIDTH 32 0
BBX 30 30 1 -3
BITMAP
001FE000
00601C00
01800600
061FC180
0CE030C0
19800C60
1201C220
2401C110
6803C098
5807C0C8
500EC048
B00CC044
A01CC024
A038C024
A030C024
A060C024
A0E0C024
A1C0C024
B1FFFC44
51FFFC48
5800C0C8
6800C098
2400C110
1200C220
19800C60
0CE038C0
061FC180
01800600
00E01C00
001FE000
ENDCHAR
STARTCHAR 24F9
ENCODING 9465
SWIDTH 1000 0
DWIDTH 32 0
BBX 30 30 1 -3
BITMAP
001FE000
00E01800
01800600
061FC100
0CE03080
19800C40
12000220
243FF110
483FF090
583000C8
50300048
B0300044
A037C024
A03FE024
A0383024
A0301824
A0001824
A0001824
F000184C
50703848
583870D8
681FE090
240FC130
12000260
19800C40
0CE03880
061FC300
01800600
00E03800
001FE000
ENDCHAR
STARTCHAR 24FA
ENCODING 9466
SWIDTH 1000 0
DWIDTH 32 0
BBX 30 31 1 -3
BITMAP
001FE000
00601800
01800600
020FC100
04703880
08C00C40
11000220
2207C110
240FE090
4C1C70C8
48303848
88300048
90700024
9067C024
906FE024
90787024
90703824
90601824
90601824
C860184C
48301848
4C3038C8
243C7090
321FE110
1107C220
08C00C60
0C7038C0
020FC180
01800600
00601C00
001FE000
ENDCHAR
STARTCHAR 24FB
ENCODING 9467
SWIDTH 1000 0
DWIDTH 32 0
BBX 31 30 0 -3
BITMAP
000FF000
00701E00
018FE380
023018C0
04C00660
09000130
12000098
243FFC48
6C3FFC6C
48001C24
48003824
90003812
90007012
90007012
90006012
9000E012
9000C012
9001C012
C8018026
48038024
6C038044
64030048
32070098
19070110
0CC00620
06301C40
030FE180
01C00300
00701C00
000FF000
ENDCHAR
STARTCHAR 24FC
ENCODING 9468
SWIDTH 1000 0
DWIDTH 32 0
BBX 30 30 1 -3
BITMAP
001FE000
00601C00
018FC700
06703980
0CC00CC0
19000260
120FC120
241FE090
6C3070D8
48601848
48601848
90601824
90703824
903FF024
900FC024
90307024
90603824
90C01C24
88C00C4C
48C00C48
4CE01CC8
64703890
223FF110
110FC220
18C00C60
0C7038C0
060FC180
01800600
00E01C00
001FE000
ENDCHAR
STARTCHAR 24FD
ENCODING 9469
SWIDTH 1000 0
DWIDTH 32 0
BBX 30 30 1 -3
BITMAP
001FE000
00601C00
018FC600
06703980
0CC00CC0
19000260
12078120
240FE090
6C1C70D8
48383048
48301048
90301824
90301824
90383824
901C7824
901FF824
90079824
90001824
8800184C
48303048
4C3830C8
64386098
221FE110
11078220
18C00C60
0C7038C0
060FC180
01800600
00E01C00
001FE000
ENDCHAR
STARTCHAR 24FE
ENCODING 9470
SWIDTH 1000 0
DWIDTH 32 0
BBX 31 30 0 -3
BITMAP
000FE000
00701C00
01800300
020FE080
0C701840
08C00620
11000110
22307888
64F0FC48
4CF1CE64
48B18624
98330322
90330312
90330312
90330312
90330312
90330312
90330312
D8330326
48318624
4C31CE6C
6430FC48
32307898
19000130
1CC00620
0E701C40
030FE180
01800300
00701C00
001FE000
ENDCHAR
STARTCHAR 2500
ENCODING 9472
SWIDTH 1000 0
DWIDTH 32 0
BBX 32 1 0 12
BITMAP
FFFFFFFF
ENDCHAR
STARTCHAR 2501
ENCODING 9473
SWIDTH 1000 0
DWIDTH 32 0
BBX 32 4 0 10
BITMAP
FFFFFFFF
FFFFFFFF
FFFFFFFF
FFFFFFFF
ENDCHAR
STARTCHAR 2502
ENCODING 9474
SWIDTH 1000 0
DWIDTH 32 0
BBX 1 32 15 -4
BITMAP
80
80
80
80
80
80
80
80
80
80
80
80
80
80
80
80
80
80
80
80
80
80
80
80
80
80
80
80
80
80
80
80
ENDCHAR
STARTCHAR 2503
ENCODING 9475
SWIDTH 1000 0
DWIDTH 32 0
BBX 4 32 14 -4
BITMAP
F0
F0
F0
F0
F0
F0
F0
F0
F0
F0
F0
F0
F0
F0
F0
F0
F0
F0
F0
F0
F0
F0
F0
F0
F0
F0
F0
F0
F0
F0
F0
F0
ENDCHAR
STARTCHAR 250C
ENCODING 9484
SWIDTH 1000 0
DWIDTH 32 0
BBX 17 17 15 -4
BITMAP
FFFF80
800000
800000
800000
800000
800000
800000
800000
800000
800000
800000
800000
800000
800000
800000
800000
800000
ENDCHAR
STARTCHAR 250F
ENCODING 9487
SWIDTH 1000 0
DWIDTH 32 0
BBX 18 18 14 -4
BITMAP
FFFFC0
FFFFC0
FFFFC0
FFFFC0
F00000
F00000
F00000
F00000
F00000
F00000
F00000
F00000
F00000
F00000
F00000
F00000
F00000
F00000
ENDCHAR
STARTCHAR 2510
ENCODING 9488
SWIDTH 1000 0
DWIDTH 32 0
BBX 17 17 0 -4
BITMAP
FFFF80
000080
000080
000080
000080
000080
000080
000080
000080
000080
000080
000080
000080
000080
000080
000080
000080
ENDCHAR
STARTCHAR 2513
ENCODING 9491
SWIDTH 1000 0
DWIDTH 32 0
BBX 18 18 0 -4
BITMAP
FFFFC0
FFFFC0
FFFFC0
FFFFC0
0003C0
0003C0
0003C0
0003C0
0003C0
0003C0
0003C0
0003C0
0003C0
0003C0
0003C0
0003C0
0003C0
0003C0
ENDCHAR
STARTCHAR 2514
ENCODING 9492
SWIDTH 1000 0
DWIDTH 32 0
BBX 17 16 15 12
BITMAP
800000
800000
800000
800000
800000
800000
800000
800000
800000
800000
800000
800000
800000
800000
800000
FFFF80
ENDCHAR
STARTCHAR 2517
ENCODING 9495
SWIDTH 1000 0
DWIDTH 32 0
BBX 18 18 14 10
BITMAP
F00000
F00000
F00000
F00000
F00000
F00000
F00000
F00000
F00000
F00000
F00000
F00000
F00000
F00000
FFFFC0
FFFFC0
FFFFC0
FFFFC0
ENDCHAR
STARTCHAR 2518
ENCODING 9496
SWIDTH 1000 0
DWIDTH 32 0
BBX 17 16 0 12
BITMAP
000080
000080
000080
000080
000080
000080
000080
000080
000080
000080
000080
000080
000080
000080
000080
FFFF80
ENDCHAR
STARTCHAR 251B
ENCODING 9499
SWIDTH 1000 0
DWIDTH 32 0
BBX 18 18 0 10
BITMAP
0003C0
0003C0
0003C0
0003C0
0003C0
0003C0
0003C0
0003C0
0003C0
0003C0
0003C0
0003C0
0003C0
0003C0
FFFFC0
FFFFC0
FFFFC0
FFFFC0
ENDCHAR
STARTCHAR 251C
ENCODING 9500
SWIDTH 1000 0
DWIDTH 32 0
BBX 17 32 15 -4
BITMAP
800000
800000
800000
800000
800000
800000
800000
800000
800000
800000
800000
800000
800000
800000
800000
FFFF80
800000
800000
800000
800000
800000
800000
800000
800000
800000
800000
800000
800000
800000
800000
800000
800000
ENDCHAR
STARTCHAR 251D
ENCODING 9501
SWIDTH 1000 0
DWIDTH 32 0
BBX 17 32 15 -4
BITMAP
800000
800000
800000
800000
800000
800000
800000
800000
800000
800000
800000
800000
800000
800000
FFFF80
FFFF80
FFFF80
FFFF80
800000
800000
800000
800000
800000
800000
800000
800000
800000
800000
800000
800000
800000
800000
ENDCHAR
STARTCHAR 2520
ENCODING 9504
SWIDTH 1000 0
DWIDTH 32 0
BBX 18 32 14 -4
BITMAP
F00000
F00000
F00000
F00000
F00000
F00000
F00000
F00000
F00000
F00000
F00000
F00000
F00000
F00000
F00000
FFFFC0
F00000
F00000
F00000
F00000
F00000
F00000
F00000
F00000
F00000
F00000
F00000
F00000
F00000
F00000
F00000
F00000
ENDCHAR
STARTCHAR 2523
ENCODING 9507
SWIDTH 1000 0
DWIDTH 32 0
BBX 18 32 14 -4
BITMAP
F00000
F00000
F00000
F00000
F00000
F00000
F00000
F00000
F00000
F00000
F00000
F00000
F00000
F00000
FFFFC0
FFFFC0
FFFFC0
FFFFC0
F00000
F00000
F00000
F00000
F00000
F00000
F00000
F00000
F00000
F00000
F00000
F00000
F00000
F00000
ENDCHAR
STARTCHAR 2524
ENCODING 9508
SWIDTH 1000 0
DWIDTH 32 0
BBX 17 32 0 -4
BITMAP
000080
000080
000080
000080
000080
000080
000080
000080
000080
000080
000080
000080
000080
000080
000080
FFFF80
000080
000080
000080
000080
000080
000080
000080
000080
000080
000080
000080
000080
000080
000080
000080
000080
ENDCHAR
STARTCHAR 2525
ENCODING 9509
SWIDTH 1000 0
DWIDTH 32 0
BBX 17 32 0 -4
BITMAP
000080
000080
000080
000080
000080
000080
000080
000080
000080
000080
000080
000080
000080
000080
FFFF80
FFFF80
FFFF80
FFFF80
000080
000080
000080
000080
000080
000080
000080
000080
000080
000080
000080
000080
000080
000080
ENDCHAR
STARTCHAR 2528
ENCODING 9512
SWIDTH 1000 0
DWIDTH 32 0
BBX 18 32 0 -4
BITMAP
0003C0
0003C0
0003C0
0003C0
0003C0
0003C0
0003C0
0003C0
0003C0
0003C0
0003C0
0003C0
0003C0
0003C0
0003C0
FFFFC0
0003C0
0003C0
0003C0
0003C0
0003C0
0003C0
0003C0
0003C0
0003C0
0003C0
0003C0
0003C0
0003C0
0003C0
0003C0
0003C0
ENDCHAR
STARTCHAR 252B
ENCODING 9515
SWIDTH 1000 0
DWIDTH 32 0
BBX 18 32 0 -4
BITMAP
0003C0
0003C0
0003C0
0003C0
0003C0
0003C0
0003C0
0003C0
0003C0
0003C0
0003C0
0003C0
0003C0
0003C0
FFFFC0
FFFFC0
FFFFC0
FFFFC0
0003C0
0003C0
0003C0
0003C0
0003C0
0003C0
0003C0
0003C0
0003C0
0003C0
0003C0
0003C0
0003C0
0003C0
ENDCHAR
STARTCHAR 252C
ENCODING 9516
SWIDTH 1000 0
DWIDTH 32 0
BBX 32 17 0 -4
BITMAP
FFFFFFFF
00010000
00010000
00010000
00010000
00010000
00010000
00010000
00010000
00010000
00010000
00010000
00010000
00010000
00010000
00010000
00010000
ENDCHAR
STARTCHAR 252F
ENCODING 9519
SWIDTH 1000 0
DWIDTH 32 0
BBX 32 18 0 -4
BITMAP
FFFFFFFF
FFFFFFFF
FFFFFFFF
FFFFFFFF
00010000
00010000
00010000
00010000
00010000
00010000
00010000
00010000
00010000
00010000
00010000
00010000
00010000
00010000
ENDCHAR
STARTCHAR 2530
ENCODING 9520
SWIDTH 1000 0
DWIDTH 32 0
BBX 32 17 0 -4
BITMAP
FFFFFFFF
0003C000
0003C000
0003C000
0003C000
0003C000
0003C000
0003C000
0003C000
0003C000
0003C000
0003C000
0003C000
0003C000
0003C000
0003C000
0003C000
ENDCHAR
STARTCHAR 2533
ENCODING 9523
SWIDTH 1000 0
DWIDTH 32 0
BBX 32 18 0 -4
BITMAP
FFFFFFFF
FFFFFFFF
FFFFFFFF
FFFFFFFF
0003C000
0003C000
0003C000
0003C000
0003C000
0003C000
0003C000
0003C000
0003C000
0003C000
0003C000
0003C000
0003C000
0003C000
ENDCHAR
STARTCHAR 2534
ENCODING 9524
SWIDTH 1000 0
DWIDTH 32 0
BBX 32 16 0 12
BITMAP
00010000
00010000
00010000
00010000
00010000
00010000
00010000
00010000
00010000
00010000
00010000
00010000
00010000
00010000
00010000
FFFFFFFF
ENDCHAR
STARTCHAR 2537
ENCODING 9527
SWIDTH 1000 0
DWIDTH 32 0
BBX 32 18 0 10
BITMAP
00010000
00010000
00010000
00010000
00010000
00010000
00010000
00010000
00010000
00010000
00010000
00010000
00010000
00010000
FFFFFFFF
FFFFFFFF
FFFFFFFF
FFFFFFFF
ENDCHAR
STARTCHAR 2538
ENCODING 9528
SWIDTH 1000 0
DWIDTH 32 0
BBX 32 16 0 12
BITMAP
0003C000
0003C000
0003C000
0003C000
0003C000
0003C000
0003C000
0003C000
0003C000
0003C000
0003C000
0003C000
0003C000
0003C000
0003C000
FFFFFFFF
ENDCHAR
STARTCHAR 253B
ENCODING 9531
SWIDTH 1000 0
DWIDTH 32 0
BBX 32 18 0 10
BITMAP
0003C000
0003C000
0003C000
0003C000
0003C000
0003C000
0003C000
0003C000
0003C000
0003C000
0003C000
0003C000
0003C000
0003C000
FFFFFFFF
FFFFFFFF
FFFFFFFF
FFFFFFFF
ENDCHAR
STARTCHAR 253C
ENCODING 9532
SWIDTH 1000 0
DWIDTH 32 0
BBX 32 32 0 -4
BITMAP
00010000
00010000
00010000
00010000
00010000
00010000
00010000
00010000
00010000
00010000
00010000
00010000
00010000
00010000
00010000
FFFFFFFF
00010000
00010000
00010000
00010000
00010000
00010000
00010000
00010000
00010000
00010000
00010000
00010000
00010000
00010000
00010000
00010000
ENDCHAR
STARTCHAR 253F
ENCODING 9535
SWIDTH 1000 0
DWIDTH 32 0
BBX 32 32 0 -4
BITMAP
00010000
00010000
00010000
00010000
00010000
00010000
00010000
00010000
00010000
00010000
00010000
00010000
00010000
00010000
FFFFFFFF
FFFFFFFF
FFFFFFFF
FFFFFFFF
00010000
00010000
00010000
00010000
00010000
00010000
00010000
00010000
00010000
00010000
00010000
00010000
00010000
00010000
ENDCHAR
STARTCHAR 2542
ENCODING 9538
SWIDTH 1000 0
DWIDTH 32 0
BBX 32 32 0 -4
BITMAP
0003C000
0003C000
0003C000
0003C000
0003C000
0003C000
0003C000
0003C000
0003C000
0003C000
0003C000
0003C000
0003C000
0003C000
0003C000
FFFFFFFF
0003C000
0003C000
0003C000
0003C000
0003C000
0003C000
0003C000
0003C000
0003C000
0003C000
0003C000
0003C000
0003C000
0003C000
0003C000
0003C000
ENDCHAR
STARTCHAR 254B
ENCODING 9547
SWIDTH 1000 0
DWIDTH 32 0
BBX 32 32 0 -4
BITMAP
0003C000
0003C000
0003C000
0003C000
0003C000
0003C000
0003C000
0003C000
0003C000
0003C000
0003C000
0003C000
0003C000
0003C000
FFFFFFFF
FFFFFFFF
FFFFFFFF
FFFFFFFF
0003C000
0003C000
0003C000
0003C000
0003C000
0003C000
0003C000
0003C000
0003C000
0003C000
0003C000
0003C000
0003C000
0003C000
ENDCHAR
STARTCHAR 25A0
ENCODING 9632
SWIDTH 1000 0
DWIDTH 32 0
BBX 24 24 4 0
BITMAP
FFFFFF
FFFFFF
FFFFFF
FFFFFF
FFFFFF
FFFFFF
FFFFFF
FFFFFF
FFFFFF
FFFFFF
FFFFFF
FFFFFF
FFFFFF
FFFFFF
FFFFFF
FFFFFF
FFFFFF
FFFFFF
FFFFFF
FFFFFF
FFFFFF
FFFFFF
FFFFFF
FFFFFF
ENDCHAR
STARTCHAR 25A1
ENCODING 9633
SWIDTH 1000 0
DWIDTH 32 0
BBX 24 24 4 0
BITMAP
FFFFFF
FFFFFF
C00003
C00003
C00003
C00003
C00003
C00003
C00003
C00003
C00003
C00003
C00003
C00003
C00003
C00003
C00003
C00003
C00003
C00003
C00003
C00003
FFFFFF
FFFFFF
ENDCHAR
STARTCHAR 25B1
ENCODING 9649
SWIDTH 500 0
DWIDTH 16 0
BBX 14 8 1 8
BITMAP
0FFC
1FF8
1018
3010
2030
6060
7FE0
FFC0
ENDCHAR
STARTCHAR 25B2
ENCODING 9650
SWIDTH 1000 0
DWIDTH 32 0
BBX 26 24 3 1
BITMAP
000C0000
000C0000
001E0000
001E0000
003F0000
003F0000
007F8000
007F8000
00FFC000
00FFC000
01FFE000
01FFE000
03FFF000
03FFF000
07FFF800
07FFF800
0FFFFC00
0FFFFC00
1FFFFE00
3FFFFE00
3FFFFF00
7FFFFF80
7FFFFF80
FFFFFFC0
ENDCHAR
STARTCHAR 25B3
ENCODING 9651
SWIDTH 1000 0
DWIDTH 32 0
BBX 26 24 3 1
BITMAP
000C0000
000C0000
001E0000
001E0000
003F0000
00330000
00738000
00618000
00E1C000
00C0C000
01C0E000
01806000
03807000
03003000
07003800
06001800
0E001C00
0C000C00
1C000E00
18000600
38000700
70000380
7FFFFF80
FFFFFFC0
ENDCHAR
STARTCHAR 25B6
ENCODING 9654
SWIDTH 500 0
DWIDTH 16 0
BBX 13 17 2 4
BITMAP
8000
C000
F000
F800
FE00
FF00
FFC0
FFE0
FFF8
FFF0
FFE0
FF80
FF00
FC00
F800
E000
C000
ENDCHAR
STARTCHAR 25B7
ENCODING 9655
SWIDTH 500 0
DWIDTH 16 0
BBX 12 17 2 4
BITMAP
8000
C000
F000
B800
8E00
8700
8180
80E0
8030
8070
80C0
8380
8700
9C00
B800
E000
C000
ENDCHAR
STARTCHAR 25BC
ENCODING 9660
SWIDTH 1000 0
DWIDTH 32 0
BBX 26 24 3 -1
BITMAP
FFFFFFC0
7FFFFF80
7FFFFF80
3FFFFF00
1FFFFF00
1FFFFE00
0FFFFC00
0FFFFC00
07FFF800
07FFF800
03FFF000
03FFF000
01FFE000
01FFE000
00FFC000
00FFC000
007F8000
007F8000
003F0000
003F0000
001E0000
001E0000
000C0000
000C0000
ENDCHAR
STARTCHAR 25BD
ENCODING 9661
SWIDTH 1000 0
DWIDTH 32 0
BBX 26 24 3 -1
BITMAP
FFFFFFC0
7FFFFF80
70000380
38000700
18000600
1C000E00
0C000C00
0E001C00
06001800
07003800
03003000
03807000
01806000
01C0E000
00C0C000
00E1C000
00618000
00738000
00330000
003F0000
001E0000
001E0000
000C0000
000C0000
ENDCHAR
STARTCHAR 25C0
ENCODING 9664
SWIDTH 500 0
DWIDTH 16 0
BBX 13 17 1 4
BITMAP
0008
0018
0078
00F8
03F8
07F8
1FF8
3FF8
FFF8
7FF8
3FF8
0FF8
07F8
01F8
00F8
0038
0018
ENDCHAR
STARTCHAR 25C1
ENCODING 9665
SWIDTH 500 0
DWIDTH 16 0
BBX 12 17 2 4
BITMAP
0010
0030
00F0
01D0
0710
0E10
1810
7010
C010
E010
3010
1C10
0E10
0390
01D0
0070
0030
ENDCHAR
STARTCHAR 25C6
ENCODING 9670
SWIDTH 1000 0
DWIDTH 32 0
BBX 28 28 2 -2
BITMAP
00060000
000F0000
001F8000
003FC000
007FE000
00FFF000
01FFF800
03FFFC00
07FFFE00
0FFFFF00
1FFFFF80
3FFFFFC0
7FFFFFE0
FFFFFFF0
FFFFFFF0
7FFFFFE0
3FFFFFC0
1FFFFF80
0FFFFF00
07FFFE00
03FFFC00
01FFF800
00FFF000
007FE000
003FC000
001F8000
000F0000
00060000
ENDCHAR
STARTCHAR 25C7
ENCODING 9671
SWIDTH 1000 0
DWIDTH 32 0
BBX 28 28 2 -2
BITMAP
00060000
000F0000
001F8000
0039C000
0070E000
00E07000
01C03800
03801C00
07000E00
0E000700
1C000380
380001C0
700000E0
E0000070
E0000070
700000E0
380001C0
1C000380
0E000700
07000E00
03801C00
01C03800
00E07000
0070E000
0039C000
001F8000
000F0000
00060000
ENDCHAR
STARTCHAR 25C9
ENCODING 9673
SWIDTH 500 0
DWIDTH 16 0
BBX 14 14 1 5
BITMAP
0F80
1860
2010
4788
CFCC
9FE4
9FE4
9FE4
9FE4
CFCC
4788
2010
1060
0FC0
ENDCHAR
STARTCHAR 25CB
ENCODING 9675
SWIDTH 1000 0
DWIDTH 32 0
BBX 26 26 3 -1
BITMAP
003F8000
01FFE000
07C07800
0F001C00
1C000E00
38000700
30000300
70000180
60000180
E00001C0
C00000C0
C00000C0
C00000C0
C00000C0
C00000C0
C00000C0
E00001C0
60000180
70000180
30000300
38000700
1C000E00
0F003C00
07C0F800
01FFE000
007F8000
ENDCHAR
STARTCHAR 25CE
ENCODING 9678
SWIDTH 1000 0
DWIDTH 32 0
BBX 26 27 3 -1
BITMAP
003F0000
01FFE000
03C0F000
0F003C00
1C000E00
18000600
303F0300
70FFC380
61C1E180
63807180
C30030C0
C60038C0
C60018C0
C60018C0
C60018C0
C60018C0
C70038C0
63003180
63807180
71C1E380
30FFC300
183F0600
1C000E00
0E003C00
03C0F000
01FFE000
003F0000
ENDCHAR
STARTCHAR 25CF
ENCODING 9679
SWIDTH 1000 0
DWIDTH 32 0
BBX 27 27 3 -1
BITMAP
003F8000
01FFF000
03FFF800
0FFFFC00
1FFFFF00
1FFFFF00
3FFFFF80
7FFFFFC0
7FFFFFC0
7FFFFFC0
FFFFFFE0
FFFFFFE0
FFFFFFE0
FFFFFFE0
FFFFFFE0
FFFFFFE0
FFFFFFE0
7FFFFFC0
7FFFFFC0
7FFFFFC0
3FFFFF80
1FFFFF00
1FFFFF00
0FFFFE00
03FFF800
01FFF000
003F8000
ENDCHAR
STARTCHAR 25D0
ENCODING 9680
SWIDTH 500 0
DWIDTH 16 0
BBX 14 14 1 5
BITMAP
0FC0
1E60
3E10
7E08
FE0C
FE04
FE04
FE04
FE04
FE0C
7E08
3E30
1FE0
0FC0
ENDCHAR
STARTCHAR 25D1
ENCODING 9681
SWIDTH 500 0
DWIDTH 16 0
BBX 14 14 1 5
BITMAP
0F80
19E0
21F0
41F8
C1FC
81FC
81FC
81FC
81FC
C1FC
41F8
31F0
1FE0
0F80
ENDCHAR
STARTCHAR 25D2
ENCODING 9682
SWIDTH 500 0
DWIDTH 16 0
BBX 14 14 1 5
BITMAP
0FC0
1860
2010
4008
C00C
C004
8004
FFFC
FFFC
FFFC
7FF8
3FF0
1FE0
0FC0
ENDCHAR
STARTCHAR 25D3
ENCODING 9683
SWIDTH 500 0
DWIDTH 16 0
BBX 14 14 1 5
BITMAP
0FC0
1FE0
3FF0
7FF8
FFF8
FFFC
FFFC
8004
800C
C00C
4008
2010
1860
0FC0
ENDCHAR
STARTCHAR 25E6
ENCODING 9702
SWIDTH 500 0
DWIDTH 16 0
BBX 8 9 4 8
BITMAP
38
7C
E6
C3
C3
C3
E7
7E
3C
ENDCHAR
STARTCHAR 25EF
ENCODING 9711
SWIDTH 1000 0
DWIDTH 32 0
BBX 30 30 1 -3
BITMAP
001FE000
00E01800
03800600
06000100
0C0000C0
18000040
30000020
20000010
60000010
40000008
40000008
80000004
80000004
80000004
80000004
80000004
80000004
80000004
80000004
40000008
40000008
20000010
20000010
10000020
18000060
0C0000C0
06000180
01800600
00601800
001FE000
ENDCHAR
STARTCHAR 2600
ENCODING 9728
SWIDTH 1000 0
DWIDTH 32 0
BBX 30 30 1 -3
BITMAP
00020000
00020000
00020000
00020000
00020000
04020180
02000300
010FC600
00BFF400
007FF800
00FFFC00
00FFFC00
01FFFE00
01FFFE00
FDFFFEFC
01FFFE00
01FFFE00
01FFFC00
00FFFC00
00FFF800
007FF000
01BFE400
030F8200
06000100
04020080
00020000
00020000
00020000
00020000
00020000
ENDCHAR
STARTCHAR 2601
ENCODING 9729
SWIDTH 1000 0
DWIDTH 32 0
BBX 28 22 2 -1
BITMAP
003E0000
00FF0000
01FF8000
01FFC000
03FFE000
03FFE000
03FFF3C0
03FFF7E0
07FFFFF0
07FFFFF0
1FFFFFF0
7FFFFFF0
7FFFFFE0
FFFFFF80
FFFFFFE0
FFFFFFF0
FFFFFFF0
FFF3FFF0
7FF3FFF0
3FC1FFE0
1F00FFC0
00003F00
ENDCHAR
STARTCHAR 2602
ENCODING 9730
SWIDTH 1000 0
DWIDTH 32 0
BBX 29 30 1 -3
BITMAP
00020000
00020000
00020000
003FE000
01FFFC00
07FFFF00
0FFFFF80
1FFFFFC0
3FFFFFE0
7FFFFFE0
7FFFFFF0
47CF9F10
83870E18
81020408
81020408
00020000
00020000
00020000
00020000
00020000
00020000
00020000
00020000
00020000
00020000
00020000
00220000
00220000
00260000
003C0000
ENDCHAR
STARTCHAR 2603
ENCODING 9731
SWIDTH 1000 0
DWIDTH 32 0
BBX 30 29 1 -2
BITMAP
C00E1018
400A2818
81842418
02804200
01008100
000100C0
30020080
303E0100
00C10130
0100E230
01001E00
0218C100
0218C100
7218C100
52000100
21084200
0087841C
0300030C
C4000080
C8000040
08030040
10030020
10030020
10000020
10030020
18030060
080300C0
06000180
01FFFE00
ENDCHAR
STARTCHAR 2605
ENCODING 9733
SWIDTH 1000 0
DWIDTH 32 0
BBX 28 27 2 -1
BITMAP
00040000
00060000
00060000
00060000
000F0000
000F0000
000F0000
001F8000
001F8000
001F8000
FFFFFFF0
3FFFFFC0
1FFFFF80
0FFFFF00
03FFFC00
01FFF800
00FFF000
00FFF000
00FFF000
01FFF800
01FFF800
01F9F800
03F07C00
03C03C00
03801C00
06000600
04000200
ENDCHAR
STARTCHAR 2606
ENCODING 9734
SWIDTH 1000 0
DWIDTH 32 0
BBX 28 28 2 -2
BITMAP
00040000
00060000
00060000
00060000
000F0000
000F0000
00090000
00198000
00198000
00108000
FFF0FFF0
3FF0FFC0
1C000380
0E000700
03000E00
01801800
00C03000
00C03000
00801000
01861800
018F1800
01198800
0370EC00
03E07C00
03801C00
07000E00
06000600
08000200
ENDCHAR
STARTCHAR 260E
ENCODING 9742
SWIDTH 1000 0
DWIDTH 32 0
BBX 30 24 1 0
BITMAP
07FFFF80
1FFFFFE0
3FFFFFF0
7FF03FF8
7C7038F8
F87038FC
F870387C
F87FF87C
00FFFC00
01FFFE00
03F87F00
03E01F00
03C00F00
07800780
07800780
0F8007C0
1F8007E0
3F8007E0
3FC00FF0
3FE01FF0
7FF07FF8
7FFFFFF8
7FFFFFF8
7FFFFFF8
ENDCHAR
STARTCHAR 2616
ENCODING 9750
SWIDTH 1000 0
DWIDTH 32 0
BBX 26 25 3 1
BITMAP
001E0000
007F0000
00F3C000
03C0F000
0F807C00
1E001E00
38000700
30000300
30000300
30000300
30000300
30000300
30000300
30000300
70000300
70000380
60000180
60000180
60000180
60000180
60000180
60000180
60000180
FFFFFFC0
FFFFFFC0
ENDCHAR
STARTCHAR 2617
ENCODING 9751
SWIDTH 1000 0
DWIDTH 32 0
BBX 26 25 3 1
BITMAP
001E0000
007F8000
00FFC000
03FFF000
0FFFFC00
1FFFFE00
3FFFFF00
3FFFFF00
3FFFFF00
3FFFFF00
3FFFFF00
3FFFFF00
3FFFFF00
3FFFFF00
7FFFFF00
7FFFFF80
7FFFFF80
7FFFFF80
7FFFFF80
7FFFFF80
7FFFFF80
7FFFFF80
7FFFFF80
FFFFFFC0
FFFFFFC0
ENDCHAR
STARTCHAR 261E
ENCODING 9758
SWIDTH 1000 0
DWIDTH 32 0
BBX 28 13 2 6
BITMAP
783E3FC0
44E1C030
87804010
86006030
84049FC0
841BA800
87E0C600
88036200
88029C00
84058400
8B054400
8AC23800
8439F000
ENDCHAR
STARTCHAR 2640
ENCODING 9792
SWIDTH 1000 0
DWIDTH 32 0
BBX 20 28 6 -2
BITMAP
01F000
03FC00
070E00
0E0700
0C0300
180180
180180
180180
180180
180180
0C0300
0E0700
070E00
03FC00
006000
006000
006000
006000
FFFFF0
FFFFF0
006000
006000
006000
006000
006000
006000
006000
006000
ENDCHAR
STARTCHAR 2642
ENCODING 9794
SWIDTH 1000 0
DWIDTH 32 0
BBX 25 25 4 0
BITMAP
0003FF80
0003FF80
00000780
00000F80
00001D80
00003980
00007180
0000E180
0001C180
00038180
00070180
0F8E0000
3FFC0000
78780000
60380000
E0180000
C00C0000
C00C0000
C00C0000
C00C0000
E01C0000
60180000
38700000
1FE00000
0FC00000
ENDCHAR
STARTCHAR 2660
ENCODING 9824
SWIDTH 500 0
DWIDTH 16 0
BBX 14 18 1 4
BITMAP
0300
0780
0FC0
1FC0
1FE0
3FF0
7FF8
7FF8
FFFC
FFFC
FFFC
FFFC
FFFC
7FF8
0780
0780
0780
0FC0
ENDCHAR
STARTCHAR 2661
ENCODING 9825
SWIDTH 500 0
DWIDTH 16 0
BBX 14 17 1 2
BITMAP
3CF0
4788
8304
8304
8004
8004
8004
C00C
4008
6018
3010
3030
1860
0840
0CC0
0780
0300
ENDCHAR
STARTCHAR 2662
ENCODING 9826
SWIDTH 500 0
DWIDTH 16 0
BBX 12 20 2 2
BITMAP
0600
0600
0F00
1980
1080
30C0
6040
6060
C030
8010
C030
C030
6060
2040
30C0
1980
0900
0F00
0600
0400
ENDCHAR
STARTCHAR 2663
ENCODING 9827
SWIDTH 500 0
DWIDTH 16 0
BBX 14 18 1 3
BITMAP
0780
0FC0
1FE0
1FE0
1FE0
1FC0
3FF0
7FF8
FFFC
FFFC
FFFC
FFFC
7FF8
7FF8
0780
0780
0780
0FC0
ENDCHAR
STARTCHAR 2664
ENCODING 9828
SWIDTH 500 0
DWIDTH 16 0
BBX 14 19 1 3
BITMAP
0200
0300
0780
0CC0
1860
3020
2010
4008
4008
8004
8004
8004
8484
CCCC
7CF8
0480
0480
0CC0
0FC0
ENDCHAR
STARTCHAR 2665
ENCODING 9829
SWIDTH 500 0
DWIDTH 16 0
BBX 14 17 1 3
BITMAP
3870
7CF8
FFFC
FFFC
FFFC
FFFC
FFFC
FFFC
7FF8
7FF8
3FF0
3FF0
1FE0
1FE0
0FC0
0780
0300
ENDCHAR
STARTCHAR 2666
ENCODING 9830
SWIDTH 500 0
DWIDTH 16 0
BBX 12 20 2 2
BITMAP
0600
0600
0F00
1F80
1F80
3FC0
7FC0
7FE0
FFF0
FFF0
FFF0
FFF0
7FE0
3FC0
3FC0
1F80
0F00
0F00
0600
0400
ENDCHAR
STARTCHAR 2667
ENCODING 9831
SWIDTH 500 0
DWIDTH 16 0
BBX 14 19 1 3
BITMAP
0780
0840
1020
1020
1020
1020
0840
7CF0
4008
8004
8004
8004
8484
4CC8
7CF8
0480
0480
0C80
0FC0
ENDCHAR
STARTCHAR 2668
ENCODING 9832
SWIDTH 1000 0
DWIDTH 32 0
BBX 28 26 2 0
BITMAP
000C0000
000C0000
03183000
02182000
06186000
06186000
06186000
061C6000
070C3000
030E3000
03861800
01861800
00C30C00
00C30C00
10C30C80
70C30CC0
60830C60
C1821830
C3061830
C00C0030
E0000070
700000E0
3C0003C0
1F801F80
07FFFE00
00FFF000
ENDCHAR
STARTCHAR 2669
ENCODING 9833
SWIDTH 500 0
DWIDTH 16 0
BBX 6 18 4 3
BITMAP
04
04
04
04
04
04
04
04
04
04
04
04
04
04
7C
FC
F8
78
ENDCHAR
STARTCHAR 266A
ENCODING 9834
SWIDTH 1000 0
DWIDTH 32 0
BBX 21 27 6 -1
BITMAP
00C000
00E000
00E000
00F800
00FC00
00DE00
00CF80
00C3C0
00C1E0
00C0F0
00C078
00C038
00C018
00C018
00C018
00C030
00C030
00C060
00C0C0
00C180
00C000
3FC000
7FC000
FFC000
FF8000
FF0000
3E0000
ENDCHAR
STARTCHAR 266B
ENCODING 9835
SWIDTH 500 0
DWIDTH 16 0
BBX 14 18 1 4
BITMAP
001C
03FC
0FFC
0FC4
0804
0804
0804
0804
0804
0804
0804
0804
0804
087C
787C
F878
F800
F000
ENDCHAR
STARTCHAR 266C
ENCODING 9836
SWIDTH 500 0
DWIDTH 16 0
BBX 14 18 1 4
BITMAP
001C
03FC
0FFC
0F04
087C
0FFC
0FE4
0C04
0804
0804
0804
0804
0804
083C
787C
F878
F800
F000
ENDCHAR
STARTCHAR 266D
ENCODING 9837
SWIDTH 1000 0
DWIDTH 32 0
BBX 13 27 11 -1
BITMAP
C000
C000
C000
C000
C000
C000
C000
C000
C000
C3C0
CFF0
DC70
F038
E038
C038
C038
C038
C070
C070
C0E0
C1C0
C380
C700
DE00
FC00
F000
8000
ENDCHAR
STARTCHAR 266E
ENCODING 9838
SWIDTH 500 0
DWIDTH 16 0
BBX 6 18 5 3
BITMAP
80
80
80
84
BC
FC
C4
84
84
84
84
BC
FC
E4
04
04
04
04
ENDCHAR
STARTCHAR 266F
ENCODING 9839
SWIDTH 1000 0
DWIDTH 32 0
BBX 20 28 6 -2
BITMAP
000600
060600
060600
060600
060600
060600
060630
060FF0
07FFF0
FFFE00
FE0600
860600
060600
060600
060600
060600
060630
060FF0
07FFF0
FFFE00
FE0600
860600
060600
060600
060600
060600
060600
060000
ENDCHAR
STARTCHAR 2713
ENCODING 10003
SWIDTH 1000 0
DWIDTH 32 0
BBX 21 21 7 3
BITMAP
000008
000010
000030
000020
000040
000080
000180
000300
000600
000C00
000800
001800
403000
E06000
E0C000
718000
738000
3F0000
3E0000
1C0000
180000
ENDCHAR
STARTCHAR 2756
ENCODING 10070
SWIDTH 1000 0
DWIDTH 32 0
BBX 28 28 2 -2
BITMAP
00060000
000F0000
001F8000
003FC000
007FE000
00FFF000
00FFF000
007FE000
063FC600
0F1F8F00
1F8F1F80
3FC63FC0
7FE07FE0
FFF0FFF0
FFF0FFF0
7FE07FE0
3FC63FC0
1F8F1F80
0F1F8F00
063FC600
007FE000
00FFF000
00FFF000
007FE000
003FC000
001F8000
000F0000
00060000
ENDCHAR
STARTCHAR 2776
ENCODING 10102
SWIDTH 1000 0
DWIDTH 32 0
BBX 31 30 0 -3
BITMAP
000FE000
007FFC00
01FFFF00
03FFFF80
07FFFFC0
0FFE3FE0
1FF83FF0
3FE03FF8
3FE23FF8
7FFE3FFC
7FFE3FFC
FFFE3FFE
FFFE3FFE
FFFE3FFE
FFFE3FFE
FFFE3FFE
FFFE3FFE
FFFE3FFE
FFFE3FFE
7FFE3FFC
7FFE3FFC
3FFE3FF8
3FFE3FF8
1FFE3FF0
0FFE3FE0
0FFFFFC0
03FFFF80
01FFFF00
007FFC00
000FE000
ENDCHAR
STARTCHAR 2777
ENCODING 10103
SWIDTH 1000 0
DWIDTH 32 0
BBX 30 30 1 -3
BITMAP
001FE000
00FFF800
03FFFE00
07FFFF00
0FF03F80
1FE00FC0
3FC787E0
3F8FC7F0
7F9FE3F0
7F1FE3F8
7F1FE3F8
FFFFE3FC
FFFFC7FC
FFFF07FC
FFFE0FFC
FFF83FFC
FFF07FFC
FFE1FFFC
FFC3FFFC
7F87FFF8
7F8FFFF8
3F1FFFF0
3F0003F0
1F0003E0
0FFFFFE0
0FFFFFC0
07FFFF80
01FFFE00
007FF800
001FE000
ENDCHAR
STARTCHAR 2778
ENCODING 10104
SWIDTH 1000 0
DWIDTH 32 0
BBX 30 30 1 -3
BITMAP
001FE000
00FFF800
01FFFE00
07FFFF00
0FF07FC0
1FC01FC0
3F800FE0
3F8787F0
7F1FE7F0
7F1FE7F8
7FFFE7F8
FFFFE7FC
FFFF8FFC
FFF01FFC
FFF03FFC
FFFF87FC
FFFFE7FC
FFFFF3FC
FFFFF3FC
7E3FF3F8
7F1FF3F8
7F1FE7F0
3F87C7F0
1FC00FE0
1FF03FE0
0FFFFFC0
07FFFF80
01FFFE00
007FF800
001FE000
ENDCHAR
STARTCHAR 2779
ENCODING 10105
SWIDTH 1000 0
DWIDTH 32 0
BBX 32 30 0 -3
BITMAP
000FF000
007FFE00
01FFFF80
03FFFFC0
07FFFFE0
0FFF0FF0
1FFF0FF8
3FFE0FFC
3FFC0FFC
7FF88FFE
7FF88FFE
FFF18FFF
FFE38FFF
FFC78FFF
FFC78FFF
FF8F8FFF
FF1F8FFF
FE3F8FFF
FE0000FF
7E0000FE
7FFF8FFE
3FFF8FFC
3FFF8FFC
1FFF8FF8
0FFF8FF0
07FFFFE0
03FFFFC0
01FFFF80
007FFE00
000FF000
ENDCHAR
STARTCHAR 277A
ENCODING 10106
SWIDTH 1000 0
DWIDTH 32 0
BBX 30 30 1 -3
BITMAP
001FE000
00FFF800
03FFFE00
07FFFF00
0FFFFFC0
1FC007C0
3F8007E0
3F8FFFF0
7F8FFFF0
7F8FFFF8
7F8FFFF8
FF883FFC
FF800FFC
FF87C7FC
FF8FE7FC
FF9FF3FC
FFFFF3FC
FFFFF3FC
FFFFF3FC
7FFFF3F8
7F1FE3F8
3F8FE7F0
3FC7CFF0
1FE00FE0
1FF03FE0
0FFFFFC0
07FFFF80
01FFFE00
007FF800
001FE000
ENDCHAR
STARTCHAR 277B
ENCODING 10107
SWIDTH 1000 0
DWIDTH 32 0
BBX 30 31 1 -3
BITMAP
001FE000
007FF800
01FFFE00
03FFFF00
07FFFF80
0FF83FC0
1FE00FE0
3FE387F0
3FCFC7F0
7F8FE3F8
7F9FFFF8
FF9FFFF8
FF1FFFFC
FF183FFC
FF200FFC
FF0787FC
FF0FC7FC
FF1FE3FC
FF1FE3FC
FF1FE3F8
7F9FE3F8
7F9FE3F8
3F8FC7F0
3FC787F0
1FE00FE0
0FF83FC0
0FFFFF80
03FFFF00
01FFFE00
007FF800
001FE000
ENDCHAR
STARTCHAR 277C
ENCODING 10108
SWIDTH 1000 0
DWIDTH 32 0
BBX 30 30 1 -3
BITMAP
001FE000
007FF800
01FFFE00
03FFFF80
07FFFFC0
0FFFFFE0
1F8003E0
3F8003F0
3FFFE3F0
7FFFC7F8
7FFFC7F8
FFFFCFFC
FFFF8FFC
FFFF9FFC
FFFF1FFC
FFFF1FFC
FFFF3FFC
FFFE3FFC
FFFE7FFC
7FFC7FF8
7FFC7FF8
7FFCFFF0
3FF8FFF0
1FF8FFE0
1FF8FFE0
0FF1FFC0
07FFFF80
01FFFE00
007FF800
001FE000
ENDCHAR
STARTCHAR 277D
ENCODING 10109
SWIDTH 1000 0
DWIDTH 32 0
BBX 30 30 1 -3
BITMAP
001FE000
00FFF800
03FFFE00
07FFFF00
0FF03FC0
1FC00FC0
3F8007E0
3F8787F0
7F1FE3F0
7F1FE3F8
7F1FE3F8
FF1FE3FC
FF8787FC
FFC00FFC
FFE01FFC
FFC00FFC
FF8F87FC
FF1FE3FC
FF3FF3FC
7F3FF3F8
7F3FF3F8
3F1FE3F0
3F8FC7F0
1FC00FE0
1FF03FE0
0FFFFFC0
07FFFF80
01FFFE00
007FF800
001FE000
ENDCHAR
STARTCHAR 277E
ENCODING 10110
SWIDTH 1000 0
DWIDTH 32 0
BBX 30 30 1 -3
BITMAP
001FE000
007FF800
01FFFE00
03FFFF00
0FFFFFC0
1FF03FC0
1FE01FE0
3FC78FF0
7FCFC7F0
7F9FE7F8
7F9FE7F8
FF9FE3FC
FF9FE3FC
FF9FE3FC
FF8FC3FC
FFC783FC
FFE013FC
FFF073FC
FFFFE3FC
7FFFE3F8
7F8FE7F8
7F8FC7F0
3F878FF0
1FC00FE0
1FE01FE0
0FF07FC0
07FFFF80
01FFFE00
007FF800
001FE000
ENDCHAR
STARTCHAR 277F
ENCODING 10111
SWIDTH 1000 0
DWIDTH 32 0
BBX 30 30 1 -3
BITMAP
001FE000
00FFF800
03FFFE00
07FFFF00
0FFFFFC0
1F3F87C0
3C3F01E0
383E39F0
783E7CF0
7E3E7CF8
7E3CFE78
FE3CFE7C
FE3CFE7C
FE3CFE7C
FE3CFE7C
FE3CFE7C
FE3CFE7C
FE3CFE7C
FE3CFE7C
7E3CFE78
7E3E7CF8
3E3E7CF0
3E3E39F0
1E3F01E0
1E3F87E0
0FFFFFC0
07FFFF80
01FFFE00
007FF800
001FE000
ENDCHAR
STARTCHAR 2934
ENCODING 10548
SWIDTH 500 0
DWIDTH 16 0
BBX 12 24 2 2
BITMAP
0300
0780
0FC0
1FE0
3B70
3330
2310
0300
0300
0300
0300
0300
0300
0300
0300
0300
0300
0300
0300
0300
0700
0E00
FC00
F800
ENDCHAR
STARTCHAR 2935
ENCODING 10549
SWIDTH 500 0
DWIDTH 16 0
BBX 12 24 2 -1
BITMAP
F800
FC00
0E00
0600
0300
0300
0300
0300
0300
0300
0300
0300
0300
0300
0300
0300
0300
2310
3330
3B70
1FE0
0FC0
0780
0300
ENDCHAR
STARTCHAR 29BF
ENCODING 10687
SWIDTH 1000 0
DWIDTH 32 0
BBX 26 27 3 -1
BITMAP
003F0000
01FFE000
03C0F000
0F003C00
1C000E00
18000600
30000300
70000380
60000180
600E0180
C03F80C0
C07F80C0
C07FC0C0
C07FC0C0
C07FC0C0
C07FC0C0
C03F80C0
601F0180
60000180
70000380
30000300
18000600
1C000E00
0F003C00
03C0F000
01FFE000
003F0000
ENDCHAR
STARTCHAR 29FA
ENCODING 10746
SWIDTH 500 0
DWIDTH 16 0
BBX 12 20 2 2
BITMAP
30C0
30C0
30C0
30C0
30C0
30C0
30C0
30C0
30C0
FFF0
FFF0
30C0
30C0
30C0
30C0
30C0
30C0
30C0
30C0
30C0
ENDCHAR
STARTCHAR 29FB
ENCODING 10747
SWIDTH 500 0
DWIDTH 16 0
BBX 14 20 1 2
BITMAP
3330
3330
3330
3330
3330
3330
3330
3330
3330
FFFC
FFFC
3330
3330
3330
3330
3330
3330
3330
3330
3330
ENDCHAR
STARTCHAR 3000
ENCODING 12288
SWIDTH 1000 0
DWIDTH 32 0
BBX 0 0 0 0
BITMAP
ENDCHAR
STARTCHAR 3001
ENCODING 12289
SWIDTH 1000 0
DWIDTH 32 0
BBX 6 8 2 -2
BITMAP
40
E0
F0
78
3C
1C
0C
08
ENDCHAR
STARTCHAR 3002
ENCODING 12290
SWIDTH 1000 0
DWIDTH 32 0
BBX 8 8 2 -2
BITMAP
3C
66
C3
81
81
81
42
3C
ENDCHAR
STARTCHAR 3003
ENCODING 12291
SWIDTH 1000 0
DWIDTH 32 0
BBX 15 14 8 5
BITMAP
070E
071C
0E1C
0E18
0C38
1C38
1C30
1870
3860
3060
30E0
70C0
61C0
E180
ENDCHAR
STARTCHAR 3005
ENCODING 12293
SWIDTH 1000 0
DWIDTH 32 0
BBX 21 20 5 1
BITMAP
008000
00C000
01C000
01C000
018000
03FFF0
03FFF8
070070
0E0060
0C00E0
1C01C0
380180
708380
E1E700
40FE00
003C00
001C00
000E00
000700
000300
ENDCHAR
STARTCHAR 3006
ENCODING 12294
SWIDTH 1000 0
DWIDTH 32 0
BBX 23 24 5 1
BITMAP
000008
00001E
00003C
000078
000070
0000E0
0381C0
07E380
0CF700
1C3F00
181E00
181E00
303F00
307380
70E1C0
61C080
638000
670000
CF0000
CE0000
DC0000
F80000
F00000
600000
ENDCHAR
STARTCHAR 3007
ENCODING 12295
SWIDTH 1000 0
DWIDTH 32 0
BBX 26 26 3 -1
BITMAP
003F8000
01FFE000
03C0F800
0F003C00
1C000E00
38000700
30000380
60000380
60000180
E00001C0
C00000C0
C00000C0
C00000C0
C00000C0
C00000C0
C00000C0
E0000180
60000180
60000180
30000300
38000700
1C000E00
0E003C00
07C0F800
01FFE000
007F8000
ENDCHAR
STARTCHAR 3008
ENCODING 12296
SWIDTH 1000 0
DWIDTH 32 0
BBX 13 29 17 -2
BITMAP
0038
0070
0060
00E0
01C0
0180
0380
0700
0E00
0C00
1C00
3800
3000
7000
E000
7000
3000
3800
1C00
0C00
0E00
0700
0380
0180
01C0
00E0
0060
0070
0038
ENDCHAR
STARTCHAR 3009
ENCODING 12297
SWIDTH 1000 0
DWIDTH 32 0
BBX 13 29 2 -2
BITMAP
E000
7000
3000
3800
1C00
0C00
0E00
0700
0380
0180
01C0
00E0
0060
0030
0038
0070
0060
00E0
01C0
0180
0380
0700
0E00
0C00
1C00
3800
3000
7000
E000
ENDCHAR
STARTCHAR 300A
ENCODING 12298
SWIDTH 1000 0
DWIDTH 32 0
BBX 14 29 17 -2
BITMAP
018C
0198
0318
0330
0670
0660
0CC0
1CC0
1980
3180
3300
6300
6600
C600
CC00
C600
6600
6300
3300
3180
1980
0CC0
0CC0
0660
0670
0330
0318
0198
018C
ENDCHAR
STARTCHAR 300B
ENCODING 12299
SWIDTH 1000 0
DWIDTH 32 0
BBX 14 29 1 -2
BITMAP
C600
6600
6300
3300
3180
1980
0CC0
0CC0
0660
0630
0330
0318
0198
018C
00CC
018C
0198
0318
0330
0630
0660
0CC0
0CC0
1980
3980
3300
6300
6600
C600
ENDCHAR
STARTCHAR 300C
ENCODING 12300
SWIDTH 1000 0
DWIDTH 32 0
BBX 8 24 21 3
BITMAP
FF
FF
C0
C0
C0
C0
C0
C0
C0
C0
C0
C0
C0
C0
C0
C0
C0
C0
C0
C0
C0
C0
C0
C0
ENDCHAR
STARTCHAR 300D
ENCODING 12301
SWIDTH 1000 0
DWIDTH 32 0
BBX 8 23 3 -2
BITMAP
03
03
03
03
03
03
03
03
03
03
03
03
03
03
03
03
03
03
03
03
03
FF
FF
ENDCHAR
STARTCHAR 300E
ENCODING 12302
SWIDTH 1000 0
DWIDTH 32 0
BBX 12 24 18 3
BITMAP
FFF0
FFF0
C030
C030
C7F0
C7F0
C600
C600
C600
C600
C600
C600
C600
C600
C600
C600
C600
C600
C600
C600
C600
C600
FE00
FE00
ENDCHAR
STARTCHAR 300F
ENCODING 12303
SWIDTH 1000 0
DWIDTH 32 0
BBX 12 23 2 -2
BITMAP
07F0
07F0
0630
0630
0630
0630
0630
0630
0630
0630
0630
0630
0630
0630
0630
0630
0630
FE30
FE30
C030
C030
FFF0
FFF0
ENDCHAR
STARTCHAR 3010
ENCODING 12304
SWIDTH 1000 0
DWIDTH 32 0
BBX 7 29 23 -2
BITMAP
FE
FC
F8
F8
F0
F0
E0
E0
E0
E0
C0
C0
C0
C0
C0
C0
C0
C0
C0
C0
E0
E0
E0
F0
F0
F8
F8
FC
FE
ENDCHAR
STARTCHAR 3011
ENCODING 12305
SWIDTH 1000 0
DWIDTH 32 0
BBX 7 29 2 -2
BITMAP
FE
7E
3E
3E
1E
1E
0E
0E
0E
0E
06
06
06
06
06
06
06
06
06
0E
0E
0E
0E
1E
1E
3E
3E
7E
FE
ENDCHAR
STARTCHAR 3012
ENCODING 12306
SWIDTH 1000 0
DWIDTH 32 0
BBX 22 26 5 -2
BITMAP
FFFFFC
FFFFFC
FFFFFC
000000
000000
000000
000000
000000
FFFFFC
FFFFFC
FFFFFC
007000
007000
007000
007000
007000
007000
007000
007000
007000
007000
007000
007000
007000
007000
007000
ENDCHAR
STARTCHAR 3013
ENCODING 12307
SWIDTH 1000 0
DWIDTH 32 0
BBX 22 14 5 5
BITMAP
FFFFFC
FFFFFC
FFFFFC
FFFFFC
000000
000000
000000
000000
000000
FFFFFC
FFFFFC
FFFFFC
FFFFFC
FFFFFC
ENDCHAR
STARTCHAR 3014
ENCODING 12308
SWIDTH 1000 0
DWIDTH 32 0
BBX 7 28 22 -2
BITMAP
06
1E
7C
E0
C0
C0
C0
C0
C0
C0
C0
C0
C0
C0
C0
C0
C0
C0
C0
C0
C0
C0
C0
C0
F0
7C
1E
02
ENDCHAR
STARTCHAR 3015
ENCODING 12309
SWIDTH 1000 0
DWIDTH 32 0
BBX 7 28 3 -2
BITMAP
C0
F0
7C
0E
06
06
06
06
06
06
06
06
06
06
06
06
06
06
06
06
06
06
06
06
1E
7C
F0
80
ENDCHAR
STARTCHAR 3016
ENCODING 12310
SWIDTH 1000 0
DWIDTH 32 0
BBX 10 29 19 -2
BITMAP
FFC0
FFC0
C180
C380
C300
C300
C600
C600
C600
CE00
CC00
CC00
CC00
CC00
CC00
CC00
CC00
CC00
CC00
CC00
C600
C600
C600
C300
C300
C380
C180
FFC0
FFC0
ENDCHAR
STARTCHAR 3017
ENCODING 12311
SWIDTH 1000 0
DWIDTH 32 0
BBX 10 29 3 -2
BITMAP
FFC0
FFC0
60C0
60C0
30C0
30C0
18C0
18C0
18C0
1CC0
0CC0
0CC0
0CC0
0CC0
0CC0
0CC0
0CC0
0CC0
0CC0
1CC0
18C0
18C0
18C0
30C0
30C0
60C0
60C0
FFC0
FFC0
ENDCHAR
STARTCHAR 3018
ENCODING 12312
SWIDTH 1000 0
DWIDTH 32 0
BBX 11 29 19 -3
BITMAP
0020
00E0
07E0
3E60
F060
C060
C1E0
C780
C600
C600
C600
C600
C600
C600
C600
C600
C600
C600
C600
C600
C600
C700
C3C0
C0E0
E060
7860
1E60
03E0
00E0
ENDCHAR
STARTCHAR 3019
ENCODING 12313
SWIDTH 1000 0
DWIDTH 32 0
BBX 11 29 2 -3
BITMAP
8000
E000
FC00
CF80
C1E0
C060
F060
3E60
0660
0660
0660
0660
0660
0660
0660
0660
0660
0660
0660
0660
0660
0E60
7C60
E060
C0E0
C3C0
CF00
F800
E000
ENDCHAR
STARTCHAR 301C
ENCODING 12316
SWIDTH 1000 0
DWIDTH 32 0
BBX 26 7 3 9
BITMAP
0F800000
3FF00000
78780040
E01E00C0
800F83C0
0003FF80
0000FE00
ENDCHAR
STARTCHAR 301D
ENCODING 12317
SWIDTH 1000 0
DWIDTH 32 0
BBX 9 13 21 13
BITMAP
2000
7000
F800
3C00
0E00
0700
0180
7000
F800
3C00
0E00
0700
0180
ENDCHAR
STARTCHAR 301F
ENCODING 12319
SWIDTH 1000 0
DWIDTH 32 0
BBX 9 13 2 -3
BITMAP
8000
E000
7000
3C00
1F00
0700
8300
E000
7000
3C00
1E00
0F80
0300
ENDCHAR
STARTCHAR 3020
ENCODING 12320
SWIDTH 1000 0
DWIDTH 32 0
BBX 30 21 1 1
BITMAP
1FFFFFE0
1FFFFFE0
1FFFFFE0
00000000
00000000
1FFFFFE0
1FFFFFE0
1FFFFFE0
00038000
72438938
87E38F84
82438904
83C38604
40038008
30838430
10400820
08201040
04186080
03078300
01E01E00
003FF000
ENDCHAR
STARTCHAR 3033
ENCODING 12339
SWIDTH 1000 0
DWIDTH 32 0
BBX 14 28 7 -3
BITMAP
001C
001C
001C
003C
0038
0038
0070
0070
00F0
00E0
00E0
01C0
01C0
0380
0380
0700
0700
0F00
0E00
1E00
1C00
3C00
3800
7800
7000
6000
E000
E000
ENDCHAR
STARTCHAR 3034
ENCODING 12340
SWIDTH 1000 0
DWIDTH 32 0
BBX 20 28 7 -3
BITMAP
001C00
001C00
001C00
003C00
003800
003800
007000
007000
00F000
00E000
00E000
01C0C0
01C1E0
0384E0
038E70
070720
070700
0F0300
0E0000
1E0000
1C0000
3C0000
380000
780000
700000
600000
E00000
E00000
ENDCHAR
STARTCHAR 3035
ENCODING 12341
SWIDTH 1000 0
DWIDTH 32 0
BBX 16 29 7 -2
BITMAP
E000
E000
7000
7000
3800
3800
1C00
1C00
0E00
0E00
0700
0700
0380
0380
01C0
01C0
00E0
00E0
00F0
0070
0078
0038
003C
001C
001E
001E
000E
000F
0006
ENDCHAR
STARTCHAR 303B
ENCODING 12347
SWIDTH 1000 0
DWIDTH 32 0
BBX 11 21 11 2
BITMAP
6000
F000
7800
1C00
0F00
0780
3F80
7080
6000
6000
6000
3000
3800
1C00
0F00
07C0
0FE0
3FE0
F800
E000
8000
ENDCHAR
STARTCHAR 303C
ENCODING 12348
SWIDTH 1000 0
DWIDTH 32 0
BBX 28 27 2 -1
BITMAP
FFFFFFF0
FFFFFFF0
C00000F0
C00001F0
C00003B0
C0000730
C0000E30
C0001C30
C0003830
C0007030
C001E030
C003C030
C0078030
C00F0030
C01E0030
C03C0030
C0700030
C0E00030
C1C00030
C3800030
C7000030
CE000030
DC000030
F8000030
F0000030
FFFFFFF0
FFFFFFF0
ENDCHAR
STARTCHAR 303D
ENCODING 12349
SWIDTH 1000 0
DWIDTH 32 0
BBX 25 28 4 -3
BITMAP
38000000
FC000000
CE3C0000
867E0000
06C60000
03C70000
03830000
01830000
00038000
00038000
00018000
00018000
0001C000
0000C000
0000C000
0000E000
00006000
00007000
00007000
00003000
00003800
00001800
00001C00
00001C00
00000E00
00000F00
00000780
00000380
ENDCHAR
STARTCHAR 3041
ENCODING 12353
SWIDTH 1000 0
DWIDTH 32 0
BBX 20 21 6 0
BITMAP
030000
030000
030600
7FFE00
7FF800
030000
030C00
031C00
03FF80
0799C0
0E3060
3E3070
366030
63E030
E3C030
C38030
C70060
CF00E0
FF07C0
721F00
001800
ENDCHAR
STARTCHAR 3042
ENCODING 12354
SWIDTH 1000 0
DWIDTH 32 0
BBX 26 26 3 -1
BITMAP
00E00000
00E00000
00E01000
00E1F000
00FFF000
3FFF0000
3EC00000
00C18000
00C1C000
00C3C000
00FFFC00
01FB9E00
03C30700
0FC70380
1CC601C0
38CE00C0
30DC00C0
70F800C0
60F000C0
E0F001C0
E0E00180
E1C00380
E7E00F00
FEE07E00
7803F800
0001C000
ENDCHAR
STARTCHAR 3043
ENCODING 12355
SWIDTH 1000 0
DWIDTH 32 0
BBX 20 18 6 0
BITMAP
C00000
E00000
E00700
E00700
E00380
E001C0
E001C0
6000E0
6000E0
600070
608070
70C030
30C000
31C000
398000
1F8000
0F0000
060000
ENDCHAR
STARTCHAR 3044
ENCODING 12356
SWIDTH 1000 0
DWIDTH 32 0
BBX 25 22 4 0
BITMAP
E0000000
E0000000
E000E000
E000E000
E0007000
E0003800
E0003800
E0001C00
E0001C00
E0000E00
E0000E00
60000700
60000700
70200380
70300300
70700000
38700000
38600000
1CE00000
1FC00000
0FC00000
07000000
ENDCHAR
STARTCHAR 3045
ENCODING 12357
SWIDTH 1000 0
DWIDTH 32 0
BBX 15 23 8 -2
BITMAP
0400
0F80
07E0
00F0
0020
0000
03F0
1FFC
FE0C
F006
0006
0006
0006
0006
000E
000C
001C
0018
0078
00F0
07C0
0F80
0400
ENDCHAR
STARTCHAR 3046
ENCODING 12358
SWIDTH 1000 0
DWIDTH 32 0
BBX 18 28 6 -2
BITMAP
020000
07C000
07F000
00FC00
003C00
000C00
000000
000000
00FC00
0FFF00
7F8380
FC0180
6000C0
0000C0
0000C0
0000C0
0000C0
0000C0
000180
000180
000380
000700
000F00
001E00
007C00
07F000
03C000
010000
ENDCHAR
STARTCHAR 3047
ENCODING 12359
SWIDTH 1000 0
DWIDTH 32 0
BBX 19 21 7 -1
BITMAP
040000
078000
07E000
00F000
003000
000000
001000
3FF800
3FF800
383000
006000
00C000
018000
038000
07F000
0FF000
1E3000
3C3000
703000
E03FC0
C01FE0
ENDCHAR
STARTCHAR 3048
ENCODING 12360
SWIDTH 1000 0
DWIDTH 32 0
BBX 24 26 4 0
BITMAP
01C000
03F800
007E00
001E00
000600
000000
000000
001F00
1FFF80
1FF380
080700
000E00
001C00
003800
007000
00E000
01FE00
03FE00
07C700
0F8700
1E0700
3C0700
780700
F003FF
E001FF
400000
ENDCHAR
STARTCHAR 3049
ENCODING 12361
SWIDTH 1000 0
DWIDTH 32 0
BBX 21 20 6 -1
BITMAP
038000
038000
038080
0381E0
0FF8F0
7FF838
7F8018
038008
038000
03BF80
03FFE0
0FC070
3F8038
738018
E38018
C38018
C38038
E380F0
7F9FE0
1F1F80
ENDCHAR
STARTCHAR 304A
ENCODING 12362
SWIDTH 1000 0
DWIDTH 32 0
BBX 26 24 4 -1
BITMAP
01C00000
01C00000
01C01000
01C03800
01C61E00
0FFF0F00
7FFC0780
7FC003C0
01C00080
01C00000
01C00000
01CFF000
01FFFC00
07F00F00
0FC00300
3DC00180
71C00180
61C00180
C1C00180
C1C00380
C1C00F00
71C03E00
3FCFFC00
0F87F000
ENDCHAR
STARTCHAR 304B
ENCODING 12363
SWIDTH 1000 0
DWIDTH 32 0
BBX 27 25 3 -1
BITMAP
00600000
00600000
00600000
00E00000
00E00800
00C03800
00C01C00
0FFC0E00
FFFF0700
7D830700
01818380
038181C0
030181C0
070180E0
070180E0
06018040
0E018000
0C018000
1C038000
1C030000
38030000
38070000
70C60000
70FE0000
207C0000
ENDCHAR
STARTCHAR 304C
ENCODING 12364
SWIDTH 1000 0
DWIDTH 32 0
BBX 28 27 3 -1
BITMAP
00000080
000001C0
006000E0
00600E70
00600720
00E00380
00E01180
00C03900
00C03800
0FFC1C00
FFFF0E00
7D830700
01818700
03818380
030181C0
070181C0
070180C0
06018080
0E018000
0C018000
1C038000
1C030000
38030000
38070000
70C60000
70FE0000
207C0000
ENDCHAR
STARTCHAR 304D
ENCODING 12365
SWIDTH 1000 0
DWIDTH 32 0
BBX 20 26 6 0
BITMAP
038000
038000
01C380
01FF80
0FFE00
FFE000
FC7010
0070F0
003FF0
00FF80
FFFC00
FF8C00
800E00
000700
000300
001380
003FC0
4007C0
6001C0
600000
600000
300000
380000
1F0000
0FFF00
01FF00
ENDCHAR
STARTCHAR 304E
ENCODING 12366
SWIDTH 1000 0
DWIDTH 32 0
BBX 25 28 6 -1
BITMAP
00000400
00000E00
03802700
03807380
01C3B900
01FF9C00
0FFE0C00
FFE00000
FC701000
0070F000
003FF000
00FF8000
FFFC0000
FF8C0000
800E0000
00070000
00030000
00138000
003FC000
4007C000
6001C000
60000000
60000000
30000000
38000000
1F000000
0FFF0000
01FF0000
ENDCHAR
STARTCHAR 304F
ENCODING 12367
SWIDTH 1000 0
DWIDTH 32 0
BBX 14 26 8 -1
BITMAP
0030
0038
0070
00F0
01E0
01C0
0380
0700
1E00
3C00
7800
F000
E000
F000
7800
3C00
1E00
0F00
0780
03C0
01E0
00F0
0078
0038
001C
0018
ENDCHAR
STARTCHAR 3050
ENCODING 12368
SWIDTH 1000 0
DWIDTH 32 0
BBX 21 26 8 -1
BITMAP
003000
003800
007060
00F070
01E338
01C318
038190
0701C0
1E0080
3C0000
780000
F00000
E00000
F00000
780000
3C0000
1E0000
0F0000
078000
03C000
01E000
00F000
007800
003800
001C00
001800
ENDCHAR
STARTCHAR 3051
ENCODING 12369
SWIDTH 1000 0
DWIDTH 32 0
BBX 24 25 5 -2
BITMAP
6000E0
7000E0
7000E0
6000E0
6000E0
600060
60007E
E1FFFF
C1FFF8
C00060
C00060
C00060
C00060
C00060
CC0060
CC0060
D800E0
D800C0
F000C0
F001C0
700180
600780
600F00
403E00
003C00
ENDCHAR
STARTCHAR 3052
ENCODING 12370
SWIDTH 1000 0
DWIDTH 32 0
BBX 26 28 5 -1
BITMAP
00000180
00000D80
6000ECC0
7000EEC0
7000E600
6000E400
6000E000
6000E000
6000FE00
E1FFFF00
C1FFF800
C0006000
C0006000
C0006000
C0006000
C0006000
CC006000
CC006000
D800E000
D800C000
F000C000
F001C000
70038000
60078000
600F0000
403E0000
00380000
00100000
ENDCHAR
STARTCHAR 3053
ENCODING 12371
SWIDTH 1000 0
DWIDTH 32 0
BBX 20 22 6 1
BITMAP
3FFF80
3FFFC0
001F00
003C00
007000
00E000
000000
000000
000000
000000
000000
200000
700000
E00000
C00000
C00000
C00000
C00000
600000
3C00F0
1FFFF0
03FFC0
ENDCHAR
STARTCHAR 3054
ENCODING 12372
SWIDTH 1000 0
DWIDTH 32 0
BBX 25 25 6 1
BITMAP
00000600
00002700
00003300
3FFFB980
3FFF9D00
001F0C00
003C0000
00700000
00E00000
00000000
00000000
00000000
00000000
00000000
20000000
70000000
E0000000
C0000000
C0000000
C0000000
C0000000
60000000
3C00F000
1FFFF000
03FFC000
ENDCHAR
STARTCHAR 3055
ENCODING 12373
SWIDTH 1000 0
DWIDTH 32 0
BBX 21 25 5 0
BITMAP
00C000
00E000
006000
007030
0031F8
003FE0
01FF80
FFFC00
FE0C00
000E00
000700
000300
000380
0001C0
001EC0
000FE0
3001F0
300060
300000
380000
180000
1C0000
0F0000
03FF80
00FF80
ENDCHAR
STARTCHAR 3056
ENCODING 12374
SWIDTH 1000 0
DWIDTH 32 0
BBX 26 27 5 0
BITMAP
00000300
00000B80
00C019C0
00E00CC0
00600600
00703600
0031F000
003FE000
01FF8000
FFFC0000
FE0C0000
000E0000
00070000
00030000
00038000
0001C000
001EC000
000FE000
3001F000
30006000
30000000
38000000
18000000
1C000000
0F000000
03FF8000
00FF8000
ENDCHAR
STARTCHAR 3057
ENCODING 12375
SWIDTH 1000 0
DWIDTH 32 0
BBX 19 25 9 -1
BITMAP
E00000
E00000
E00000
E00000
E00000
E00000
E00000
E00000
E00000
E00000
E00000
E00000
E00000
E00000
E00000
E00000
E00040
E000E0
E001E0
E001C0
E00380
700F00
783E00
3FFC00
0FE000
ENDCHAR
STARTCHAR 3058
ENCODING 12376
SWIDTH 1000 0
DWIDTH 32 0
BBX 19 25 9 0
BITMAP
E00100
E00380
E009C0
E01CE0
E00E40
E00600
E00700
E00000
E00000
E00000
E00000
E00000
E00000
E00000
E00000
E00000
E00040
E000E0
E001E0
E001C0
E00380
700F00
783E00
3FFC00
0FE000
ENDCHAR
STARTCHAR 3059
ENCODING 12377
SWIDTH 1000 0
DWIDTH 32 0
BBX 26 28 3 -3
BITMAP
00070000
00070000
00070000
00070000
00070000
FFFFFFC0
FFFFFFC0
00070000
00070000
00070000
00FF0000
01FF0000
018F0000
03870000
03078000
03078000
03878000
018F8000
01FF8000
007B8000
00070000
00070000
000E0000
003E0000
007C0000
01F00000
01E00000
00800000
ENDCHAR
STARTCHAR 305A
ENCODING 12378
SWIDTH 1000 0
DWIDTH 32 0
BBX 27 30 3 -3
BITMAP
00000080
00000980
000719C0
00070CE0
00070E60
00070640
00070000
FFFFFFC0
FFFFFFC0
00070000
00070000
00070000
00FF0000
01FF0000
018F0000
03870000
03078000
03078000
03878000
018F8000
01FF8000
007B8000
00070000
00070000
000E0000
003E0000
007C0000
01F00000
01E00000
00800000
ENDCHAR
STARTCHAR 305B
ENCODING 12379
SWIDTH 1000 0
DWIDTH 32 0
BBX 28 25 2 0
BITMAP
00003800
00003800
03803800
03803800
03803800
03803800
03803800
038038F0
3FFFFFF0
FFFFFFE0
FB803800
03803800
03803800
03803800
03803800
03823800
0383F800
0383F000
03800000
03800000
03800000
03800000
03C00100
01FFFF00
007FFF00
ENDCHAR
STARTCHAR 305C
ENCODING 12380
SWIDTH 1000 0
DWIDTH 32 0
BBX 30 26 2 0
BITMAP
00000020
00003830
000039B8
03803998
038039DC
038038C0
038038C0
03803800
038038F0
3FFFFFF0
FFFFFFE0
FB803800
03803800
03803800
03803800
03803800
03823800
0383F800
0383F000
03800000
03800000
03800000
03800000
03C00100
01FFFF00
007FFF00
ENDCHAR
STARTCHAR 305D
ENCODING 12381
SWIDTH 1000 0
DWIDTH 32 0
BBX 24 25 4 -1
BITMAP
000FC0
0FFFE0
0FF9C0
080380
000700
000E00
001C00
007001
00E1FF
01FFFF
FFFFC0
FF8E00
C01800
003000
006000
004000
00C000
00C000
00C000
00C000
00E000
007800
003FC0
001FF0
0003F0
ENDCHAR
STARTCHAR 305E
ENCODING 12382
SWIDTH 1000 0
DWIDTH 32 0
BBX 27 25 4 -1
BITMAP
000FC100
0FFFE180
0FF9CDC0
08038EE0
00070600
000E0700
001C0000
00700100
00E1FF00
01FFFF00
FFFFC000
FF8E0000
C0180000
00300000
00600000
00400000
00C00000
00C00000
00C00000
00C00000
00E00000
00780000
003FC000
001FF000
0003F000
ENDCHAR
STARTCHAR 305F
ENCODING 12383
SWIDTH 1000 0
DWIDTH 32 0
BBX 26 26 3 0
BITMAP
00600000
00E00000
00E00000
00E00000
00C60000
FFFE0000
7FFE0000
01800000
01800000
03800F00
0383FF00
0307FF00
07070000
07000000
06000000
0E000000
0C000000
1C000000
1C180000
18180000
381C0000
380C0000
700F00C0
7007FFC0
E000FFC0
20000000
ENDCHAR
STARTCHAR 3060
ENCODING 12384
SWIDTH 1000 0
DWIDTH 32 0
BBX 26 26 3 0
BITMAP
00600300
00E00380
00E039C0
00E01CC0
00C60C00
FFFE0E00
7FFE0400
01800000
01800000
03800F00
0383FF00
0307FF00
07070000
07000000
06000000
0E000000
0C000000
1C000000
1C180000
18180000
381C0000
380C0000
700F00C0
7007FFC0
E000FFC0
20000000
ENDCHAR
STARTCHAR 3061
ENCODING 12385
SWIDTH 1000 0
DWIDTH 32 0
BBX 24 26 3 0
BITMAP
00E000
00E000
00E000
00C000
00C7F0
FFFFF0
FFFE00
018000
018000
038000
038000
030000
0707F0
073FFC
06F80E
0FE007
0F8003
0E0003
000003
000003
000006
00001E
00007C
00FFF0
00FFC0
007800
ENDCHAR
STARTCHAR 3062
ENCODING 12386
SWIDTH 1000 0
DWIDTH 32 0
BBX 28 27 3 -1
BITMAP
00000080
00E001C0
00E000E0
00E00E70
00C00730
00C7F300
FFFFF380
FFFE0000
01800000
01800000
03800000
03800000
03000000
0707F000
073FFC00
06F80E00
0FE00700
0F800300
0E000300
00000300
00000300
00000600
00001E00
00007C00
00FFF000
00FFC000
00780000
ENDCHAR
STARTCHAR 3063
ENCODING 12387
SWIDTH 1000 0
DWIDTH 32 0
BBX 20 15 6 0
BITMAP
01FF00
3FFFC0
FF00E0
E00060
000030
000030
000030
000030
000070
000060
0001E0
0007C0
007F00
07FC00
03E000
ENDCHAR
STARTCHAR 3064
ENCODING 12388
SWIDTH 1000 0
DWIDTH 32 0
BBX 25 20 3 1
BITMAP
001FE000
03FFFC00
1FF01E00
FF000700
F8000300
40000180
00000180
00000180
00000180
00000180
00000180
00000300
00000700
00000E00
00001E00
00007800
0007F000
01FFC000
00FE0000
00800000
ENDCHAR
STARTCHAR 3065
ENCODING 12389
SWIDTH 1000 0
DWIDTH 32 0
BBX 27 26 3 2
BITMAP
00000100
00000380
00000DC0
00000EE0
00000740
00000700
001FE200
03FFFC00
1FF01E00
FF000700
F8000300
40000180
00000180
00000180
00000180
00000180
00000180
00000300
00000700
00000E00
00001E00
00007800
0007F000
01FFC000
00FE0000
00800000
ENDCHAR
STARTCHAR 3066
ENCODING 12390
SWIDTH 1000 0
DWIDTH 32 0
BBX 25 24 3 -1
BITMAP
00000700
001FFF00
1FFFFF80
FFF1E000
F8070000
000E0000
00180000
00300000
00700000
00600000
00E00000
00C00000
00C00000
00C00000
00C00000
00C00000
00E00000
00600000
00700000
003C0000
001FC000
000FF800
0001F800
00000400
ENDCHAR
STARTCHAR 3067
ENCODING 12391
SWIDTH 1000 0
DWIDTH 32 0
BBX 26 24 3 -1
BITMAP
00000700
001FFF00
1FFFFF80
FFF1E000
F8070000
000E0300
00180380
003011C0
007038C0
00601C80
00E00E00
00C00400
00C00000
00C00000
00C00000
00C00000
00E00000
00600000
00700000
003C0000
001FC000
000FF800
0001F800
00000400
ENDCHAR
STARTCHAR 3068
ENCODING 12392
SWIDTH 1000 0
DWIDTH 32 0
BBX 20 25 6 1
BITMAP
0E0000
0E0000
0E0000
060000
070000
070000
030000
038040
0387E0
019FE0
01FE00
03F000
078000
1E0000
380000
700000
600000
C00000
C00000
C00000
C00000
E00000
780070
3FFFF0
07FFF0
ENDCHAR
STARTCHAR 3069
ENCODING 12393
SWIDTH 1000 0
DWIDTH 32 0
BBX 24 26 6 0
BITMAP
000008
0E001C
0E004E
0E00E7
060072
070030
070030
030000
038040
0387E0
019FE0
01FE00
03F000
078000
1E0000
380000
700000
600000
C00000
C00000
C00000
C00000
E00000
780070
3FFFF0
07FFF0
ENDCHAR
STARTCHAR 306A
ENCODING 12394
SWIDTH 1000 0
DWIDTH 32 0
BBX 26 27 3 -1
BITMAP
00E00000
00E00000
00C00000
00C00000
01C00000
01CE1800
7FFE3C00
7FF80F00
03800780
030003C0
070061C0
07006080
06006000
0E006000
0C006000
1C006000
38006000
38006000
701F6000
703FF000
E060FC00
00C07F00
00C067C0
00E061C0
0070E000
003FE000
001F8000
ENDCHAR
STARTCHAR 306B
ENCODING 12395
SWIDTH 1000 0
DWIDTH 32 0
BBX 23 24 5 -1
BITMAP
300000
700000
700000
603FFC
607FFC
604000
600000
E00000
C00000
C00000
C00000
C00000
C00000
C00000
C80000
CC6000
D86000
F86000
F06000
F07000
E03806
E01FFE
E007FE
E00000
ENDCHAR
STARTCHAR 306C
ENCODING 12396
SWIDTH 1000 0
DWIDTH 32 0
BBX 27 25 3 0
BITMAP
00070000
00070000
00070000
60060000
70060000
303FE000
30FFF800
3BCC1C00
1F0C0E00
1E0C0700
1C1C0300
3C180180
36180180
66380180
63300180
E3F00180
C1E00180
C1E1F180
C1C3FF80
C1E60F00
C3E607C0
E7060FE0
7E071EE0
3803FC40
0001F000
ENDCHAR
STARTCHAR 306D
ENCODING 12397
SWIDTH 1000 0
DWIDTH 32 0
BBX 27 26 3 -1
BITMAP
03800000
03800000
03000000
03000000
03000000
0380F800
FFC7FC00
FF8F0E00
E3BC0700
03700300
03E00380
03C00180
03800180
07000180
0F000180
1F000180
3F000180
3B03F180
7307FF80
E30E0F80
430C03C0
030C07E0
030E1EE0
0307FC20
0301F000
03800000
ENDCHAR
STARTCHAR 306E
ENCODING 12398
SWIDTH 1000 0
DWIDTH 32 0
BBX 26 23 3 0
BITMAP
003FC000
01FFF000
03EEFC00
0F0E1E00
1E0C0700
380C0380
300C0180
701C01C0
601C00C0
E01800C0
C01800C0
C03800C0
C03800C0
C03000C0
C07001C0
C0600180
60E00380
61C00700
33C00E00
1F803C00
0E07F800
0007E000
00030000
ENDCHAR
STARTCHAR 306F
ENCODING 12399
SWIDTH 1000 0
DWIDTH 32 0
BBX 26 24 4 0
BITMAP
38006000
38006000
30006000
30006000
70006000
60007F00
607FFF00
607FF800
60006000
E0006000
C0006000
C0006000
C0006000
C0006000
C4006000
CC006000
CC1FE000
DC7FF800
F8E07E00
F8C06F80
70C063C0
70E0E180
707FE000
701F8000
ENDCHAR
STARTCHAR 3070
ENCODING 12400
SWIDTH 1000 0
DWIDTH 32 0
BBX 27 27 4 -1
BITMAP
00000080
000000C0
00000EE0
18006660
38006320
30006380
30006000
70006000
60007F00
607FFF80
607FF800
60006000
E0006000
C0006000
C0006000
C0006000
C0006000
C4006000
C6006000
CC1FE000
EC7FF800
F8E07E00
F8C06F80
70C063C0
70E0E180
707FE000
701F8000
ENDCHAR
STARTCHAR 3071
ENCODING 12401
SWIDTH 1000 0
DWIDTH 32 0
BBX 27 27 4 -1
BITMAP
00000380
00000440
00000820
18006820
38006820
30006440
30006380
70006000
60007F00
607FFF80
607FF800
60006000
E0006000
C0006000
C0006000
C0006000
C0006000
C4006000
C6006000
CC1FE000
EC7FF800
F8E07E00
F8C06F80
70C063C0
70E0E180
707FE000
701F8000
ENDCHAR
STARTCHAR 3072
ENCODING 12402
SWIDTH 1000 0
DWIDTH 32 0
BBX 27 23 2 0
BITMAP
00381000
01F83800
0FF03C00
FF603C00
78C01E00
41801F00
03801B00
07001B80
060019C0
0E0019E0
0C0018E0
1C001860
18001800
18001800
18001800
18003800
18003000
1C007000
0C006000
0E00E000
0783C000
03FF8000
00FE0000
ENDCHAR
ENDFONT
